%FSLAX45Y45*%
G04 Gerber Fmt 4.5, Leading zero omitted, Abs format (unit mm)*
G04 Created by KiCad (PCBNEW (5.1.5)-3) date 2020-10-12 17:18:43*
%MOMM*%
%LPD*%
G04 APERTURE LIST*
%TA.AperFunction,Profile*%
%ADD10C,0.050000*%
%TD*%
%ADD11C,0.200000*%
%ADD12C,0.300000*%
G04 APERTURE END LIST*
D10*
X9474200Y-6756400D02*
X19735800Y-6756400D01*
X9474200Y-11074400D02*
X9474200Y-6756400D01*
X10617200Y-11074400D02*
X9474200Y-11074400D01*
X10617200Y-12166600D02*
X10617200Y-11074400D01*
X11861800Y-12166600D02*
X10617200Y-12166600D01*
X11861800Y-13208000D02*
X11861800Y-12166600D01*
X11887200Y-13258800D02*
X11861800Y-13208000D01*
X11938000Y-13284200D02*
X11887200Y-13258800D01*
X18288000Y-13284200D02*
X11938000Y-13284200D01*
X18338800Y-13258800D02*
X18288000Y-13284200D01*
X18364200Y-13208000D02*
X18338800Y-13258800D01*
X18364200Y-12166600D02*
X18364200Y-13208000D01*
X19735800Y-12166600D02*
X18364200Y-12166600D01*
X19735800Y-6756400D02*
X19735800Y-12166600D01*
D11*
X9626000Y-7158200D02*
X9786000Y-7318200D01*
X9786000Y-7158200D02*
X9626000Y-7318200D01*
X10126000Y-7158200D02*
X10286000Y-7318200D01*
X10286000Y-7158200D02*
X10126000Y-7318200D01*
X12495772Y-11055339D02*
G75*
G03X12495772Y-11055339I-200000J0D01*
G01*
X18095710Y-11520000D02*
G75*
G03X18095710Y-11520000I-200000J0D01*
G01*
D12*
X9758128Y-13752414D02*
X9758128Y-13452414D01*
X9829557Y-13452414D01*
X9872414Y-13466700D01*
X9900986Y-13495271D01*
X9915271Y-13523843D01*
X9929557Y-13580986D01*
X9929557Y-13623843D01*
X9915271Y-13680986D01*
X9900986Y-13709557D01*
X9872414Y-13738129D01*
X9829557Y-13752414D01*
X9758128Y-13752414D01*
X10058128Y-13752414D02*
X10058128Y-13552414D01*
X10058128Y-13609557D02*
X10072414Y-13580986D01*
X10086700Y-13566700D01*
X10115271Y-13552414D01*
X10143843Y-13552414D01*
X10243843Y-13752414D02*
X10243843Y-13552414D01*
X10243843Y-13452414D02*
X10229557Y-13466700D01*
X10243843Y-13480986D01*
X10258128Y-13466700D01*
X10243843Y-13452414D01*
X10243843Y-13480986D01*
X10429557Y-13752414D02*
X10400986Y-13738129D01*
X10386700Y-13709557D01*
X10386700Y-13452414D01*
X10586700Y-13752414D02*
X10558128Y-13738129D01*
X10543843Y-13709557D01*
X10543843Y-13452414D01*
X10929557Y-13752414D02*
X10929557Y-13452414D01*
X11029557Y-13666700D01*
X11129557Y-13452414D01*
X11129557Y-13752414D01*
X11400986Y-13752414D02*
X11400986Y-13595271D01*
X11386700Y-13566700D01*
X11358128Y-13552414D01*
X11300986Y-13552414D01*
X11272414Y-13566700D01*
X11400986Y-13738129D02*
X11372414Y-13752414D01*
X11300986Y-13752414D01*
X11272414Y-13738129D01*
X11258128Y-13709557D01*
X11258128Y-13680986D01*
X11272414Y-13652414D01*
X11300986Y-13638129D01*
X11372414Y-13638129D01*
X11400986Y-13623843D01*
X11543843Y-13552414D02*
X11543843Y-13852414D01*
X11543843Y-13566700D02*
X11572414Y-13552414D01*
X11629557Y-13552414D01*
X11658128Y-13566700D01*
X11672414Y-13580986D01*
X11686700Y-13609557D01*
X11686700Y-13695271D01*
X11672414Y-13723843D01*
X11658128Y-13738129D01*
X11629557Y-13752414D01*
X11572414Y-13752414D01*
X11543843Y-13738129D01*
X11815271Y-13723843D02*
X11829557Y-13738129D01*
X11815271Y-13752414D01*
X11800986Y-13738129D01*
X11815271Y-13723843D01*
X11815271Y-13752414D01*
X11815271Y-13566700D02*
X11829557Y-13580986D01*
X11815271Y-13595271D01*
X11800986Y-13580986D01*
X11815271Y-13566700D01*
X11815271Y-13595271D01*
X9311700Y-14166700D02*
X9471700Y-14326700D01*
X9471700Y-14166700D02*
X9311700Y-14326700D01*
X9915271Y-14382414D02*
X9743843Y-14382414D01*
X9829557Y-14382414D02*
X9829557Y-14082414D01*
X9800986Y-14125271D01*
X9772414Y-14153843D01*
X9743843Y-14168129D01*
X10043843Y-14353843D02*
X10058128Y-14368129D01*
X10043843Y-14382414D01*
X10029557Y-14368129D01*
X10043843Y-14353843D01*
X10043843Y-14382414D01*
X10315271Y-14082414D02*
X10258128Y-14082414D01*
X10229557Y-14096700D01*
X10215271Y-14110986D01*
X10186700Y-14153843D01*
X10172414Y-14210986D01*
X10172414Y-14325271D01*
X10186700Y-14353843D01*
X10200986Y-14368129D01*
X10229557Y-14382414D01*
X10286700Y-14382414D01*
X10315271Y-14368129D01*
X10329557Y-14353843D01*
X10343843Y-14325271D01*
X10343843Y-14253843D01*
X10329557Y-14225271D01*
X10315271Y-14210986D01*
X10286700Y-14196700D01*
X10229557Y-14196700D01*
X10200986Y-14210986D01*
X10186700Y-14225271D01*
X10172414Y-14253843D01*
X10529557Y-14082414D02*
X10558128Y-14082414D01*
X10586700Y-14096700D01*
X10600986Y-14110986D01*
X10615271Y-14139557D01*
X10629557Y-14196700D01*
X10629557Y-14268129D01*
X10615271Y-14325271D01*
X10600986Y-14353843D01*
X10586700Y-14368129D01*
X10558128Y-14382414D01*
X10529557Y-14382414D01*
X10500986Y-14368129D01*
X10486700Y-14353843D01*
X10472414Y-14325271D01*
X10458128Y-14268129D01*
X10458128Y-14196700D01*
X10472414Y-14139557D01*
X10486700Y-14110986D01*
X10500986Y-14096700D01*
X10529557Y-14082414D01*
X10758128Y-14382414D02*
X10758128Y-14182414D01*
X10758128Y-14210986D02*
X10772414Y-14196700D01*
X10800986Y-14182414D01*
X10843843Y-14182414D01*
X10872414Y-14196700D01*
X10886700Y-14225271D01*
X10886700Y-14382414D01*
X10886700Y-14225271D02*
X10900986Y-14196700D01*
X10929557Y-14182414D01*
X10972414Y-14182414D01*
X11000986Y-14196700D01*
X11015271Y-14225271D01*
X11015271Y-14382414D01*
X11158128Y-14382414D02*
X11158128Y-14182414D01*
X11158128Y-14210986D02*
X11172414Y-14196700D01*
X11200986Y-14182414D01*
X11243843Y-14182414D01*
X11272414Y-14196700D01*
X11286700Y-14225271D01*
X11286700Y-14382414D01*
X11286700Y-14225271D02*
X11300986Y-14196700D01*
X11329557Y-14182414D01*
X11372414Y-14182414D01*
X11400986Y-14196700D01*
X11415271Y-14225271D01*
X11415271Y-14382414D01*
X12000986Y-14068129D02*
X11743843Y-14453843D01*
X12386700Y-14082414D02*
X12415271Y-14082414D01*
X12443843Y-14096700D01*
X12458128Y-14110986D01*
X12472414Y-14139557D01*
X12486700Y-14196700D01*
X12486700Y-14268129D01*
X12472414Y-14325271D01*
X12458128Y-14353843D01*
X12443843Y-14368129D01*
X12415271Y-14382414D01*
X12386700Y-14382414D01*
X12358128Y-14368129D01*
X12343843Y-14353843D01*
X12329557Y-14325271D01*
X12315271Y-14268129D01*
X12315271Y-14196700D01*
X12329557Y-14139557D01*
X12343843Y-14110986D01*
X12358128Y-14096700D01*
X12386700Y-14082414D01*
X12615271Y-14353843D02*
X12629557Y-14368129D01*
X12615271Y-14382414D01*
X12600986Y-14368129D01*
X12615271Y-14353843D01*
X12615271Y-14382414D01*
X12815271Y-14082414D02*
X12843843Y-14082414D01*
X12872414Y-14096700D01*
X12886700Y-14110986D01*
X12900986Y-14139557D01*
X12915271Y-14196700D01*
X12915271Y-14268129D01*
X12900986Y-14325271D01*
X12886700Y-14353843D01*
X12872414Y-14368129D01*
X12843843Y-14382414D01*
X12815271Y-14382414D01*
X12786700Y-14368129D01*
X12772414Y-14353843D01*
X12758128Y-14325271D01*
X12743843Y-14268129D01*
X12743843Y-14196700D01*
X12758128Y-14139557D01*
X12772414Y-14110986D01*
X12786700Y-14096700D01*
X12815271Y-14082414D01*
X13172414Y-14082414D02*
X13115271Y-14082414D01*
X13086700Y-14096700D01*
X13072414Y-14110986D01*
X13043843Y-14153843D01*
X13029557Y-14210986D01*
X13029557Y-14325271D01*
X13043843Y-14353843D01*
X13058128Y-14368129D01*
X13086700Y-14382414D01*
X13143843Y-14382414D01*
X13172414Y-14368129D01*
X13186700Y-14353843D01*
X13200986Y-14325271D01*
X13200986Y-14253843D01*
X13186700Y-14225271D01*
X13172414Y-14210986D01*
X13143843Y-14196700D01*
X13086700Y-14196700D01*
X13058128Y-14210986D01*
X13043843Y-14225271D01*
X13029557Y-14253843D01*
X13300986Y-14082414D02*
X13486700Y-14082414D01*
X13386700Y-14196700D01*
X13429557Y-14196700D01*
X13458128Y-14210986D01*
X13472414Y-14225271D01*
X13486700Y-14253843D01*
X13486700Y-14325271D01*
X13472414Y-14353843D01*
X13458128Y-14368129D01*
X13429557Y-14382414D01*
X13343843Y-14382414D01*
X13315271Y-14368129D01*
X13300986Y-14353843D01*
X13600986Y-14082414D02*
X13600986Y-14139557D01*
X13715271Y-14082414D02*
X13715271Y-14139557D01*
X14158128Y-14496700D02*
X14143843Y-14482414D01*
X14115271Y-14439557D01*
X14100986Y-14410986D01*
X14086700Y-14368129D01*
X14072414Y-14296700D01*
X14072414Y-14239557D01*
X14086700Y-14168129D01*
X14100986Y-14125271D01*
X14115271Y-14096700D01*
X14143843Y-14053843D01*
X14158128Y-14039557D01*
X14258128Y-14110986D02*
X14272414Y-14096700D01*
X14300986Y-14082414D01*
X14372414Y-14082414D01*
X14400986Y-14096700D01*
X14415271Y-14110986D01*
X14429557Y-14139557D01*
X14429557Y-14168129D01*
X14415271Y-14210986D01*
X14243843Y-14382414D01*
X14429557Y-14382414D01*
X14786700Y-14382414D02*
X14786700Y-14082414D01*
X14915271Y-14382414D02*
X14915271Y-14225271D01*
X14900986Y-14196700D01*
X14872414Y-14182414D01*
X14829557Y-14182414D01*
X14800986Y-14196700D01*
X14786700Y-14210986D01*
X15100986Y-14382414D02*
X15072414Y-14368129D01*
X15058128Y-14353843D01*
X15043843Y-14325271D01*
X15043843Y-14239557D01*
X15058128Y-14210986D01*
X15072414Y-14196700D01*
X15100986Y-14182414D01*
X15143843Y-14182414D01*
X15172414Y-14196700D01*
X15186700Y-14210986D01*
X15200986Y-14239557D01*
X15200986Y-14325271D01*
X15186700Y-14353843D01*
X15172414Y-14368129D01*
X15143843Y-14382414D01*
X15100986Y-14382414D01*
X15372414Y-14382414D02*
X15343843Y-14368129D01*
X15329557Y-14339557D01*
X15329557Y-14082414D01*
X15600986Y-14368129D02*
X15572414Y-14382414D01*
X15515271Y-14382414D01*
X15486700Y-14368129D01*
X15472414Y-14339557D01*
X15472414Y-14225271D01*
X15486700Y-14196700D01*
X15515271Y-14182414D01*
X15572414Y-14182414D01*
X15600986Y-14196700D01*
X15615271Y-14225271D01*
X15615271Y-14253843D01*
X15472414Y-14282414D01*
X15729557Y-14368129D02*
X15758128Y-14382414D01*
X15815271Y-14382414D01*
X15843843Y-14368129D01*
X15858128Y-14339557D01*
X15858128Y-14325271D01*
X15843843Y-14296700D01*
X15815271Y-14282414D01*
X15772414Y-14282414D01*
X15743843Y-14268129D01*
X15729557Y-14239557D01*
X15729557Y-14225271D01*
X15743843Y-14196700D01*
X15772414Y-14182414D01*
X15815271Y-14182414D01*
X15843843Y-14196700D01*
X15958128Y-14496700D02*
X15972414Y-14482414D01*
X16000986Y-14439557D01*
X16015271Y-14410986D01*
X16029557Y-14368129D01*
X16043843Y-14296700D01*
X16043843Y-14239557D01*
X16029557Y-14168129D01*
X16015271Y-14125271D01*
X16000986Y-14096700D01*
X15972414Y-14053843D01*
X15958128Y-14039557D01*
X16500986Y-14496700D02*
X16486700Y-14482414D01*
X16458128Y-14439557D01*
X16443843Y-14410986D01*
X16429557Y-14368129D01*
X16415271Y-14296700D01*
X16415271Y-14239557D01*
X16429557Y-14168129D01*
X16443843Y-14125271D01*
X16458128Y-14096700D01*
X16486700Y-14053843D01*
X16500986Y-14039557D01*
X16615271Y-14182414D02*
X16615271Y-14382414D01*
X16615271Y-14210986D02*
X16629557Y-14196700D01*
X16658128Y-14182414D01*
X16700986Y-14182414D01*
X16729557Y-14196700D01*
X16743843Y-14225271D01*
X16743843Y-14382414D01*
X16929557Y-14382414D02*
X16900986Y-14368129D01*
X16886700Y-14353843D01*
X16872414Y-14325271D01*
X16872414Y-14239557D01*
X16886700Y-14210986D01*
X16900986Y-14196700D01*
X16929557Y-14182414D01*
X16972414Y-14182414D01*
X17000986Y-14196700D01*
X17015271Y-14210986D01*
X17029557Y-14239557D01*
X17029557Y-14325271D01*
X17015271Y-14353843D01*
X17000986Y-14368129D01*
X16972414Y-14382414D01*
X16929557Y-14382414D01*
X17115271Y-14182414D02*
X17229557Y-14182414D01*
X17158128Y-14082414D02*
X17158128Y-14339557D01*
X17172414Y-14368129D01*
X17200986Y-14382414D01*
X17229557Y-14382414D01*
X17558128Y-14182414D02*
X17558128Y-14482414D01*
X17558128Y-14196700D02*
X17586700Y-14182414D01*
X17643843Y-14182414D01*
X17672414Y-14196700D01*
X17686700Y-14210986D01*
X17700986Y-14239557D01*
X17700986Y-14325271D01*
X17686700Y-14353843D01*
X17672414Y-14368129D01*
X17643843Y-14382414D01*
X17586700Y-14382414D01*
X17558128Y-14368129D01*
X17872414Y-14382414D02*
X17843843Y-14368129D01*
X17829557Y-14339557D01*
X17829557Y-14082414D01*
X18115271Y-14382414D02*
X18115271Y-14225271D01*
X18100986Y-14196700D01*
X18072414Y-14182414D01*
X18015271Y-14182414D01*
X17986700Y-14196700D01*
X18115271Y-14368129D02*
X18086700Y-14382414D01*
X18015271Y-14382414D01*
X17986700Y-14368129D01*
X17972414Y-14339557D01*
X17972414Y-14310986D01*
X17986700Y-14282414D01*
X18015271Y-14268129D01*
X18086700Y-14268129D01*
X18115271Y-14253843D01*
X18215271Y-14182414D02*
X18329557Y-14182414D01*
X18258128Y-14082414D02*
X18258128Y-14339557D01*
X18272414Y-14368129D01*
X18300986Y-14382414D01*
X18329557Y-14382414D01*
X18543843Y-14368129D02*
X18515271Y-14382414D01*
X18458128Y-14382414D01*
X18429557Y-14368129D01*
X18415271Y-14339557D01*
X18415271Y-14225271D01*
X18429557Y-14196700D01*
X18458128Y-14182414D01*
X18515271Y-14182414D01*
X18543843Y-14196700D01*
X18558128Y-14225271D01*
X18558128Y-14253843D01*
X18415271Y-14282414D01*
X18815271Y-14382414D02*
X18815271Y-14082414D01*
X18815271Y-14368129D02*
X18786700Y-14382414D01*
X18729557Y-14382414D01*
X18700986Y-14368129D01*
X18686700Y-14353843D01*
X18672414Y-14325271D01*
X18672414Y-14239557D01*
X18686700Y-14210986D01*
X18700986Y-14196700D01*
X18729557Y-14182414D01*
X18786700Y-14182414D01*
X18815271Y-14196700D01*
X18929557Y-14496700D02*
X18943843Y-14482414D01*
X18972414Y-14439557D01*
X18986700Y-14410986D01*
X19000986Y-14368129D01*
X19015271Y-14296700D01*
X19015271Y-14239557D01*
X19000986Y-14168129D01*
X18986700Y-14125271D01*
X18972414Y-14096700D01*
X18943843Y-14053843D01*
X18929557Y-14039557D01*
X9471700Y-14642700D02*
G75*
G03X9471700Y-14642700I-200000J0D01*
G01*
X9886700Y-14578414D02*
X9886700Y-14778414D01*
X9815271Y-14464129D02*
X9743843Y-14678414D01*
X9929557Y-14678414D01*
X10043843Y-14749843D02*
X10058128Y-14764129D01*
X10043843Y-14778414D01*
X10029557Y-14764129D01*
X10043843Y-14749843D01*
X10043843Y-14778414D01*
X10243843Y-14478414D02*
X10272414Y-14478414D01*
X10300986Y-14492700D01*
X10315271Y-14506986D01*
X10329557Y-14535557D01*
X10343843Y-14592700D01*
X10343843Y-14664129D01*
X10329557Y-14721271D01*
X10315271Y-14749843D01*
X10300986Y-14764129D01*
X10272414Y-14778414D01*
X10243843Y-14778414D01*
X10215271Y-14764129D01*
X10200986Y-14749843D01*
X10186700Y-14721271D01*
X10172414Y-14664129D01*
X10172414Y-14592700D01*
X10186700Y-14535557D01*
X10200986Y-14506986D01*
X10215271Y-14492700D01*
X10243843Y-14478414D01*
X10529557Y-14478414D02*
X10558128Y-14478414D01*
X10586700Y-14492700D01*
X10600986Y-14506986D01*
X10615271Y-14535557D01*
X10629557Y-14592700D01*
X10629557Y-14664129D01*
X10615271Y-14721271D01*
X10600986Y-14749843D01*
X10586700Y-14764129D01*
X10558128Y-14778414D01*
X10529557Y-14778414D01*
X10500986Y-14764129D01*
X10486700Y-14749843D01*
X10472414Y-14721271D01*
X10458128Y-14664129D01*
X10458128Y-14592700D01*
X10472414Y-14535557D01*
X10486700Y-14506986D01*
X10500986Y-14492700D01*
X10529557Y-14478414D01*
X10758128Y-14778414D02*
X10758128Y-14578414D01*
X10758128Y-14606986D02*
X10772414Y-14592700D01*
X10800986Y-14578414D01*
X10843843Y-14578414D01*
X10872414Y-14592700D01*
X10886700Y-14621271D01*
X10886700Y-14778414D01*
X10886700Y-14621271D02*
X10900986Y-14592700D01*
X10929557Y-14578414D01*
X10972414Y-14578414D01*
X11000986Y-14592700D01*
X11015271Y-14621271D01*
X11015271Y-14778414D01*
X11158128Y-14778414D02*
X11158128Y-14578414D01*
X11158128Y-14606986D02*
X11172414Y-14592700D01*
X11200986Y-14578414D01*
X11243843Y-14578414D01*
X11272414Y-14592700D01*
X11286700Y-14621271D01*
X11286700Y-14778414D01*
X11286700Y-14621271D02*
X11300986Y-14592700D01*
X11329557Y-14578414D01*
X11372414Y-14578414D01*
X11400986Y-14592700D01*
X11415271Y-14621271D01*
X11415271Y-14778414D01*
X12000986Y-14464129D02*
X11743843Y-14849843D01*
X12386700Y-14478414D02*
X12415271Y-14478414D01*
X12443843Y-14492700D01*
X12458128Y-14506986D01*
X12472414Y-14535557D01*
X12486700Y-14592700D01*
X12486700Y-14664129D01*
X12472414Y-14721271D01*
X12458128Y-14749843D01*
X12443843Y-14764129D01*
X12415271Y-14778414D01*
X12386700Y-14778414D01*
X12358128Y-14764129D01*
X12343843Y-14749843D01*
X12329557Y-14721271D01*
X12315271Y-14664129D01*
X12315271Y-14592700D01*
X12329557Y-14535557D01*
X12343843Y-14506986D01*
X12358128Y-14492700D01*
X12386700Y-14478414D01*
X12615271Y-14749843D02*
X12629557Y-14764129D01*
X12615271Y-14778414D01*
X12600986Y-14764129D01*
X12615271Y-14749843D01*
X12615271Y-14778414D01*
X12915271Y-14778414D02*
X12743843Y-14778414D01*
X12829557Y-14778414D02*
X12829557Y-14478414D01*
X12800986Y-14521271D01*
X12772414Y-14549843D01*
X12743843Y-14564129D01*
X13186700Y-14478414D02*
X13043843Y-14478414D01*
X13029557Y-14621271D01*
X13043843Y-14606986D01*
X13072414Y-14592700D01*
X13143843Y-14592700D01*
X13172414Y-14606986D01*
X13186700Y-14621271D01*
X13200986Y-14649843D01*
X13200986Y-14721271D01*
X13186700Y-14749843D01*
X13172414Y-14764129D01*
X13143843Y-14778414D01*
X13072414Y-14778414D01*
X13043843Y-14764129D01*
X13029557Y-14749843D01*
X13300986Y-14478414D02*
X13500986Y-14478414D01*
X13372414Y-14778414D01*
X13600986Y-14478414D02*
X13600986Y-14535557D01*
X13715271Y-14478414D02*
X13715271Y-14535557D01*
X14158128Y-14892700D02*
X14143843Y-14878414D01*
X14115271Y-14835557D01*
X14100986Y-14806986D01*
X14086700Y-14764129D01*
X14072414Y-14692700D01*
X14072414Y-14635557D01*
X14086700Y-14564129D01*
X14100986Y-14521271D01*
X14115271Y-14492700D01*
X14143843Y-14449843D01*
X14158128Y-14435557D01*
X14258128Y-14506986D02*
X14272414Y-14492700D01*
X14300986Y-14478414D01*
X14372414Y-14478414D01*
X14400986Y-14492700D01*
X14415271Y-14506986D01*
X14429557Y-14535557D01*
X14429557Y-14564129D01*
X14415271Y-14606986D01*
X14243843Y-14778414D01*
X14429557Y-14778414D01*
X14786700Y-14778414D02*
X14786700Y-14478414D01*
X14915271Y-14778414D02*
X14915271Y-14621271D01*
X14900986Y-14592700D01*
X14872414Y-14578414D01*
X14829557Y-14578414D01*
X14800986Y-14592700D01*
X14786700Y-14606986D01*
X15100986Y-14778414D02*
X15072414Y-14764129D01*
X15058128Y-14749843D01*
X15043843Y-14721271D01*
X15043843Y-14635557D01*
X15058128Y-14606986D01*
X15072414Y-14592700D01*
X15100986Y-14578414D01*
X15143843Y-14578414D01*
X15172414Y-14592700D01*
X15186700Y-14606986D01*
X15200986Y-14635557D01*
X15200986Y-14721271D01*
X15186700Y-14749843D01*
X15172414Y-14764129D01*
X15143843Y-14778414D01*
X15100986Y-14778414D01*
X15372414Y-14778414D02*
X15343843Y-14764129D01*
X15329557Y-14735557D01*
X15329557Y-14478414D01*
X15600986Y-14764129D02*
X15572414Y-14778414D01*
X15515271Y-14778414D01*
X15486700Y-14764129D01*
X15472414Y-14735557D01*
X15472414Y-14621271D01*
X15486700Y-14592700D01*
X15515271Y-14578414D01*
X15572414Y-14578414D01*
X15600986Y-14592700D01*
X15615271Y-14621271D01*
X15615271Y-14649843D01*
X15472414Y-14678414D01*
X15729557Y-14764129D02*
X15758128Y-14778414D01*
X15815271Y-14778414D01*
X15843843Y-14764129D01*
X15858128Y-14735557D01*
X15858128Y-14721271D01*
X15843843Y-14692700D01*
X15815271Y-14678414D01*
X15772414Y-14678414D01*
X15743843Y-14664129D01*
X15729557Y-14635557D01*
X15729557Y-14621271D01*
X15743843Y-14592700D01*
X15772414Y-14578414D01*
X15815271Y-14578414D01*
X15843843Y-14592700D01*
X15958128Y-14892700D02*
X15972414Y-14878414D01*
X16000986Y-14835557D01*
X16015271Y-14806986D01*
X16029557Y-14764129D01*
X16043843Y-14692700D01*
X16043843Y-14635557D01*
X16029557Y-14564129D01*
X16015271Y-14521271D01*
X16000986Y-14492700D01*
X15972414Y-14449843D01*
X15958128Y-14435557D01*
X16500986Y-14892700D02*
X16486700Y-14878414D01*
X16458128Y-14835557D01*
X16443843Y-14806986D01*
X16429557Y-14764129D01*
X16415271Y-14692700D01*
X16415271Y-14635557D01*
X16429557Y-14564129D01*
X16443843Y-14521271D01*
X16458128Y-14492700D01*
X16486700Y-14449843D01*
X16500986Y-14435557D01*
X16615271Y-14578414D02*
X16615271Y-14778414D01*
X16615271Y-14606986D02*
X16629557Y-14592700D01*
X16658128Y-14578414D01*
X16700986Y-14578414D01*
X16729557Y-14592700D01*
X16743843Y-14621271D01*
X16743843Y-14778414D01*
X16929557Y-14778414D02*
X16900986Y-14764129D01*
X16886700Y-14749843D01*
X16872414Y-14721271D01*
X16872414Y-14635557D01*
X16886700Y-14606986D01*
X16900986Y-14592700D01*
X16929557Y-14578414D01*
X16972414Y-14578414D01*
X17000986Y-14592700D01*
X17015271Y-14606986D01*
X17029557Y-14635557D01*
X17029557Y-14721271D01*
X17015271Y-14749843D01*
X17000986Y-14764129D01*
X16972414Y-14778414D01*
X16929557Y-14778414D01*
X17115271Y-14578414D02*
X17229557Y-14578414D01*
X17158128Y-14478414D02*
X17158128Y-14735557D01*
X17172414Y-14764129D01*
X17200986Y-14778414D01*
X17229557Y-14778414D01*
X17558128Y-14578414D02*
X17558128Y-14878414D01*
X17558128Y-14592700D02*
X17586700Y-14578414D01*
X17643843Y-14578414D01*
X17672414Y-14592700D01*
X17686700Y-14606986D01*
X17700986Y-14635557D01*
X17700986Y-14721271D01*
X17686700Y-14749843D01*
X17672414Y-14764129D01*
X17643843Y-14778414D01*
X17586700Y-14778414D01*
X17558128Y-14764129D01*
X17872414Y-14778414D02*
X17843843Y-14764129D01*
X17829557Y-14735557D01*
X17829557Y-14478414D01*
X18115271Y-14778414D02*
X18115271Y-14621271D01*
X18100986Y-14592700D01*
X18072414Y-14578414D01*
X18015271Y-14578414D01*
X17986700Y-14592700D01*
X18115271Y-14764129D02*
X18086700Y-14778414D01*
X18015271Y-14778414D01*
X17986700Y-14764129D01*
X17972414Y-14735557D01*
X17972414Y-14706986D01*
X17986700Y-14678414D01*
X18015271Y-14664129D01*
X18086700Y-14664129D01*
X18115271Y-14649843D01*
X18215271Y-14578414D02*
X18329557Y-14578414D01*
X18258128Y-14478414D02*
X18258128Y-14735557D01*
X18272414Y-14764129D01*
X18300986Y-14778414D01*
X18329557Y-14778414D01*
X18543843Y-14764129D02*
X18515271Y-14778414D01*
X18458128Y-14778414D01*
X18429557Y-14764129D01*
X18415271Y-14735557D01*
X18415271Y-14621271D01*
X18429557Y-14592700D01*
X18458128Y-14578414D01*
X18515271Y-14578414D01*
X18543843Y-14592700D01*
X18558128Y-14621271D01*
X18558128Y-14649843D01*
X18415271Y-14678414D01*
X18815271Y-14778414D02*
X18815271Y-14478414D01*
X18815271Y-14764129D02*
X18786700Y-14778414D01*
X18729557Y-14778414D01*
X18700986Y-14764129D01*
X18686700Y-14749843D01*
X18672414Y-14721271D01*
X18672414Y-14635557D01*
X18686700Y-14606986D01*
X18700986Y-14592700D01*
X18729557Y-14578414D01*
X18786700Y-14578414D01*
X18815271Y-14592700D01*
X18929557Y-14892700D02*
X18943843Y-14878414D01*
X18972414Y-14835557D01*
X18986700Y-14806986D01*
X19000986Y-14764129D01*
X19015271Y-14692700D01*
X19015271Y-14635557D01*
X19000986Y-14564129D01*
X18986700Y-14521271D01*
X18972414Y-14492700D01*
X18943843Y-14449843D01*
X18929557Y-14435557D01*
M02*
