G04 #@! TF.GenerationSoftware,KiCad,Pcbnew,(5.1.5)-3*
G04 #@! TF.CreationDate,2020-10-12T17:18:37+01:00*
G04 #@! TF.ProjectId,MSXPi1,4d535850-6931-42e6-9b69-6361645f7063,rev?*
G04 #@! TF.SameCoordinates,Original*
G04 #@! TF.FileFunction,Copper,L2,Bot*
G04 #@! TF.FilePolarity,Positive*
%FSLAX46Y46*%
G04 Gerber Fmt 4.6, Leading zero omitted, Abs format (unit mm)*
G04 Created by KiCad (PCBNEW (5.1.5)-3) date 2020-10-12 17:18:37*
%MOMM*%
%LPD*%
G04 APERTURE LIST*
%ADD10C,1.800000*%
%ADD11R,1.800000X1.800000*%
%ADD12C,1.600000*%
%ADD13R,1.600000X1.600000*%
%ADD14O,1.400000X1.400000*%
%ADD15C,1.400000*%
%ADD16R,1.800000X8.000000*%
%ADD17O,1.700000X1.700000*%
%ADD18R,1.700000X1.700000*%
%ADD19O,1.727200X1.727200*%
%ADD20R,1.727200X1.727200*%
%ADD21C,1.650000*%
%ADD22R,1.650000X1.650000*%
%ADD23C,1.676400*%
%ADD24R,1.676400X1.676400*%
%ADD25C,0.800000*%
%ADD26C,0.500000*%
%ADD27C,0.300000*%
%ADD28C,0.350000*%
%ADD29C,0.250000*%
%ADD30C,0.400000*%
%ADD31C,0.254000*%
G04 APERTURE END LIST*
D10*
X113030000Y-70358000D03*
D11*
X115570000Y-70358000D03*
D12*
X164846000Y-76748000D03*
D13*
X164846000Y-79248000D03*
D14*
X129540000Y-80264000D03*
D15*
X129540000Y-75184000D03*
D12*
X107696000Y-90170000D03*
X107696000Y-92670000D03*
D16*
X120613296Y-127670829D03*
X123153296Y-127670829D03*
X125693296Y-127670829D03*
X128233296Y-127670829D03*
X130773296Y-127670829D03*
X133313296Y-127670829D03*
X135853296Y-127670829D03*
X138393296Y-127670829D03*
X140933296Y-127670829D03*
X143473296Y-127670829D03*
X146013296Y-127670829D03*
X148553296Y-127670829D03*
X151093296Y-127670829D03*
X153633296Y-127670829D03*
X156173296Y-127670829D03*
X158713296Y-127670829D03*
X161253296Y-127670829D03*
X163793296Y-127670829D03*
X166333296Y-127670829D03*
X168873296Y-127670829D03*
X171413296Y-127670829D03*
X173953296Y-127670829D03*
X176493296Y-127670829D03*
X179033296Y-127670829D03*
X181573296Y-127670829D03*
D17*
X186944000Y-96774000D03*
X184404000Y-96774000D03*
X186944000Y-94234000D03*
X184404000Y-94234000D03*
X186944000Y-91694000D03*
X184404000Y-91694000D03*
X186944000Y-89154000D03*
X184404000Y-89154000D03*
X186944000Y-86614000D03*
X184404000Y-86614000D03*
X186944000Y-84074000D03*
D18*
X184404000Y-84074000D03*
D19*
X192786000Y-78232000D03*
X192786000Y-80772000D03*
X190246000Y-78232000D03*
X190246000Y-80772000D03*
X187706000Y-78232000D03*
X187706000Y-80772000D03*
X185166000Y-78232000D03*
X185166000Y-80772000D03*
X182626000Y-78232000D03*
D20*
X182626000Y-80772000D03*
D21*
X96560000Y-75882000D03*
X103160000Y-77882000D03*
D22*
X99060000Y-71882000D03*
D14*
X141732000Y-75184000D03*
D15*
X141732000Y-80264000D03*
D14*
X134620000Y-80264000D03*
D15*
X134620000Y-75184000D03*
D14*
X144018000Y-75184000D03*
D15*
X144018000Y-80264000D03*
D14*
X146304000Y-80264000D03*
D15*
X146304000Y-75184000D03*
D12*
X99528000Y-85598000D03*
X97028000Y-85598000D03*
X104902000Y-85598000D03*
X102402000Y-85598000D03*
X104862000Y-87884000D03*
X102362000Y-87884000D03*
X99528000Y-87884000D03*
X97028000Y-87884000D03*
D14*
X109220000Y-78740000D03*
D15*
X109220000Y-73660000D03*
D14*
X114300000Y-78740000D03*
D15*
X114300000Y-73660000D03*
D10*
X107950000Y-70358000D03*
D11*
X110490000Y-70358000D03*
D23*
X166370000Y-111506000D03*
X163830000Y-111506000D03*
X161290000Y-111506000D03*
X158750000Y-111506000D03*
X156210000Y-111506000D03*
X153670000Y-111506000D03*
X151130000Y-111506000D03*
X148590000Y-111506000D03*
X146050000Y-111506000D03*
X143510000Y-111506000D03*
X140970000Y-111506000D03*
X138430000Y-111506000D03*
X135890000Y-111506000D03*
X133350000Y-111506000D03*
X133350000Y-96266000D03*
X135890000Y-96266000D03*
X138430000Y-96266000D03*
X140970000Y-96266000D03*
X143510000Y-96266000D03*
X146050000Y-96266000D03*
X148590000Y-96266000D03*
X151130000Y-96266000D03*
X153670000Y-96266000D03*
X156210000Y-96266000D03*
X158750000Y-96266000D03*
X161290000Y-96266000D03*
X163830000Y-96266000D03*
D24*
X166370000Y-96266000D03*
D14*
X173482000Y-105156000D03*
D15*
X178562000Y-105156000D03*
D14*
X173482000Y-100584000D03*
D15*
X178562000Y-100584000D03*
D14*
X173482000Y-102870000D03*
D15*
X178562000Y-102870000D03*
D17*
X186944000Y-115824000D03*
X184404000Y-115824000D03*
X186944000Y-113284000D03*
X184404000Y-113284000D03*
X186944000Y-110744000D03*
X184404000Y-110744000D03*
X186944000Y-108204000D03*
X184404000Y-108204000D03*
X186944000Y-105664000D03*
X184404000Y-105664000D03*
X186944000Y-103124000D03*
X184404000Y-103124000D03*
X186944000Y-100584000D03*
D18*
X184404000Y-100584000D03*
D14*
X175768000Y-75184000D03*
D15*
X175768000Y-80264000D03*
D17*
X127000000Y-72390000D03*
X127000000Y-69850000D03*
X129540000Y-72390000D03*
X129540000Y-69850000D03*
X132080000Y-72390000D03*
X132080000Y-69850000D03*
X134620000Y-72390000D03*
X134620000Y-69850000D03*
X137160000Y-72390000D03*
X137160000Y-69850000D03*
X139700000Y-72390000D03*
X139700000Y-69850000D03*
X142240000Y-72390000D03*
X142240000Y-69850000D03*
X144780000Y-72390000D03*
X144780000Y-69850000D03*
X147320000Y-72390000D03*
X147320000Y-69850000D03*
X149860000Y-72390000D03*
X149860000Y-69850000D03*
X152400000Y-72390000D03*
X152400000Y-69850000D03*
X154940000Y-72390000D03*
X154940000Y-69850000D03*
X157480000Y-72390000D03*
X157480000Y-69850000D03*
X160020000Y-72390000D03*
X160020000Y-69850000D03*
X162560000Y-72390000D03*
X162560000Y-69850000D03*
X165100000Y-72390000D03*
X165100000Y-69850000D03*
X167640000Y-72390000D03*
X167640000Y-69850000D03*
X170180000Y-72390000D03*
X170180000Y-69850000D03*
X172720000Y-72390000D03*
X172720000Y-69850000D03*
X175260000Y-72390000D03*
D18*
X175260000Y-69850000D03*
D12*
X99100000Y-105156000D03*
D13*
X101600000Y-105156000D03*
D14*
X119380000Y-78740000D03*
D15*
X119380000Y-73660000D03*
D14*
X173482000Y-75184000D03*
D15*
X173482000Y-80264000D03*
D14*
X171196000Y-75184000D03*
D15*
X171196000Y-80264000D03*
D14*
X168910000Y-80264000D03*
D15*
X168910000Y-75184000D03*
D11*
X120650000Y-70358000D03*
D10*
X118110000Y-70358000D03*
D12*
X108966000Y-110236000D03*
X108966000Y-107736000D03*
X108966000Y-112562000D03*
X108966000Y-115062000D03*
X117388000Y-101092000D03*
X119888000Y-101092000D03*
X124460000Y-92964000D03*
X124460000Y-90464000D03*
X113752000Y-84074000D03*
X111252000Y-84074000D03*
X169672000Y-107442000D03*
X169672000Y-109942000D03*
D15*
X127000000Y-75184000D03*
D14*
X127000000Y-80264000D03*
X132080000Y-80264000D03*
D15*
X132080000Y-75184000D03*
X139446000Y-75184000D03*
D14*
X139446000Y-80264000D03*
D15*
X137160000Y-75184000D03*
D14*
X137160000Y-80264000D03*
D25*
X124206000Y-120650000D03*
X141986000Y-106171999D03*
X137414000Y-106172006D03*
X155356919Y-106308555D03*
X129032000Y-110236000D03*
X133096000Y-108712000D03*
X148082000Y-106172000D03*
X175514000Y-87122000D03*
X171704008Y-85598000D03*
X123444000Y-86106000D03*
X133200528Y-89209021D03*
X115822653Y-89508953D03*
X170434000Y-84836000D03*
X172961801Y-83306289D03*
X180340000Y-78486000D03*
X151384000Y-91453010D03*
X147346043Y-94815190D03*
X144780000Y-104902000D03*
X148844028Y-92964000D03*
X149860004Y-114300000D03*
X146812000Y-100584006D03*
X137370978Y-89934013D03*
X152383060Y-117228883D03*
X140716000Y-90678000D03*
X154686000Y-115316000D03*
X155956000Y-121920000D03*
X119281725Y-88428149D03*
X113649520Y-88084163D03*
X181297716Y-119029822D03*
X154432000Y-119634000D03*
X116349550Y-88659010D03*
X132858303Y-106644394D03*
X109728000Y-87391987D03*
X122682000Y-105663996D03*
X131660362Y-108726192D03*
X129032004Y-108712000D03*
X124085478Y-104084979D03*
X114829986Y-89387976D03*
X111506000Y-116840000D03*
X167640000Y-94742000D03*
X113792000Y-96266000D03*
X114568021Y-93017321D03*
X113389872Y-91537283D03*
X118097315Y-95930543D03*
X176530000Y-109220000D03*
X167132000Y-118618000D03*
X167132000Y-122174000D03*
X123190000Y-98044000D03*
X115073902Y-92109344D03*
X170908947Y-89361023D03*
X110096039Y-90394667D03*
X166683266Y-85584590D03*
X117611408Y-83679989D03*
X124442021Y-86169069D03*
X120416799Y-93158769D03*
X120343960Y-88426590D03*
X121390421Y-87786348D03*
X112776000Y-93472000D03*
X121826939Y-83897950D03*
X117600979Y-84679946D03*
X120904000Y-89484012D03*
X134874000Y-112776000D03*
X109663594Y-89389936D03*
X129032000Y-111760002D03*
X153156968Y-118102770D03*
X151130000Y-120904000D03*
X153728242Y-118923543D03*
X152908000Y-120904000D03*
X181297716Y-120370564D03*
X172477990Y-108354610D03*
X109728000Y-88392000D03*
X165401529Y-88628449D03*
X160528002Y-85084579D03*
X117602000Y-82680021D03*
X171450000Y-122428000D03*
X167640000Y-87122000D03*
X179070000Y-122174000D03*
X179936662Y-104752662D03*
X176240274Y-98032010D03*
X149098000Y-107696000D03*
X158241996Y-98806000D03*
X147320000Y-108458000D03*
X161544000Y-104648000D03*
X144018004Y-78232000D03*
X120650000Y-80264004D03*
X109152695Y-82130010D03*
X160528000Y-74422000D03*
X156972000Y-74930000D03*
X169164004Y-82550000D03*
X190246000Y-89916000D03*
D26*
X161172555Y-106308555D02*
X155922604Y-106308555D01*
X166370000Y-111506000D02*
X161172555Y-106308555D01*
X155922604Y-106308555D02*
X155356919Y-106308555D01*
X123698000Y-120650000D02*
X124206000Y-120650000D01*
X123153296Y-127670829D02*
X123153296Y-121194704D01*
X123153296Y-121194704D02*
X123698000Y-120650000D01*
X125222000Y-120650000D02*
X124206000Y-120650000D01*
X125730000Y-124534125D02*
X125730000Y-121158000D01*
X125730000Y-121158000D02*
X125222000Y-120650000D01*
X125693296Y-127670829D02*
X125693296Y-124570829D01*
X125693296Y-124570829D02*
X125730000Y-124534125D01*
X166618427Y-83566000D02*
X170058945Y-87006518D01*
X170058945Y-87006518D02*
X170058945Y-89769025D01*
X173482000Y-93192080D02*
X173482000Y-99594051D01*
X170058945Y-89769025D02*
X173482000Y-93192080D01*
X173482000Y-99594051D02*
X173482000Y-100584000D01*
X164846000Y-80548000D02*
X166618427Y-82320427D01*
X166618427Y-82320427D02*
X166618427Y-83566000D01*
X164846000Y-79248000D02*
X164846000Y-80548000D01*
X137414000Y-106172006D02*
X134874006Y-108712000D01*
X134874006Y-108712000D02*
X133096000Y-108712000D01*
X147516315Y-106172000D02*
X148082000Y-106172000D01*
X141986000Y-106171999D02*
X142551686Y-106172000D01*
X142551686Y-106172000D02*
X147516315Y-106172000D01*
X173228008Y-87122000D02*
X172104007Y-85997999D01*
X175514000Y-87122000D02*
X173228008Y-87122000D01*
X172104007Y-85997999D02*
X171704008Y-85598000D01*
D27*
X125730000Y-83820000D02*
X123843999Y-85706001D01*
X123843999Y-85706001D02*
X123444000Y-86106000D01*
X157535102Y-83820000D02*
X125730000Y-83820000D01*
D28*
X163282103Y-78072999D02*
X157535102Y-83820000D01*
X173576999Y-78072999D02*
X163282103Y-78072999D01*
X175768000Y-80264000D02*
X173576999Y-78072999D01*
D27*
X120458712Y-95817022D02*
X116341138Y-91699448D01*
X132275289Y-89209021D02*
X125667288Y-95817022D01*
X116341138Y-91699448D02*
X116341138Y-90027438D01*
X125667288Y-95817022D02*
X120458712Y-95817022D01*
X133200528Y-89209021D02*
X132275289Y-89209021D01*
X116341138Y-90027438D02*
X116222652Y-89908952D01*
X116222652Y-89908952D02*
X115822653Y-89508953D01*
D28*
X173585031Y-84436001D02*
X170833999Y-84436001D01*
X170833999Y-84436001D02*
X170434000Y-84836000D01*
X173482000Y-80264000D02*
X174181999Y-80963999D01*
X174181999Y-83839033D02*
X173585031Y-84436001D01*
X174181999Y-80963999D02*
X174181999Y-83839033D01*
X172961801Y-82029801D02*
X172961801Y-83306289D01*
X171196000Y-80264000D02*
X172961801Y-82029801D01*
D27*
X180340000Y-78486000D02*
X182626000Y-80772000D01*
X151397010Y-91453010D02*
X151384000Y-91453010D01*
X156210000Y-96266000D02*
X151397010Y-91453010D01*
X143473296Y-127670829D02*
X143473296Y-123370829D01*
X148347998Y-107270004D02*
X156210000Y-99408002D01*
X147401799Y-119442326D02*
X147401799Y-109740205D01*
X156210000Y-97451393D02*
X156210000Y-96266000D01*
X143473296Y-123370829D02*
X147401799Y-119442326D01*
X148347998Y-108794006D02*
X148347998Y-107270004D01*
X156210000Y-99408002D02*
X156210000Y-97451393D01*
X147401799Y-109740205D02*
X148347998Y-108794006D01*
D29*
X147346043Y-95022043D02*
X147346043Y-94815190D01*
X148590000Y-96266000D02*
X147346043Y-95022043D01*
X144780000Y-104336315D02*
X144780000Y-104902000D01*
X148590000Y-96266000D02*
X144780000Y-100076000D01*
X144780000Y-100076000D02*
X144780000Y-104336315D01*
D27*
X149098000Y-92964000D02*
X148844028Y-92964000D01*
X151130000Y-96266000D02*
X151130000Y-94996000D01*
X151130000Y-94996000D02*
X149098000Y-92964000D01*
D29*
X146013296Y-127670829D02*
X146013296Y-121506383D01*
X149860004Y-114865685D02*
X149860004Y-114300000D01*
X149860004Y-117659675D02*
X149860004Y-114865685D01*
X146013296Y-121506383D02*
X149860004Y-117659675D01*
X146812000Y-100584000D02*
X146812000Y-100584006D01*
X151130000Y-96266000D02*
X146812000Y-100584000D01*
D28*
X137370978Y-90126978D02*
X137370978Y-89934013D01*
X143510000Y-96266000D02*
X137370978Y-90126978D01*
D29*
X148553296Y-121058647D02*
X151983061Y-117628882D01*
X151983061Y-117628882D02*
X152383060Y-117228883D01*
X148553296Y-127670829D02*
X148553296Y-121058647D01*
D28*
X146050000Y-96012000D02*
X146050000Y-96266000D01*
X140716000Y-90678000D02*
X146050000Y-96012000D01*
D27*
X149334991Y-86850991D02*
X129975009Y-86850991D01*
X158750000Y-96266000D02*
X149334991Y-86850991D01*
X122101890Y-91813999D02*
X119281725Y-88993834D01*
X119281725Y-88993834D02*
X119281725Y-88428149D01*
X125012001Y-91813999D02*
X122101890Y-91813999D01*
X129975009Y-86850991D02*
X125012001Y-91813999D01*
D29*
X156355999Y-116985999D02*
X156355999Y-121520001D01*
X154686000Y-115316000D02*
X156355999Y-116985999D01*
X156355999Y-121520001D02*
X155956000Y-121920000D01*
D27*
X161904002Y-105398002D02*
X165018201Y-102283803D01*
X157373296Y-116893292D02*
X152481799Y-112001795D01*
X156173296Y-127670829D02*
X156173296Y-123370829D01*
X164400337Y-95077799D02*
X162478201Y-95077799D01*
X165018201Y-102283803D02*
X165018201Y-95695663D01*
X152481799Y-112001795D02*
X152481799Y-108028199D01*
X156173296Y-123370829D02*
X157373296Y-122170829D01*
X155111996Y-105398002D02*
X161904002Y-105398002D01*
X152481799Y-108028199D02*
X155111996Y-105398002D01*
X162478201Y-95077799D02*
X162128199Y-95427801D01*
X165018201Y-95695663D02*
X164400337Y-95077799D01*
X162128199Y-95427801D02*
X161290000Y-96266000D01*
X157373296Y-122170829D02*
X157373296Y-116893292D01*
X160451801Y-97104199D02*
X161290000Y-96266000D01*
X160101799Y-97454201D02*
X160451801Y-97104199D01*
X158179663Y-97454201D02*
X160101799Y-97454201D01*
X157460538Y-95832542D02*
X157460538Y-96735076D01*
X141489999Y-87376000D02*
X149003996Y-87376000D01*
X149003996Y-87376000D02*
X157460538Y-95832542D01*
X157460538Y-96735076D02*
X158179663Y-97454201D01*
D28*
X115777395Y-88084163D02*
X113649520Y-88084163D01*
X117348009Y-87884009D02*
X115977549Y-87884009D01*
X117602000Y-88138000D02*
X117348009Y-87884009D01*
X117602000Y-91440003D02*
X117602000Y-88138000D01*
X140970000Y-87884000D02*
X132080000Y-87884000D01*
X132080000Y-87884000D02*
X125222000Y-94742000D01*
X120903997Y-94742000D02*
X117602000Y-91440003D01*
X125222000Y-94742000D02*
X120903997Y-94742000D01*
X115977549Y-87884009D02*
X115777395Y-88084163D01*
X141478000Y-87376000D02*
X140970000Y-87884000D01*
D27*
X182607108Y-115080892D02*
X182607108Y-117720430D01*
X182607108Y-117720430D02*
X181697715Y-118629823D01*
X184404000Y-113284000D02*
X182607108Y-115080892D01*
X181697715Y-118629823D02*
X181297716Y-119029822D01*
X154432000Y-121232125D02*
X154432000Y-120199685D01*
X151093296Y-127670829D02*
X151093296Y-124570829D01*
X151093296Y-124570829D02*
X154432000Y-121232125D01*
X154432000Y-120199685D02*
X154432000Y-119634000D01*
D28*
X134323404Y-88434011D02*
X132307821Y-88434011D01*
X117051989Y-91667825D02*
X117051989Y-89361449D01*
X132307821Y-88434011D02*
X125449822Y-95292011D01*
X116749549Y-89059009D02*
X116349550Y-88659010D01*
X117051989Y-89361449D02*
X116749549Y-89059009D01*
X120676175Y-95292010D02*
X117051989Y-91667825D01*
X125449822Y-95292011D02*
X120676175Y-95292010D01*
X140970000Y-95080607D02*
X134323404Y-88434011D01*
X140970000Y-96266000D02*
X140970000Y-95080607D01*
D27*
X143510000Y-111506000D02*
X143510000Y-110320607D01*
X130704973Y-110018930D02*
X130704973Y-108232039D01*
X132292618Y-106644394D02*
X132858303Y-106644394D01*
X133258302Y-106244395D02*
X132858303Y-106644394D01*
X131329998Y-110643955D02*
X130704973Y-110018930D01*
X131329998Y-121387531D02*
X131329998Y-110643955D01*
X138357391Y-105167998D02*
X134334699Y-105167998D01*
X133313296Y-123370829D02*
X131329998Y-121387531D01*
X133313296Y-127670829D02*
X133313296Y-123370829D01*
X134334699Y-105167998D02*
X133258302Y-106244395D01*
X143510000Y-110320607D02*
X138357391Y-105167998D01*
X130704973Y-108232039D02*
X132292618Y-106644394D01*
X122116315Y-105663996D02*
X122682000Y-105663996D01*
X108846001Y-87708301D02*
X108846001Y-101226001D01*
X109162315Y-87391987D02*
X108846001Y-87708301D01*
X108846001Y-101226001D02*
X113283996Y-105663996D01*
X109728000Y-87391987D02*
X109162315Y-87391987D01*
X113283996Y-105663996D02*
X122116315Y-105663996D01*
X135853296Y-123370829D02*
X135853296Y-127670829D01*
X132161799Y-119679332D02*
X135853296Y-123370829D01*
X132161799Y-116250201D02*
X132161799Y-119679332D01*
X132779663Y-110317799D02*
X132161799Y-110935663D01*
X132161799Y-110935663D02*
X132161799Y-116250201D01*
D29*
X131660362Y-109291877D02*
X131660362Y-108726192D01*
X132161799Y-109793314D02*
X131660362Y-109291877D01*
D27*
X138430000Y-111506000D02*
X137241799Y-110317799D01*
D29*
X132161799Y-116250201D02*
X132161799Y-109793314D01*
D27*
X137241799Y-110317799D02*
X132779663Y-110317799D01*
X129032004Y-108712000D02*
X124404983Y-104084979D01*
X124404983Y-104084979D02*
X124085478Y-104084979D01*
X135890000Y-96266000D02*
X134671032Y-95047032D01*
X134671032Y-95047032D02*
X127144400Y-95047032D01*
X114829986Y-89953661D02*
X114829986Y-89387976D01*
X115793566Y-91858998D02*
X115793566Y-90917241D01*
X127144400Y-95047032D02*
X125874399Y-96317033D01*
X115793566Y-90917241D02*
X114829986Y-89953661D01*
X120251600Y-96317032D02*
X115793566Y-91858998D01*
X125874399Y-96317033D02*
X120251600Y-96317032D01*
X138393296Y-117734689D02*
X138393296Y-123370829D01*
X133350000Y-112691393D02*
X138393296Y-117734689D01*
X138393296Y-123370829D02*
X138393296Y-127670829D01*
X133350000Y-111506000D02*
X133350000Y-112691393D01*
X138430000Y-103726004D02*
X138430000Y-97451393D01*
X140933296Y-123370829D02*
X144698201Y-119605924D01*
X138430000Y-97451393D02*
X138430000Y-96266000D01*
X144698201Y-109994205D02*
X138430000Y-103726004D01*
X144698201Y-119605924D02*
X144698201Y-109994205D01*
X140933296Y-127670829D02*
X140933296Y-123370829D01*
X165099998Y-76708000D02*
X164861977Y-76469979D01*
D28*
X133770001Y-71540001D02*
X134620000Y-72390000D01*
X133394999Y-71164999D02*
X133770001Y-71540001D01*
X133394999Y-69351997D02*
X133394999Y-71164999D01*
X132668001Y-68624999D02*
X133394999Y-69351997D01*
X128225001Y-68624999D02*
X132668001Y-68624999D01*
X127000000Y-69850000D02*
X128225001Y-68624999D01*
X138474999Y-71164999D02*
X138850001Y-71540001D01*
X138850001Y-71540001D02*
X139700000Y-72390000D01*
X135845001Y-71164999D02*
X138474999Y-71164999D01*
X134620000Y-72390000D02*
X135845001Y-71164999D01*
X143465001Y-71164999D02*
X143930001Y-70699999D01*
X140925001Y-71164999D02*
X143465001Y-71164999D01*
X143930001Y-70699999D02*
X144780000Y-69850000D01*
X139700000Y-72390000D02*
X140925001Y-71164999D01*
X151550001Y-71540001D02*
X152400000Y-72390000D01*
X146005001Y-71075001D02*
X151085001Y-71075001D01*
X151085001Y-71075001D02*
X151550001Y-71540001D01*
X144780000Y-69850000D02*
X146005001Y-71075001D01*
X158794999Y-71164999D02*
X159170001Y-71540001D01*
X159170001Y-71540001D02*
X160020000Y-72390000D01*
X153625001Y-71164999D02*
X158794999Y-71164999D01*
X152400000Y-72390000D02*
X153625001Y-71164999D01*
X164250001Y-70699999D02*
X165100000Y-69850000D01*
X163785001Y-71164999D02*
X164250001Y-70699999D01*
X161245001Y-71164999D02*
X163785001Y-71164999D01*
X160020000Y-72390000D02*
X161245001Y-71164999D01*
X168865001Y-71075001D02*
X169330001Y-71540001D01*
X169330001Y-71540001D02*
X170180000Y-72390000D01*
X166325001Y-71075001D02*
X168865001Y-71075001D01*
X165100000Y-69850000D02*
X166325001Y-71075001D01*
D26*
X170180000Y-73914000D02*
X168910000Y-75184000D01*
X170180000Y-72390000D02*
X170180000Y-73914000D01*
X139700000Y-73152000D02*
X141732000Y-75184000D01*
X139700000Y-72390000D02*
X139700000Y-73152000D01*
D28*
X141732000Y-75184000D02*
X144018000Y-75184000D01*
X191922401Y-77368401D02*
X192786000Y-78232000D01*
X191547399Y-76993399D02*
X191922401Y-77368401D01*
X183864601Y-76993399D02*
X191547399Y-76993399D01*
X182626000Y-78232000D02*
X183864601Y-76993399D01*
D26*
X130773296Y-121629296D02*
X130773296Y-127670829D01*
X130048000Y-120904000D02*
X130773296Y-121629296D01*
X111905999Y-117239999D02*
X125875999Y-117239999D01*
X111506000Y-116840000D02*
X111905999Y-117239999D01*
X125875999Y-117239999D02*
X129286000Y-120650000D01*
X129286000Y-120650000D02*
X130048000Y-120904000D01*
X111506000Y-115102000D02*
X111506000Y-116840000D01*
X108966000Y-112562000D02*
X111506000Y-115102000D01*
X109768000Y-107736000D02*
X108966000Y-107736000D01*
X110998000Y-108966000D02*
X109768000Y-107736000D01*
X108966000Y-112562000D02*
X110097370Y-112562000D01*
X110998000Y-111661370D02*
X110998000Y-108966000D01*
X110097370Y-112562000D02*
X110998000Y-111661370D01*
X107834630Y-107736000D02*
X108966000Y-107736000D01*
X100548630Y-107736000D02*
X107834630Y-107736000D01*
X99100000Y-106287370D02*
X100548630Y-107736000D01*
X99100000Y-105156000D02*
X99100000Y-106287370D01*
X171029999Y-73239999D02*
X170180000Y-72390000D01*
X171823999Y-74033999D02*
X171029999Y-73239999D01*
X178427999Y-74033999D02*
X171823999Y-74033999D01*
X182626000Y-78232000D02*
X178427999Y-74033999D01*
X186944000Y-84074000D02*
X191428130Y-84074000D01*
X194099601Y-81402531D02*
X194099601Y-79545601D01*
X191428130Y-84074000D02*
X194099601Y-81402531D01*
X193649599Y-79095599D02*
X192786000Y-78232000D01*
X194099601Y-79545601D02*
X193649599Y-79095599D01*
X128233296Y-123170829D02*
X128270000Y-123134125D01*
X128233296Y-127670829D02*
X128233296Y-123170829D01*
X128270000Y-123134125D02*
X128270000Y-121666000D01*
X128270000Y-121666000D02*
X129032000Y-120904000D01*
X129032000Y-120904000D02*
X129286000Y-120650000D01*
X98278001Y-89134001D02*
X97827999Y-88683999D01*
X97827999Y-88683999D02*
X97028000Y-87884000D01*
X99100000Y-89956000D02*
X97028000Y-87884000D01*
X99100000Y-105156000D02*
X99100000Y-89956000D01*
X96228001Y-87084001D02*
X97028000Y-87884000D01*
X95777999Y-86633999D02*
X96228001Y-87084001D01*
X95777999Y-83376999D02*
X95777999Y-86633999D01*
X99100000Y-105156000D02*
X99100000Y-97761998D01*
X167658201Y-105428201D02*
X167658201Y-95139867D01*
X169672000Y-107442000D02*
X167658201Y-105428201D01*
X99100000Y-93218000D02*
X99100000Y-105156000D01*
X102797998Y-90170000D02*
X106564630Y-90170000D01*
X106564630Y-90170000D02*
X107696000Y-90170000D01*
X101111999Y-88484001D02*
X102797998Y-90170000D01*
X101111999Y-86888001D02*
X101111999Y-88484001D01*
X102402000Y-85598000D02*
X101111999Y-86888001D01*
X106896001Y-90969999D02*
X107696000Y-90170000D01*
X99899999Y-97966001D02*
X106896001Y-90969999D01*
X99899999Y-104356001D02*
X99899999Y-97966001D01*
X99100000Y-105156000D02*
X99899999Y-104356001D01*
X113792000Y-96266000D02*
X113792000Y-93793342D01*
X113792000Y-93793342D02*
X114568021Y-93017321D01*
X113389872Y-91839172D02*
X113389872Y-91537283D01*
X114568021Y-93017321D02*
X113389872Y-91839172D01*
X117761858Y-96266000D02*
X118097315Y-95930543D01*
X113792000Y-96266000D02*
X117761858Y-96266000D01*
X164846000Y-76748000D02*
X152868000Y-76748000D01*
X152868000Y-76748000D02*
X146396010Y-83219990D01*
X130104962Y-119831038D02*
X129286000Y-120650000D01*
X133350000Y-96266000D02*
X130104962Y-99511038D01*
X130104962Y-99511038D02*
X130104962Y-119831038D01*
X99060000Y-80094998D02*
X95777999Y-83376999D01*
X99060000Y-71882000D02*
X99060000Y-80094998D01*
X99060000Y-70557000D02*
X99060000Y-71882000D01*
X100609001Y-69007999D02*
X99060000Y-70557000D01*
X109139999Y-69007999D02*
X100609001Y-69007999D01*
X110490000Y-70358000D02*
X109139999Y-69007999D01*
X114219999Y-69007999D02*
X111840001Y-69007999D01*
X111840001Y-69007999D02*
X110490000Y-70358000D01*
X115570000Y-70358000D02*
X114219999Y-69007999D01*
X116920001Y-69007999D02*
X115570000Y-70358000D01*
X119299999Y-69007999D02*
X116920001Y-69007999D01*
X120650000Y-70358000D02*
X119299999Y-69007999D01*
X126492000Y-70358000D02*
X127000000Y-69850000D01*
X120650000Y-70358000D02*
X126492000Y-70358000D01*
D27*
X167132000Y-118618000D02*
X167132000Y-122174000D01*
X123190000Y-98044000D02*
X121271446Y-98044000D01*
X117758489Y-95039043D02*
X115473901Y-92754455D01*
X118266490Y-95039044D02*
X117758489Y-95039043D01*
X115473901Y-92754455D02*
X115473901Y-92509343D01*
X121271446Y-98044000D02*
X118266490Y-95039044D01*
X115473901Y-92509343D02*
X115073902Y-92109344D01*
X181356000Y-104394000D02*
X181356000Y-99808076D01*
X176530000Y-109220000D02*
X181356000Y-104394000D01*
X181356000Y-99808076D02*
X171308946Y-89761022D01*
X171308946Y-89761022D02*
X170908947Y-89361023D01*
X168890010Y-90862877D02*
X166683266Y-88656133D01*
X173227991Y-108784374D02*
X173227991Y-107994609D01*
X168873296Y-113139069D02*
X173227991Y-108784374D01*
X166683266Y-88656133D02*
X166683266Y-86150275D01*
X168890010Y-103656628D02*
X168890010Y-90862877D01*
X173227991Y-107994609D02*
X168890010Y-103656628D01*
X168873296Y-127670829D02*
X168873296Y-113139069D01*
X166683266Y-86150275D02*
X166683266Y-85584590D01*
X110096039Y-90394667D02*
X110496038Y-89994668D01*
X110496038Y-89994668D02*
X110496038Y-89275810D01*
X110496038Y-89275810D02*
X113037697Y-86734151D01*
X113991561Y-86734151D02*
X117045723Y-83679989D01*
X113037697Y-86734151D02*
X113991561Y-86734151D01*
X117045723Y-83679989D02*
X117611408Y-83679989D01*
D29*
X173953296Y-123420829D02*
X175103296Y-122270829D01*
X173953296Y-127670829D02*
X173953296Y-123420829D01*
D27*
X173953296Y-127670829D02*
X173953296Y-123370829D01*
X175153296Y-122170829D02*
X175153296Y-102801296D01*
X173953296Y-123370829D02*
X175153296Y-122170829D01*
X169458934Y-87255050D02*
X166538461Y-84334577D01*
X169966934Y-90525557D02*
X169458934Y-90017557D01*
X166538461Y-84334577D02*
X157763001Y-84334577D01*
X169458934Y-90017557D02*
X169458934Y-87255050D01*
X172977999Y-101634001D02*
X169966934Y-98622936D01*
X125007706Y-86169069D02*
X124442021Y-86169069D01*
X157763001Y-84334577D02*
X155928509Y-86169069D01*
X169966934Y-98622936D02*
X169966934Y-90525557D01*
X173986001Y-101634001D02*
X172977999Y-101634001D01*
X155928509Y-86169069D02*
X125007706Y-86169069D01*
X175153296Y-102801296D02*
X173986001Y-101634001D01*
D26*
X127000000Y-72390000D02*
X127000000Y-75184000D01*
X120016800Y-92758770D02*
X120416799Y-93158769D01*
X127000000Y-75184000D02*
X119552148Y-82631852D01*
X119552148Y-86707848D02*
X118275998Y-87983998D01*
X118275998Y-87983998D02*
X118275998Y-91017968D01*
X119552148Y-82631852D02*
X119552148Y-86707848D01*
X118275998Y-91017968D02*
X120016800Y-92758770D01*
D30*
X120343960Y-87860905D02*
X120343960Y-88426590D01*
X125739288Y-77363966D02*
X120343960Y-82759294D01*
X129540000Y-75184000D02*
X127360034Y-77363966D01*
X120343960Y-82759294D02*
X120343960Y-87860905D01*
X127360034Y-77363966D02*
X125739288Y-77363966D01*
X120990422Y-87386349D02*
X121390421Y-87786348D01*
X125987819Y-77963977D02*
X120990422Y-82961374D01*
X132080000Y-75184000D02*
X129300023Y-77963977D01*
X120990422Y-82961374D02*
X120990422Y-87386349D01*
X129300023Y-77963977D02*
X125987819Y-77963977D01*
D28*
X139446000Y-74676000D02*
X139446000Y-75184000D01*
X137160000Y-72390000D02*
X139446000Y-74676000D01*
D30*
X136020001Y-74545999D02*
X136020001Y-75907999D01*
X126236350Y-78563988D02*
X121826939Y-82973399D01*
X136652000Y-73914000D02*
X136020001Y-74545999D01*
X121826939Y-83332265D02*
X121826939Y-83897950D01*
X121826939Y-82973399D02*
X121826939Y-83332265D01*
X136020001Y-75907999D02*
X133364012Y-78563988D01*
X138176000Y-73914000D02*
X136652000Y-73914000D01*
X139446000Y-75184000D02*
X138176000Y-73914000D01*
X133364012Y-78563988D02*
X126236350Y-78563988D01*
X117200980Y-85079945D02*
X117600979Y-84679946D01*
X112376001Y-93072001D02*
X112376001Y-88173680D01*
X114996763Y-87284162D02*
X117200980Y-85079945D01*
X113265519Y-87284162D02*
X114996763Y-87284162D01*
X112376001Y-88173680D02*
X113265519Y-87284162D01*
X112776000Y-93472000D02*
X112376001Y-93072001D01*
X149860000Y-73592081D02*
X149860000Y-72390000D01*
X147168080Y-76284001D02*
X149860000Y-73592081D01*
X137160000Y-75184000D02*
X138260001Y-76284001D01*
X138260001Y-76284001D02*
X147168080Y-76284001D01*
X121303999Y-89084013D02*
X120904000Y-89484012D01*
X122626949Y-87761063D02*
X121303999Y-89084013D01*
X137160000Y-75184000D02*
X137160000Y-76583998D01*
X137160000Y-76583998D02*
X134579999Y-79163999D01*
X134579999Y-79163999D02*
X126484881Y-79163999D01*
X126484881Y-79163999D02*
X122626949Y-83021931D01*
X122626949Y-83021931D02*
X122626949Y-87761063D01*
D29*
X139700000Y-112776000D02*
X140970000Y-111506000D01*
X134874000Y-112776000D02*
X139700000Y-112776000D01*
D27*
X128524002Y-111760002D02*
X129032000Y-111760002D01*
X127762000Y-109379996D02*
X127762000Y-110998000D01*
X109346029Y-89707501D02*
X109346029Y-100456029D01*
X113549998Y-104659998D02*
X123042002Y-104659998D01*
X109663594Y-89389936D02*
X109346029Y-89707501D01*
X127762000Y-110998000D02*
X128524002Y-111760002D01*
X109346029Y-100456029D02*
X113549998Y-104659998D01*
X123042002Y-104659998D02*
X127762000Y-109379996D01*
D29*
X153156968Y-118102770D02*
X151130000Y-120129738D01*
X151130000Y-120129738D02*
X151130000Y-120904000D01*
X152908000Y-119743785D02*
X152908000Y-120904000D01*
X153728242Y-118923543D02*
X152908000Y-119743785D01*
D27*
X155156610Y-121847515D02*
X153633296Y-123370829D01*
X155690002Y-119994002D02*
X155156610Y-120527394D01*
X155690002Y-118638364D02*
X155690002Y-119994002D01*
X149916225Y-112864587D02*
X155690002Y-118638364D01*
X149916225Y-107131775D02*
X149916225Y-112864587D01*
X155156610Y-120527394D02*
X155156610Y-121847515D01*
X157468001Y-99579999D02*
X149916225Y-107131775D01*
X160516001Y-99579999D02*
X157468001Y-99579999D01*
X163830000Y-96266000D02*
X160516001Y-99579999D01*
X153633296Y-123370829D02*
X153633296Y-127670829D01*
X158713296Y-123370829D02*
X158713296Y-127670829D01*
X153670000Y-111506000D02*
X160528000Y-118364000D01*
X160528000Y-121556125D02*
X158713296Y-123370829D01*
X160528000Y-118364000D02*
X160528000Y-121556125D01*
D26*
X184404000Y-118396680D02*
X182430116Y-120370564D01*
X184404000Y-115824000D02*
X184404000Y-118396680D01*
X182430116Y-120370564D02*
X181863401Y-120370564D01*
X181863401Y-120370564D02*
X181297716Y-120370564D01*
D27*
X161253296Y-124570829D02*
X161253296Y-127670829D01*
X161544000Y-124280125D02*
X161253296Y-124570829D01*
X156210000Y-111506000D02*
X161544000Y-116840000D01*
X161544000Y-116840000D02*
X161544000Y-124280125D01*
D29*
X166333296Y-127670829D02*
X166333296Y-115007304D01*
X172077991Y-109262609D02*
X172077991Y-108754609D01*
X172077991Y-108754609D02*
X172477990Y-108354610D01*
X166333296Y-115007304D02*
X172077991Y-109262609D01*
D27*
X168390001Y-91616921D02*
X165801528Y-89028448D01*
X165801528Y-89028448D02*
X165401529Y-88628449D01*
X168390001Y-104266621D02*
X168390001Y-91616921D01*
X172477990Y-108354610D02*
X168390001Y-104266621D01*
X160528000Y-85084581D02*
X160528002Y-85084579D01*
X163316439Y-88628449D02*
X160528000Y-85840010D01*
X165401529Y-88628449D02*
X163316439Y-88628449D01*
X160528000Y-85840010D02*
X160528000Y-85084581D01*
X113461684Y-85224001D02*
X114492335Y-85224001D01*
X117036315Y-82680021D02*
X117602000Y-82680021D01*
X114492335Y-85224001D02*
X117036315Y-82680021D01*
X110293685Y-88392000D02*
X113461684Y-85224001D01*
X109728000Y-88392000D02*
X110293685Y-88392000D01*
X167640000Y-88905745D02*
X167640000Y-87687685D01*
X169390021Y-90655766D02*
X167640000Y-88905745D01*
X167640000Y-87687685D02*
X167640000Y-87122000D01*
X169390021Y-103449517D02*
X169390021Y-90655766D01*
X171450000Y-122428000D02*
X173728002Y-120149998D01*
X173728002Y-120149998D02*
X173728001Y-107787497D01*
X173728001Y-107787497D02*
X169390021Y-103449517D01*
X183254000Y-100584000D02*
X182107097Y-101730903D01*
X179070000Y-121608315D02*
X179070000Y-122174000D01*
X182107097Y-117110439D02*
X179070000Y-120147536D01*
X179070000Y-120147536D02*
X179070000Y-121608315D01*
X182107097Y-101730903D02*
X182107097Y-117110439D01*
X184404000Y-100584000D02*
X183254000Y-100584000D01*
X176805959Y-98032010D02*
X176240274Y-98032010D01*
X177564012Y-98032010D02*
X176805959Y-98032010D01*
X179936662Y-100404660D02*
X177564012Y-98032010D01*
X179936662Y-104752662D02*
X179936662Y-100404660D01*
X185253999Y-111593999D02*
X184404000Y-110744000D01*
X185743999Y-112083999D02*
X185253999Y-111593999D01*
X185743999Y-117905224D02*
X185743999Y-112083999D01*
X181059513Y-121344612D02*
X182304612Y-121344612D01*
X179033296Y-123370829D02*
X181059513Y-121344612D01*
X179033296Y-127670829D02*
X179033296Y-123370829D01*
X182304612Y-121344612D02*
X185743999Y-117905224D01*
X188144001Y-116633655D02*
X188144001Y-110167999D01*
X186367999Y-109543999D02*
X185743999Y-108919999D01*
X181573296Y-127670829D02*
X181573296Y-123204360D01*
X187520001Y-109543999D02*
X186367999Y-109543999D01*
X185743999Y-108919999D02*
X185743999Y-107003999D01*
X181573296Y-123204360D02*
X188144001Y-116633655D01*
X185253999Y-106513999D02*
X184404000Y-105664000D01*
X188144001Y-110167999D02*
X187520001Y-109543999D01*
X185743999Y-107003999D02*
X185253999Y-106513999D01*
D29*
X146050000Y-111506000D02*
X146050000Y-109728000D01*
X146050000Y-109728000D02*
X147320000Y-108458000D01*
X157676311Y-98806000D02*
X158241996Y-98806000D01*
X157570234Y-98806000D02*
X157676311Y-98806000D01*
X149098000Y-107278234D02*
X157570234Y-98806000D01*
X149098000Y-107696000D02*
X149098000Y-107278234D01*
D27*
X160978315Y-104648000D02*
X161544000Y-104648000D01*
X151130000Y-108672876D02*
X155154876Y-104648000D01*
X155154876Y-104648000D02*
X160978315Y-104648000D01*
X151130000Y-111506000D02*
X151130000Y-108672876D01*
D26*
X144018004Y-80263996D02*
X144018000Y-80264000D01*
X144018004Y-78232000D02*
X144018004Y-80263996D01*
X112481996Y-80264004D02*
X120084315Y-80264004D01*
X120084315Y-80264004D02*
X120650000Y-80264004D01*
X104862000Y-87884000D02*
X112481996Y-80264004D01*
D28*
X103726999Y-84422999D02*
X104102001Y-84798001D01*
X100195001Y-84422999D02*
X103726999Y-84422999D01*
X104102001Y-84798001D02*
X104902000Y-85598000D01*
X99020000Y-85598000D02*
X100195001Y-84422999D01*
X108369990Y-82130010D02*
X109152695Y-82130010D01*
X104902000Y-85598000D02*
X108369990Y-82130010D01*
D27*
X186944000Y-94234000D02*
X186236880Y-94234000D01*
X179832000Y-88898002D02*
X179832000Y-82066876D01*
X184896881Y-92894001D02*
X183827999Y-92894001D01*
X183827999Y-92894001D02*
X179832000Y-88898002D01*
X179832000Y-82066876D02*
X174499136Y-76734012D01*
X167359988Y-75895112D02*
X167359988Y-75338456D01*
X167359988Y-75338456D02*
X166001510Y-73979978D01*
X174499136Y-76734012D02*
X168198888Y-76734012D01*
X166001510Y-73979978D02*
X161052715Y-73979978D01*
X161052715Y-73979978D02*
X160598703Y-74433990D01*
X168198888Y-76734012D02*
X167359988Y-75895112D01*
X186236880Y-94234000D02*
X184896881Y-92894001D01*
X154940000Y-72898000D02*
X154940000Y-72390000D01*
X156972000Y-74930000D02*
X154940000Y-72898000D01*
X169164004Y-83115685D02*
X169164004Y-82550000D01*
X184404000Y-96774000D02*
X181298311Y-96774000D01*
X181298311Y-96774000D02*
X169164004Y-84639693D01*
X169164004Y-84639693D02*
X169164004Y-83115685D01*
X183554001Y-93384001D02*
X184404000Y-94234000D01*
X176818001Y-79759999D02*
X176818001Y-86648001D01*
X167967113Y-77343991D02*
X174401993Y-77343991D01*
X176818001Y-86648001D02*
X183554001Y-93384001D01*
X174401993Y-77343991D02*
X176818001Y-79759999D01*
X157480000Y-72390000D02*
X157480000Y-73592097D01*
X159071903Y-75184000D02*
X161036000Y-75184000D01*
X157480000Y-73592097D02*
X159071903Y-75184000D01*
D29*
X166884977Y-76091867D02*
X167967113Y-77174003D01*
X161036000Y-75184000D02*
X161765011Y-74454989D01*
X167967113Y-77174003D02*
X167967113Y-77343991D01*
X165804755Y-74454989D02*
X166884977Y-75535211D01*
X161765011Y-74454989D02*
X165804755Y-74454989D01*
X166884977Y-75535211D02*
X166884977Y-76091867D01*
D27*
X185253999Y-92543999D02*
X184404000Y-91694000D01*
X185604001Y-92894001D02*
X185253999Y-92543999D01*
X187833684Y-92894001D02*
X185604001Y-92894001D01*
X190246000Y-90481685D02*
X187833684Y-92894001D01*
X190246000Y-89916000D02*
X190246000Y-90481685D01*
D29*
X164235010Y-68174990D02*
X162560000Y-69850000D01*
X185846973Y-68174990D02*
X164235010Y-68174990D01*
X195834000Y-78162017D02*
X185846973Y-68174990D01*
X185579001Y-90329001D02*
X187508001Y-90329001D01*
X184404000Y-89154000D02*
X185579001Y-90329001D01*
X187508001Y-90329001D02*
X195580000Y-82296000D01*
X195834000Y-82042000D02*
X195834000Y-78162017D01*
X195580000Y-82296000D02*
X195834000Y-82042000D01*
D27*
X175413369Y-76234001D02*
X180332011Y-81152643D01*
X167859999Y-75131345D02*
X167859999Y-75688001D01*
X167859999Y-75688001D02*
X168405999Y-76234001D01*
X180332011Y-82542011D02*
X183554001Y-85764001D01*
X168405999Y-76234001D02*
X175413369Y-76234001D01*
X180332011Y-81152643D02*
X180332011Y-82542011D01*
X165968653Y-73239999D02*
X167859999Y-75131345D01*
X165949999Y-73239999D02*
X165968653Y-73239999D01*
X183554001Y-85764001D02*
X184404000Y-86614000D01*
X165100000Y-72390000D02*
X165949999Y-73239999D01*
X167640000Y-69850000D02*
X168840000Y-68650000D01*
X185650218Y-68650000D02*
X195199620Y-78199402D01*
X187793999Y-88304001D02*
X186944000Y-89154000D01*
X168840000Y-68650000D02*
X185650218Y-68650000D01*
X188861235Y-88304001D02*
X187793999Y-88304001D01*
X195199620Y-78199402D02*
X195199620Y-81965616D01*
X195199620Y-81965616D02*
X188861235Y-88304001D01*
X178144891Y-71112011D02*
X171442011Y-71112011D01*
X186944000Y-86614000D02*
X189736672Y-86614000D01*
X189736672Y-86614000D02*
X194699611Y-81651061D01*
X181954891Y-74922011D02*
X178144891Y-71112011D01*
X171442011Y-71112011D02*
X171029999Y-70699999D01*
X191215111Y-74922011D02*
X181954891Y-74922011D01*
X171029999Y-70699999D02*
X170180000Y-69850000D01*
X194699611Y-78406511D02*
X191215111Y-74922011D01*
X194699611Y-81651061D02*
X194699611Y-78406511D01*
D31*
G36*
X95599983Y-87707561D02*
G01*
X95593000Y-87742665D01*
X95593000Y-88025335D01*
X95648147Y-88302574D01*
X95756320Y-88563727D01*
X95913363Y-88798759D01*
X96113241Y-88998637D01*
X96348273Y-89155680D01*
X96609426Y-89263853D01*
X96886665Y-89319000D01*
X97169335Y-89319000D01*
X97204438Y-89312017D01*
X98215001Y-90322580D01*
X98215001Y-93174516D01*
X98215000Y-93174524D01*
X98215000Y-104021479D01*
X98185241Y-104041363D01*
X97985363Y-104241241D01*
X97828320Y-104476273D01*
X97720147Y-104737426D01*
X97665000Y-105014665D01*
X97665000Y-105297335D01*
X97720147Y-105574574D01*
X97828320Y-105835727D01*
X97985363Y-106070759D01*
X98185241Y-106270637D01*
X98210750Y-106287681D01*
X98227805Y-106460860D01*
X98278412Y-106627683D01*
X98360590Y-106781429D01*
X98443468Y-106882416D01*
X98443471Y-106882419D01*
X98471184Y-106916187D01*
X98504951Y-106943899D01*
X99892100Y-108331049D01*
X99919813Y-108364817D01*
X99953581Y-108392530D01*
X99953583Y-108392532D01*
X99981846Y-108415727D01*
X100054571Y-108475411D01*
X100208317Y-108557589D01*
X100375140Y-108608195D01*
X100505153Y-108621000D01*
X100505163Y-108621000D01*
X100548629Y-108625281D01*
X100592095Y-108621000D01*
X107831479Y-108621000D01*
X107851363Y-108650759D01*
X108051241Y-108850637D01*
X108251869Y-108984692D01*
X108224486Y-108999329D01*
X108152903Y-109243298D01*
X108966000Y-110056395D01*
X109779097Y-109243298D01*
X109707514Y-108999329D01*
X109678659Y-108985676D01*
X109731074Y-108950653D01*
X110113001Y-109332580D01*
X110113001Y-109468176D01*
X109958702Y-109422903D01*
X109145605Y-110236000D01*
X109958702Y-111049097D01*
X110113000Y-111003824D01*
X110113000Y-111294791D01*
X109920594Y-111487198D01*
X109880759Y-111447363D01*
X109742120Y-111354727D01*
X109779097Y-111228702D01*
X108966000Y-110415605D01*
X108152903Y-111228702D01*
X108189880Y-111354727D01*
X108051241Y-111447363D01*
X107851363Y-111647241D01*
X107694320Y-111882273D01*
X107586147Y-112143426D01*
X107531000Y-112420665D01*
X107531000Y-112703335D01*
X107586147Y-112980574D01*
X107694320Y-113241727D01*
X107851363Y-113476759D01*
X108051241Y-113676637D01*
X108253827Y-113812000D01*
X108051241Y-113947363D01*
X107851363Y-114147241D01*
X107694320Y-114382273D01*
X107586147Y-114643426D01*
X107531000Y-114920665D01*
X107531000Y-115203335D01*
X107586147Y-115480574D01*
X107694320Y-115741727D01*
X107851363Y-115976759D01*
X108051241Y-116176637D01*
X108286273Y-116333680D01*
X108547426Y-116441853D01*
X108824665Y-116497000D01*
X109107335Y-116497000D01*
X109384574Y-116441853D01*
X109645727Y-116333680D01*
X109880759Y-116176637D01*
X110080637Y-115976759D01*
X110237680Y-115741727D01*
X110345853Y-115480574D01*
X110393493Y-115241072D01*
X110621000Y-115468579D01*
X110621001Y-116301545D01*
X110588795Y-116349744D01*
X110510774Y-116538102D01*
X110471000Y-116738061D01*
X110471000Y-116941939D01*
X110510774Y-117141898D01*
X110588795Y-117330256D01*
X110702063Y-117499774D01*
X110846226Y-117643937D01*
X111015744Y-117757205D01*
X111204102Y-117835226D01*
X111258494Y-117846045D01*
X111277182Y-117868816D01*
X111411940Y-117979410D01*
X111565686Y-118061588D01*
X111732509Y-118112194D01*
X111862522Y-118124999D01*
X111862532Y-118124999D01*
X111905998Y-118129280D01*
X111949465Y-118124999D01*
X125509421Y-118124999D01*
X128034421Y-120650000D01*
X127674951Y-121009471D01*
X127641184Y-121037183D01*
X127613471Y-121070951D01*
X127613468Y-121070954D01*
X127530590Y-121171941D01*
X127448412Y-121325687D01*
X127401427Y-121480571D01*
X126615000Y-121482762D01*
X126615000Y-121201465D01*
X126619281Y-121157999D01*
X126615000Y-121114533D01*
X126615000Y-121114523D01*
X126602195Y-120984510D01*
X126551589Y-120817687D01*
X126469411Y-120663941D01*
X126358817Y-120529183D01*
X126325044Y-120501466D01*
X125878532Y-120054954D01*
X125850817Y-120021183D01*
X125716059Y-119910589D01*
X125562313Y-119828411D01*
X125395490Y-119777805D01*
X125265477Y-119765000D01*
X125265469Y-119765000D01*
X125222000Y-119760719D01*
X125178531Y-119765000D01*
X124744454Y-119765000D01*
X124696256Y-119732795D01*
X124507898Y-119654774D01*
X124307939Y-119615000D01*
X124104061Y-119615000D01*
X123904102Y-119654774D01*
X123715744Y-119732795D01*
X123669796Y-119763497D01*
X123654531Y-119765000D01*
X123654523Y-119765000D01*
X123524510Y-119777805D01*
X123357687Y-119828411D01*
X123203941Y-119910589D01*
X123069183Y-120021183D01*
X123041468Y-120054954D01*
X122558248Y-120538174D01*
X122524480Y-120565887D01*
X122496767Y-120599655D01*
X122496764Y-120599658D01*
X122413886Y-120700645D01*
X122331708Y-120854391D01*
X122281101Y-121021214D01*
X122264015Y-121194704D01*
X122268297Y-121238183D01*
X122268297Y-121494870D01*
X119258329Y-121503254D01*
X119230710Y-121412207D01*
X119169425Y-121297550D01*
X119086948Y-121197052D01*
X118986450Y-121114575D01*
X118871793Y-121053290D01*
X118747383Y-121015550D01*
X118650419Y-121006000D01*
X118618000Y-121002807D01*
X118585581Y-121006000D01*
X106832000Y-121006000D01*
X106832000Y-110776418D01*
X106835193Y-110744000D01*
X106822450Y-110614617D01*
X106784710Y-110490207D01*
X106723425Y-110375550D01*
X106666767Y-110306512D01*
X107525783Y-110306512D01*
X107567213Y-110586130D01*
X107662397Y-110852292D01*
X107729329Y-110977514D01*
X107973298Y-111049097D01*
X108786395Y-110236000D01*
X107973298Y-109422903D01*
X107729329Y-109494486D01*
X107608429Y-109749996D01*
X107539700Y-110024184D01*
X107525783Y-110306512D01*
X106666767Y-110306512D01*
X106640948Y-110275052D01*
X106540450Y-110192575D01*
X106425793Y-110131290D01*
X106301383Y-110093550D01*
X106204419Y-110084000D01*
X106172000Y-110080807D01*
X106139581Y-110084000D01*
X95402000Y-110084000D01*
X95402000Y-87509578D01*
X95599983Y-87707561D01*
G37*
X95599983Y-87707561D02*
X95593000Y-87742665D01*
X95593000Y-88025335D01*
X95648147Y-88302574D01*
X95756320Y-88563727D01*
X95913363Y-88798759D01*
X96113241Y-88998637D01*
X96348273Y-89155680D01*
X96609426Y-89263853D01*
X96886665Y-89319000D01*
X97169335Y-89319000D01*
X97204438Y-89312017D01*
X98215001Y-90322580D01*
X98215001Y-93174516D01*
X98215000Y-93174524D01*
X98215000Y-104021479D01*
X98185241Y-104041363D01*
X97985363Y-104241241D01*
X97828320Y-104476273D01*
X97720147Y-104737426D01*
X97665000Y-105014665D01*
X97665000Y-105297335D01*
X97720147Y-105574574D01*
X97828320Y-105835727D01*
X97985363Y-106070759D01*
X98185241Y-106270637D01*
X98210750Y-106287681D01*
X98227805Y-106460860D01*
X98278412Y-106627683D01*
X98360590Y-106781429D01*
X98443468Y-106882416D01*
X98443471Y-106882419D01*
X98471184Y-106916187D01*
X98504951Y-106943899D01*
X99892100Y-108331049D01*
X99919813Y-108364817D01*
X99953581Y-108392530D01*
X99953583Y-108392532D01*
X99981846Y-108415727D01*
X100054571Y-108475411D01*
X100208317Y-108557589D01*
X100375140Y-108608195D01*
X100505153Y-108621000D01*
X100505163Y-108621000D01*
X100548629Y-108625281D01*
X100592095Y-108621000D01*
X107831479Y-108621000D01*
X107851363Y-108650759D01*
X108051241Y-108850637D01*
X108251869Y-108984692D01*
X108224486Y-108999329D01*
X108152903Y-109243298D01*
X108966000Y-110056395D01*
X109779097Y-109243298D01*
X109707514Y-108999329D01*
X109678659Y-108985676D01*
X109731074Y-108950653D01*
X110113001Y-109332580D01*
X110113001Y-109468176D01*
X109958702Y-109422903D01*
X109145605Y-110236000D01*
X109958702Y-111049097D01*
X110113000Y-111003824D01*
X110113000Y-111294791D01*
X109920594Y-111487198D01*
X109880759Y-111447363D01*
X109742120Y-111354727D01*
X109779097Y-111228702D01*
X108966000Y-110415605D01*
X108152903Y-111228702D01*
X108189880Y-111354727D01*
X108051241Y-111447363D01*
X107851363Y-111647241D01*
X107694320Y-111882273D01*
X107586147Y-112143426D01*
X107531000Y-112420665D01*
X107531000Y-112703335D01*
X107586147Y-112980574D01*
X107694320Y-113241727D01*
X107851363Y-113476759D01*
X108051241Y-113676637D01*
X108253827Y-113812000D01*
X108051241Y-113947363D01*
X107851363Y-114147241D01*
X107694320Y-114382273D01*
X107586147Y-114643426D01*
X107531000Y-114920665D01*
X107531000Y-115203335D01*
X107586147Y-115480574D01*
X107694320Y-115741727D01*
X107851363Y-115976759D01*
X108051241Y-116176637D01*
X108286273Y-116333680D01*
X108547426Y-116441853D01*
X108824665Y-116497000D01*
X109107335Y-116497000D01*
X109384574Y-116441853D01*
X109645727Y-116333680D01*
X109880759Y-116176637D01*
X110080637Y-115976759D01*
X110237680Y-115741727D01*
X110345853Y-115480574D01*
X110393493Y-115241072D01*
X110621000Y-115468579D01*
X110621001Y-116301545D01*
X110588795Y-116349744D01*
X110510774Y-116538102D01*
X110471000Y-116738061D01*
X110471000Y-116941939D01*
X110510774Y-117141898D01*
X110588795Y-117330256D01*
X110702063Y-117499774D01*
X110846226Y-117643937D01*
X111015744Y-117757205D01*
X111204102Y-117835226D01*
X111258494Y-117846045D01*
X111277182Y-117868816D01*
X111411940Y-117979410D01*
X111565686Y-118061588D01*
X111732509Y-118112194D01*
X111862522Y-118124999D01*
X111862532Y-118124999D01*
X111905998Y-118129280D01*
X111949465Y-118124999D01*
X125509421Y-118124999D01*
X128034421Y-120650000D01*
X127674951Y-121009471D01*
X127641184Y-121037183D01*
X127613471Y-121070951D01*
X127613468Y-121070954D01*
X127530590Y-121171941D01*
X127448412Y-121325687D01*
X127401427Y-121480571D01*
X126615000Y-121482762D01*
X126615000Y-121201465D01*
X126619281Y-121157999D01*
X126615000Y-121114533D01*
X126615000Y-121114523D01*
X126602195Y-120984510D01*
X126551589Y-120817687D01*
X126469411Y-120663941D01*
X126358817Y-120529183D01*
X126325044Y-120501466D01*
X125878532Y-120054954D01*
X125850817Y-120021183D01*
X125716059Y-119910589D01*
X125562313Y-119828411D01*
X125395490Y-119777805D01*
X125265477Y-119765000D01*
X125265469Y-119765000D01*
X125222000Y-119760719D01*
X125178531Y-119765000D01*
X124744454Y-119765000D01*
X124696256Y-119732795D01*
X124507898Y-119654774D01*
X124307939Y-119615000D01*
X124104061Y-119615000D01*
X123904102Y-119654774D01*
X123715744Y-119732795D01*
X123669796Y-119763497D01*
X123654531Y-119765000D01*
X123654523Y-119765000D01*
X123524510Y-119777805D01*
X123357687Y-119828411D01*
X123203941Y-119910589D01*
X123069183Y-120021183D01*
X123041468Y-120054954D01*
X122558248Y-120538174D01*
X122524480Y-120565887D01*
X122496767Y-120599655D01*
X122496764Y-120599658D01*
X122413886Y-120700645D01*
X122331708Y-120854391D01*
X122281101Y-121021214D01*
X122264015Y-121194704D01*
X122268297Y-121238183D01*
X122268297Y-121494870D01*
X119258329Y-121503254D01*
X119230710Y-121412207D01*
X119169425Y-121297550D01*
X119086948Y-121197052D01*
X118986450Y-121114575D01*
X118871793Y-121053290D01*
X118747383Y-121015550D01*
X118650419Y-121006000D01*
X118618000Y-121002807D01*
X118585581Y-121006000D01*
X106832000Y-121006000D01*
X106832000Y-110776418D01*
X106835193Y-110744000D01*
X106822450Y-110614617D01*
X106784710Y-110490207D01*
X106723425Y-110375550D01*
X106666767Y-110306512D01*
X107525783Y-110306512D01*
X107567213Y-110586130D01*
X107662397Y-110852292D01*
X107729329Y-110977514D01*
X107973298Y-111049097D01*
X108786395Y-110236000D01*
X107973298Y-109422903D01*
X107729329Y-109494486D01*
X107608429Y-109749996D01*
X107539700Y-110024184D01*
X107525783Y-110306512D01*
X106666767Y-110306512D01*
X106640948Y-110275052D01*
X106540450Y-110192575D01*
X106425793Y-110131290D01*
X106301383Y-110093550D01*
X106204419Y-110084000D01*
X106172000Y-110080807D01*
X106139581Y-110084000D01*
X95402000Y-110084000D01*
X95402000Y-87509578D01*
X95599983Y-87707561D01*
G36*
X107889748Y-92655858D02*
G01*
X107875605Y-92670000D01*
X107889748Y-92684143D01*
X107710143Y-92863748D01*
X107696000Y-92849605D01*
X106882903Y-93662702D01*
X106954486Y-93906671D01*
X107209996Y-94027571D01*
X107484184Y-94096300D01*
X107766512Y-94110217D01*
X108046130Y-94068787D01*
X108061001Y-94063469D01*
X108061002Y-101187438D01*
X108057204Y-101226001D01*
X108072360Y-101379887D01*
X108117247Y-101527860D01*
X108143522Y-101577017D01*
X108190140Y-101664234D01*
X108226298Y-101708292D01*
X108263656Y-101753813D01*
X108263660Y-101753817D01*
X108288238Y-101783765D01*
X108318186Y-101808343D01*
X112701649Y-106191806D01*
X112726232Y-106221760D01*
X112845763Y-106319858D01*
X112982136Y-106392750D01*
X113130109Y-106437638D01*
X113205022Y-106445016D01*
X113245435Y-106448996D01*
X113245440Y-106448996D01*
X113283996Y-106452793D01*
X113322552Y-106448996D01*
X122003289Y-106448996D01*
X122022226Y-106467933D01*
X122191744Y-106581201D01*
X122380102Y-106659222D01*
X122580061Y-106698996D01*
X122783939Y-106698996D01*
X122983898Y-106659222D01*
X123172256Y-106581201D01*
X123341774Y-106467933D01*
X123485937Y-106323770D01*
X123529868Y-106258022D01*
X126977000Y-109705154D01*
X126977001Y-110959438D01*
X126973203Y-110998000D01*
X126988359Y-111151886D01*
X127033246Y-111299859D01*
X127063634Y-111356710D01*
X127106139Y-111436233D01*
X127146690Y-111485644D01*
X127179655Y-111525812D01*
X127179659Y-111525816D01*
X127204237Y-111555764D01*
X127234185Y-111580342D01*
X127941655Y-112287812D01*
X127966238Y-112317766D01*
X128085769Y-112415864D01*
X128212782Y-112483753D01*
X128222142Y-112488756D01*
X128329658Y-112521371D01*
X128372226Y-112563939D01*
X128541744Y-112677207D01*
X128730102Y-112755228D01*
X128930061Y-112795002D01*
X129133939Y-112795002D01*
X129219963Y-112777891D01*
X129219963Y-119332384D01*
X126532531Y-116644953D01*
X126504816Y-116611182D01*
X126370058Y-116500588D01*
X126216312Y-116418410D01*
X126049489Y-116367804D01*
X125919476Y-116354999D01*
X125919468Y-116354999D01*
X125875999Y-116350718D01*
X125832530Y-116354999D01*
X112425382Y-116354999D01*
X112423205Y-116349744D01*
X112391000Y-116301546D01*
X112391000Y-115145465D01*
X112395281Y-115101999D01*
X112391000Y-115058533D01*
X112391000Y-115058523D01*
X112378195Y-114928510D01*
X112327589Y-114761687D01*
X112245411Y-114607941D01*
X112211810Y-114566998D01*
X112162532Y-114506953D01*
X112162530Y-114506951D01*
X112134817Y-114473183D01*
X112101050Y-114445471D01*
X110783263Y-113127685D01*
X111593050Y-112317899D01*
X111626817Y-112290187D01*
X111659587Y-112250258D01*
X111731582Y-112162532D01*
X111737411Y-112155429D01*
X111819589Y-112001683D01*
X111870195Y-111834860D01*
X111883000Y-111704847D01*
X111883000Y-111704837D01*
X111887281Y-111661371D01*
X111883000Y-111617905D01*
X111883000Y-110245406D01*
X119830716Y-110245406D01*
X119830716Y-110861372D01*
X119950885Y-111465501D01*
X120186605Y-112034579D01*
X120528817Y-112546735D01*
X120964370Y-112982288D01*
X121476526Y-113324500D01*
X122045604Y-113560220D01*
X122649733Y-113680389D01*
X123265699Y-113680389D01*
X123869828Y-113560220D01*
X124438906Y-113324500D01*
X124951062Y-112982288D01*
X125386615Y-112546735D01*
X125728827Y-112034579D01*
X125964547Y-111465501D01*
X126084716Y-110861372D01*
X126084716Y-110245406D01*
X125964547Y-109641277D01*
X125728827Y-109072199D01*
X125386615Y-108560043D01*
X124951062Y-108124490D01*
X124438906Y-107782278D01*
X123869828Y-107546558D01*
X123265699Y-107426389D01*
X122649733Y-107426389D01*
X122045604Y-107546558D01*
X121476526Y-107782278D01*
X120964370Y-108124490D01*
X120528817Y-108560043D01*
X120186605Y-109072199D01*
X119950885Y-109641277D01*
X119830716Y-110245406D01*
X111883000Y-110245406D01*
X111883000Y-109009469D01*
X111887281Y-108966000D01*
X111883000Y-108922531D01*
X111883000Y-108922523D01*
X111870195Y-108792510D01*
X111857869Y-108751876D01*
X111819589Y-108625686D01*
X111737411Y-108471941D01*
X111654532Y-108370953D01*
X111654530Y-108370951D01*
X111626817Y-108337183D01*
X111593049Y-108309470D01*
X110424534Y-107140956D01*
X110396817Y-107107183D01*
X110262059Y-106996589D01*
X110162101Y-106943161D01*
X110080637Y-106821241D01*
X109880759Y-106621363D01*
X109645727Y-106464320D01*
X109384574Y-106356147D01*
X109107335Y-106301000D01*
X108824665Y-106301000D01*
X108547426Y-106356147D01*
X108286273Y-106464320D01*
X108051241Y-106621363D01*
X107851363Y-106821241D01*
X107831479Y-106851000D01*
X100915209Y-106851000D01*
X100633176Y-106568968D01*
X100675518Y-106581812D01*
X100800000Y-106594072D01*
X101314250Y-106591000D01*
X101473000Y-106432250D01*
X101473000Y-105283000D01*
X101727000Y-105283000D01*
X101727000Y-106432250D01*
X101885750Y-106591000D01*
X102400000Y-106594072D01*
X102524482Y-106581812D01*
X102644180Y-106545502D01*
X102754494Y-106486537D01*
X102851185Y-106407185D01*
X102930537Y-106310494D01*
X102989502Y-106200180D01*
X103025812Y-106080482D01*
X103038072Y-105956000D01*
X103035000Y-105441750D01*
X102876250Y-105283000D01*
X101727000Y-105283000D01*
X101473000Y-105283000D01*
X101453000Y-105283000D01*
X101453000Y-105029000D01*
X101473000Y-105029000D01*
X101473000Y-103879750D01*
X101727000Y-103879750D01*
X101727000Y-105029000D01*
X102876250Y-105029000D01*
X103035000Y-104870250D01*
X103038072Y-104356000D01*
X103025812Y-104231518D01*
X102989502Y-104111820D01*
X102930537Y-104001506D01*
X102851185Y-103904815D01*
X102754494Y-103825463D01*
X102644180Y-103766498D01*
X102524482Y-103730188D01*
X102400000Y-103717928D01*
X101885750Y-103721000D01*
X101727000Y-103879750D01*
X101473000Y-103879750D01*
X101314250Y-103721000D01*
X100800000Y-103717928D01*
X100784999Y-103719405D01*
X100784999Y-98332579D01*
X106271434Y-92846145D01*
X106297213Y-93020130D01*
X106392397Y-93286292D01*
X106459329Y-93411514D01*
X106703298Y-93483097D01*
X107516395Y-92670000D01*
X107502253Y-92655858D01*
X107681858Y-92476253D01*
X107696000Y-92490395D01*
X107710143Y-92476253D01*
X107889748Y-92655858D01*
G37*
X107889748Y-92655858D02*
X107875605Y-92670000D01*
X107889748Y-92684143D01*
X107710143Y-92863748D01*
X107696000Y-92849605D01*
X106882903Y-93662702D01*
X106954486Y-93906671D01*
X107209996Y-94027571D01*
X107484184Y-94096300D01*
X107766512Y-94110217D01*
X108046130Y-94068787D01*
X108061001Y-94063469D01*
X108061002Y-101187438D01*
X108057204Y-101226001D01*
X108072360Y-101379887D01*
X108117247Y-101527860D01*
X108143522Y-101577017D01*
X108190140Y-101664234D01*
X108226298Y-101708292D01*
X108263656Y-101753813D01*
X108263660Y-101753817D01*
X108288238Y-101783765D01*
X108318186Y-101808343D01*
X112701649Y-106191806D01*
X112726232Y-106221760D01*
X112845763Y-106319858D01*
X112982136Y-106392750D01*
X113130109Y-106437638D01*
X113205022Y-106445016D01*
X113245435Y-106448996D01*
X113245440Y-106448996D01*
X113283996Y-106452793D01*
X113322552Y-106448996D01*
X122003289Y-106448996D01*
X122022226Y-106467933D01*
X122191744Y-106581201D01*
X122380102Y-106659222D01*
X122580061Y-106698996D01*
X122783939Y-106698996D01*
X122983898Y-106659222D01*
X123172256Y-106581201D01*
X123341774Y-106467933D01*
X123485937Y-106323770D01*
X123529868Y-106258022D01*
X126977000Y-109705154D01*
X126977001Y-110959438D01*
X126973203Y-110998000D01*
X126988359Y-111151886D01*
X127033246Y-111299859D01*
X127063634Y-111356710D01*
X127106139Y-111436233D01*
X127146690Y-111485644D01*
X127179655Y-111525812D01*
X127179659Y-111525816D01*
X127204237Y-111555764D01*
X127234185Y-111580342D01*
X127941655Y-112287812D01*
X127966238Y-112317766D01*
X128085769Y-112415864D01*
X128212782Y-112483753D01*
X128222142Y-112488756D01*
X128329658Y-112521371D01*
X128372226Y-112563939D01*
X128541744Y-112677207D01*
X128730102Y-112755228D01*
X128930061Y-112795002D01*
X129133939Y-112795002D01*
X129219963Y-112777891D01*
X129219963Y-119332384D01*
X126532531Y-116644953D01*
X126504816Y-116611182D01*
X126370058Y-116500588D01*
X126216312Y-116418410D01*
X126049489Y-116367804D01*
X125919476Y-116354999D01*
X125919468Y-116354999D01*
X125875999Y-116350718D01*
X125832530Y-116354999D01*
X112425382Y-116354999D01*
X112423205Y-116349744D01*
X112391000Y-116301546D01*
X112391000Y-115145465D01*
X112395281Y-115101999D01*
X112391000Y-115058533D01*
X112391000Y-115058523D01*
X112378195Y-114928510D01*
X112327589Y-114761687D01*
X112245411Y-114607941D01*
X112211810Y-114566998D01*
X112162532Y-114506953D01*
X112162530Y-114506951D01*
X112134817Y-114473183D01*
X112101050Y-114445471D01*
X110783263Y-113127685D01*
X111593050Y-112317899D01*
X111626817Y-112290187D01*
X111659587Y-112250258D01*
X111731582Y-112162532D01*
X111737411Y-112155429D01*
X111819589Y-112001683D01*
X111870195Y-111834860D01*
X111883000Y-111704847D01*
X111883000Y-111704837D01*
X111887281Y-111661371D01*
X111883000Y-111617905D01*
X111883000Y-110245406D01*
X119830716Y-110245406D01*
X119830716Y-110861372D01*
X119950885Y-111465501D01*
X120186605Y-112034579D01*
X120528817Y-112546735D01*
X120964370Y-112982288D01*
X121476526Y-113324500D01*
X122045604Y-113560220D01*
X122649733Y-113680389D01*
X123265699Y-113680389D01*
X123869828Y-113560220D01*
X124438906Y-113324500D01*
X124951062Y-112982288D01*
X125386615Y-112546735D01*
X125728827Y-112034579D01*
X125964547Y-111465501D01*
X126084716Y-110861372D01*
X126084716Y-110245406D01*
X125964547Y-109641277D01*
X125728827Y-109072199D01*
X125386615Y-108560043D01*
X124951062Y-108124490D01*
X124438906Y-107782278D01*
X123869828Y-107546558D01*
X123265699Y-107426389D01*
X122649733Y-107426389D01*
X122045604Y-107546558D01*
X121476526Y-107782278D01*
X120964370Y-108124490D01*
X120528817Y-108560043D01*
X120186605Y-109072199D01*
X119950885Y-109641277D01*
X119830716Y-110245406D01*
X111883000Y-110245406D01*
X111883000Y-109009469D01*
X111887281Y-108966000D01*
X111883000Y-108922531D01*
X111883000Y-108922523D01*
X111870195Y-108792510D01*
X111857869Y-108751876D01*
X111819589Y-108625686D01*
X111737411Y-108471941D01*
X111654532Y-108370953D01*
X111654530Y-108370951D01*
X111626817Y-108337183D01*
X111593049Y-108309470D01*
X110424534Y-107140956D01*
X110396817Y-107107183D01*
X110262059Y-106996589D01*
X110162101Y-106943161D01*
X110080637Y-106821241D01*
X109880759Y-106621363D01*
X109645727Y-106464320D01*
X109384574Y-106356147D01*
X109107335Y-106301000D01*
X108824665Y-106301000D01*
X108547426Y-106356147D01*
X108286273Y-106464320D01*
X108051241Y-106621363D01*
X107851363Y-106821241D01*
X107831479Y-106851000D01*
X100915209Y-106851000D01*
X100633176Y-106568968D01*
X100675518Y-106581812D01*
X100800000Y-106594072D01*
X101314250Y-106591000D01*
X101473000Y-106432250D01*
X101473000Y-105283000D01*
X101727000Y-105283000D01*
X101727000Y-106432250D01*
X101885750Y-106591000D01*
X102400000Y-106594072D01*
X102524482Y-106581812D01*
X102644180Y-106545502D01*
X102754494Y-106486537D01*
X102851185Y-106407185D01*
X102930537Y-106310494D01*
X102989502Y-106200180D01*
X103025812Y-106080482D01*
X103038072Y-105956000D01*
X103035000Y-105441750D01*
X102876250Y-105283000D01*
X101727000Y-105283000D01*
X101473000Y-105283000D01*
X101453000Y-105283000D01*
X101453000Y-105029000D01*
X101473000Y-105029000D01*
X101473000Y-103879750D01*
X101727000Y-103879750D01*
X101727000Y-105029000D01*
X102876250Y-105029000D01*
X103035000Y-104870250D01*
X103038072Y-104356000D01*
X103025812Y-104231518D01*
X102989502Y-104111820D01*
X102930537Y-104001506D01*
X102851185Y-103904815D01*
X102754494Y-103825463D01*
X102644180Y-103766498D01*
X102524482Y-103730188D01*
X102400000Y-103717928D01*
X101885750Y-103721000D01*
X101727000Y-103879750D01*
X101473000Y-103879750D01*
X101314250Y-103721000D01*
X100800000Y-103717928D01*
X100784999Y-103719405D01*
X100784999Y-98332579D01*
X106271434Y-92846145D01*
X106297213Y-93020130D01*
X106392397Y-93286292D01*
X106459329Y-93411514D01*
X106703298Y-93483097D01*
X107516395Y-92670000D01*
X107502253Y-92655858D01*
X107681858Y-92476253D01*
X107696000Y-92490395D01*
X107710143Y-92476253D01*
X107889748Y-92655858D01*
G36*
X111541001Y-93030982D02*
G01*
X111536961Y-93072001D01*
X111541001Y-93113019D01*
X111553083Y-93235689D01*
X111600829Y-93393087D01*
X111678365Y-93538146D01*
X111751641Y-93627433D01*
X111780774Y-93773898D01*
X111858795Y-93962256D01*
X111972063Y-94131774D01*
X112116226Y-94275937D01*
X112285744Y-94389205D01*
X112474102Y-94467226D01*
X112674061Y-94507000D01*
X112877939Y-94507000D01*
X112907001Y-94501219D01*
X112907000Y-95727545D01*
X112874795Y-95775744D01*
X112796774Y-95964102D01*
X112757000Y-96164061D01*
X112757000Y-96367939D01*
X112796774Y-96567898D01*
X112874795Y-96756256D01*
X112988063Y-96925774D01*
X113132226Y-97069937D01*
X113301744Y-97183205D01*
X113490102Y-97261226D01*
X113690061Y-97301000D01*
X113893939Y-97301000D01*
X114093898Y-97261226D01*
X114282256Y-97183205D01*
X114330454Y-97151000D01*
X117718389Y-97151000D01*
X117761858Y-97155281D01*
X117805327Y-97151000D01*
X117805335Y-97151000D01*
X117935348Y-97138195D01*
X118102171Y-97087589D01*
X118255917Y-97005411D01*
X118338164Y-96937912D01*
X118399213Y-96925769D01*
X118587571Y-96847748D01*
X118757089Y-96734480D01*
X118804429Y-96687140D01*
X120689099Y-98571810D01*
X120713682Y-98601764D01*
X120833213Y-98699862D01*
X120947154Y-98760764D01*
X120969586Y-98772754D01*
X121117559Y-98817642D01*
X121192472Y-98825020D01*
X121232885Y-98829000D01*
X121232890Y-98829000D01*
X121271446Y-98832797D01*
X121310002Y-98829000D01*
X122511289Y-98829000D01*
X122530226Y-98847937D01*
X122699744Y-98961205D01*
X122888102Y-99039226D01*
X123088061Y-99079000D01*
X123291939Y-99079000D01*
X123491898Y-99039226D01*
X123680256Y-98961205D01*
X123849774Y-98847937D01*
X123993937Y-98703774D01*
X124107205Y-98534256D01*
X124185226Y-98345898D01*
X124225000Y-98145939D01*
X124225000Y-97942061D01*
X124185226Y-97742102D01*
X124107205Y-97553744D01*
X123993937Y-97384226D01*
X123849774Y-97240063D01*
X123680256Y-97126795D01*
X123620474Y-97102032D01*
X125835846Y-97102033D01*
X125874399Y-97105830D01*
X125912952Y-97102033D01*
X125912959Y-97102033D01*
X126028285Y-97090674D01*
X126176258Y-97045787D01*
X126312631Y-96972895D01*
X126400266Y-96900974D01*
X126402211Y-96899378D01*
X126402214Y-96899375D01*
X126432162Y-96874797D01*
X126456740Y-96844849D01*
X127469557Y-95832032D01*
X131935175Y-95832032D01*
X131933414Y-95836283D01*
X131876800Y-96120902D01*
X131876800Y-96411098D01*
X131889496Y-96474925D01*
X129509918Y-98854504D01*
X129476145Y-98882221D01*
X129365551Y-99016980D01*
X129283373Y-99170726D01*
X129258191Y-99253738D01*
X129239000Y-99317003D01*
X129232767Y-99337549D01*
X129219962Y-99467562D01*
X129219962Y-99467569D01*
X129215681Y-99511038D01*
X129219962Y-99554507D01*
X129219962Y-107694110D01*
X129133943Y-107677000D01*
X129107161Y-107677000D01*
X124987330Y-103557169D01*
X124962747Y-103527215D01*
X124951297Y-103517818D01*
X124889415Y-103425205D01*
X124745252Y-103281042D01*
X124575734Y-103167774D01*
X124387376Y-103089753D01*
X124187417Y-103049979D01*
X123983539Y-103049979D01*
X123783580Y-103089753D01*
X123595222Y-103167774D01*
X123425704Y-103281042D01*
X123281541Y-103425205D01*
X123168273Y-103594723D01*
X123090252Y-103783081D01*
X123072134Y-103874169D01*
X123042002Y-103871201D01*
X123003449Y-103874998D01*
X113875156Y-103874998D01*
X112084860Y-102084702D01*
X116574903Y-102084702D01*
X116646486Y-102328671D01*
X116901996Y-102449571D01*
X117176184Y-102518300D01*
X117458512Y-102532217D01*
X117738130Y-102490787D01*
X118004292Y-102395603D01*
X118129514Y-102328671D01*
X118201097Y-102084702D01*
X117388000Y-101271605D01*
X116574903Y-102084702D01*
X112084860Y-102084702D01*
X111162670Y-101162512D01*
X115947783Y-101162512D01*
X115989213Y-101442130D01*
X116084397Y-101708292D01*
X116151329Y-101833514D01*
X116395298Y-101905097D01*
X117208395Y-101092000D01*
X117567605Y-101092000D01*
X118380702Y-101905097D01*
X118624671Y-101833514D01*
X118638324Y-101804659D01*
X118773363Y-102006759D01*
X118973241Y-102206637D01*
X119208273Y-102363680D01*
X119469426Y-102471853D01*
X119746665Y-102527000D01*
X120029335Y-102527000D01*
X120306574Y-102471853D01*
X120567727Y-102363680D01*
X120802759Y-102206637D01*
X121002637Y-102006759D01*
X121159680Y-101771727D01*
X121267853Y-101510574D01*
X121323000Y-101233335D01*
X121323000Y-100950665D01*
X121267853Y-100673426D01*
X121159680Y-100412273D01*
X121002637Y-100177241D01*
X120802759Y-99977363D01*
X120567727Y-99820320D01*
X120306574Y-99712147D01*
X120029335Y-99657000D01*
X119746665Y-99657000D01*
X119469426Y-99712147D01*
X119208273Y-99820320D01*
X118973241Y-99977363D01*
X118773363Y-100177241D01*
X118639308Y-100377869D01*
X118624671Y-100350486D01*
X118380702Y-100278903D01*
X117567605Y-101092000D01*
X117208395Y-101092000D01*
X116395298Y-100278903D01*
X116151329Y-100350486D01*
X116030429Y-100605996D01*
X115961700Y-100880184D01*
X115947783Y-101162512D01*
X111162670Y-101162512D01*
X110131029Y-100130872D01*
X110131029Y-100099298D01*
X116574903Y-100099298D01*
X117388000Y-100912395D01*
X118201097Y-100099298D01*
X118129514Y-99855329D01*
X117874004Y-99734429D01*
X117599816Y-99665700D01*
X117317488Y-99651783D01*
X117037870Y-99693213D01*
X116771708Y-99788397D01*
X116646486Y-99855329D01*
X116574903Y-100099298D01*
X110131029Y-100099298D01*
X110131029Y-91429667D01*
X110197978Y-91429667D01*
X110397937Y-91389893D01*
X110586295Y-91311872D01*
X110755813Y-91198604D01*
X110899976Y-91054441D01*
X111013244Y-90884923D01*
X111091265Y-90696565D01*
X111131039Y-90496606D01*
X111131039Y-90458320D01*
X111151900Y-90432901D01*
X111224792Y-90296528D01*
X111269679Y-90148555D01*
X111281038Y-90033229D01*
X111281038Y-90033222D01*
X111284835Y-89994669D01*
X111281038Y-89956116D01*
X111281038Y-89600967D01*
X111541002Y-89341003D01*
X111541001Y-93030982D01*
G37*
X111541001Y-93030982D02*
X111536961Y-93072001D01*
X111541001Y-93113019D01*
X111553083Y-93235689D01*
X111600829Y-93393087D01*
X111678365Y-93538146D01*
X111751641Y-93627433D01*
X111780774Y-93773898D01*
X111858795Y-93962256D01*
X111972063Y-94131774D01*
X112116226Y-94275937D01*
X112285744Y-94389205D01*
X112474102Y-94467226D01*
X112674061Y-94507000D01*
X112877939Y-94507000D01*
X112907001Y-94501219D01*
X112907000Y-95727545D01*
X112874795Y-95775744D01*
X112796774Y-95964102D01*
X112757000Y-96164061D01*
X112757000Y-96367939D01*
X112796774Y-96567898D01*
X112874795Y-96756256D01*
X112988063Y-96925774D01*
X113132226Y-97069937D01*
X113301744Y-97183205D01*
X113490102Y-97261226D01*
X113690061Y-97301000D01*
X113893939Y-97301000D01*
X114093898Y-97261226D01*
X114282256Y-97183205D01*
X114330454Y-97151000D01*
X117718389Y-97151000D01*
X117761858Y-97155281D01*
X117805327Y-97151000D01*
X117805335Y-97151000D01*
X117935348Y-97138195D01*
X118102171Y-97087589D01*
X118255917Y-97005411D01*
X118338164Y-96937912D01*
X118399213Y-96925769D01*
X118587571Y-96847748D01*
X118757089Y-96734480D01*
X118804429Y-96687140D01*
X120689099Y-98571810D01*
X120713682Y-98601764D01*
X120833213Y-98699862D01*
X120947154Y-98760764D01*
X120969586Y-98772754D01*
X121117559Y-98817642D01*
X121192472Y-98825020D01*
X121232885Y-98829000D01*
X121232890Y-98829000D01*
X121271446Y-98832797D01*
X121310002Y-98829000D01*
X122511289Y-98829000D01*
X122530226Y-98847937D01*
X122699744Y-98961205D01*
X122888102Y-99039226D01*
X123088061Y-99079000D01*
X123291939Y-99079000D01*
X123491898Y-99039226D01*
X123680256Y-98961205D01*
X123849774Y-98847937D01*
X123993937Y-98703774D01*
X124107205Y-98534256D01*
X124185226Y-98345898D01*
X124225000Y-98145939D01*
X124225000Y-97942061D01*
X124185226Y-97742102D01*
X124107205Y-97553744D01*
X123993937Y-97384226D01*
X123849774Y-97240063D01*
X123680256Y-97126795D01*
X123620474Y-97102032D01*
X125835846Y-97102033D01*
X125874399Y-97105830D01*
X125912952Y-97102033D01*
X125912959Y-97102033D01*
X126028285Y-97090674D01*
X126176258Y-97045787D01*
X126312631Y-96972895D01*
X126400266Y-96900974D01*
X126402211Y-96899378D01*
X126402214Y-96899375D01*
X126432162Y-96874797D01*
X126456740Y-96844849D01*
X127469557Y-95832032D01*
X131935175Y-95832032D01*
X131933414Y-95836283D01*
X131876800Y-96120902D01*
X131876800Y-96411098D01*
X131889496Y-96474925D01*
X129509918Y-98854504D01*
X129476145Y-98882221D01*
X129365551Y-99016980D01*
X129283373Y-99170726D01*
X129258191Y-99253738D01*
X129239000Y-99317003D01*
X129232767Y-99337549D01*
X129219962Y-99467562D01*
X129219962Y-99467569D01*
X129215681Y-99511038D01*
X129219962Y-99554507D01*
X129219962Y-107694110D01*
X129133943Y-107677000D01*
X129107161Y-107677000D01*
X124987330Y-103557169D01*
X124962747Y-103527215D01*
X124951297Y-103517818D01*
X124889415Y-103425205D01*
X124745252Y-103281042D01*
X124575734Y-103167774D01*
X124387376Y-103089753D01*
X124187417Y-103049979D01*
X123983539Y-103049979D01*
X123783580Y-103089753D01*
X123595222Y-103167774D01*
X123425704Y-103281042D01*
X123281541Y-103425205D01*
X123168273Y-103594723D01*
X123090252Y-103783081D01*
X123072134Y-103874169D01*
X123042002Y-103871201D01*
X123003449Y-103874998D01*
X113875156Y-103874998D01*
X112084860Y-102084702D01*
X116574903Y-102084702D01*
X116646486Y-102328671D01*
X116901996Y-102449571D01*
X117176184Y-102518300D01*
X117458512Y-102532217D01*
X117738130Y-102490787D01*
X118004292Y-102395603D01*
X118129514Y-102328671D01*
X118201097Y-102084702D01*
X117388000Y-101271605D01*
X116574903Y-102084702D01*
X112084860Y-102084702D01*
X111162670Y-101162512D01*
X115947783Y-101162512D01*
X115989213Y-101442130D01*
X116084397Y-101708292D01*
X116151329Y-101833514D01*
X116395298Y-101905097D01*
X117208395Y-101092000D01*
X117567605Y-101092000D01*
X118380702Y-101905097D01*
X118624671Y-101833514D01*
X118638324Y-101804659D01*
X118773363Y-102006759D01*
X118973241Y-102206637D01*
X119208273Y-102363680D01*
X119469426Y-102471853D01*
X119746665Y-102527000D01*
X120029335Y-102527000D01*
X120306574Y-102471853D01*
X120567727Y-102363680D01*
X120802759Y-102206637D01*
X121002637Y-102006759D01*
X121159680Y-101771727D01*
X121267853Y-101510574D01*
X121323000Y-101233335D01*
X121323000Y-100950665D01*
X121267853Y-100673426D01*
X121159680Y-100412273D01*
X121002637Y-100177241D01*
X120802759Y-99977363D01*
X120567727Y-99820320D01*
X120306574Y-99712147D01*
X120029335Y-99657000D01*
X119746665Y-99657000D01*
X119469426Y-99712147D01*
X119208273Y-99820320D01*
X118973241Y-99977363D01*
X118773363Y-100177241D01*
X118639308Y-100377869D01*
X118624671Y-100350486D01*
X118380702Y-100278903D01*
X117567605Y-101092000D01*
X117208395Y-101092000D01*
X116395298Y-100278903D01*
X116151329Y-100350486D01*
X116030429Y-100605996D01*
X115961700Y-100880184D01*
X115947783Y-101162512D01*
X111162670Y-101162512D01*
X110131029Y-100130872D01*
X110131029Y-100099298D01*
X116574903Y-100099298D01*
X117388000Y-100912395D01*
X118201097Y-100099298D01*
X118129514Y-99855329D01*
X117874004Y-99734429D01*
X117599816Y-99665700D01*
X117317488Y-99651783D01*
X117037870Y-99693213D01*
X116771708Y-99788397D01*
X116646486Y-99855329D01*
X116574903Y-100099298D01*
X110131029Y-100099298D01*
X110131029Y-91429667D01*
X110197978Y-91429667D01*
X110397937Y-91389893D01*
X110586295Y-91311872D01*
X110755813Y-91198604D01*
X110899976Y-91054441D01*
X111013244Y-90884923D01*
X111091265Y-90696565D01*
X111131039Y-90496606D01*
X111131039Y-90458320D01*
X111151900Y-90432901D01*
X111224792Y-90296528D01*
X111269679Y-90148555D01*
X111281038Y-90033229D01*
X111281038Y-90033222D01*
X111284835Y-89994669D01*
X111281038Y-89956116D01*
X111281038Y-89600967D01*
X111541002Y-89341003D01*
X111541001Y-93030982D01*
G36*
X175135641Y-81447061D02*
G01*
X175378595Y-81547696D01*
X175636514Y-81599000D01*
X175899486Y-81599000D01*
X176033001Y-81572442D01*
X176033002Y-86609438D01*
X176029204Y-86648001D01*
X176044360Y-86801887D01*
X176089247Y-86949860D01*
X176101619Y-86973006D01*
X176162140Y-87086234D01*
X176199738Y-87132047D01*
X176235656Y-87175813D01*
X176235660Y-87175817D01*
X176260238Y-87205765D01*
X176290186Y-87230343D01*
X182956925Y-93897082D01*
X182919000Y-94087740D01*
X182919000Y-94380260D01*
X182976068Y-94667158D01*
X183088010Y-94937411D01*
X183250525Y-95180632D01*
X183457368Y-95387475D01*
X183631760Y-95504000D01*
X183457368Y-95620525D01*
X183250525Y-95827368D01*
X183142526Y-95989000D01*
X181623468Y-95989000D01*
X171184090Y-85549622D01*
X171237937Y-85495774D01*
X171351205Y-85326256D01*
X171384448Y-85246001D01*
X173545243Y-85246001D01*
X173585031Y-85249920D01*
X173624819Y-85246001D01*
X173624822Y-85246001D01*
X173743819Y-85234281D01*
X173896504Y-85187964D01*
X174037220Y-85112750D01*
X174160559Y-85011529D01*
X174185930Y-84980614D01*
X174726616Y-84439928D01*
X174757527Y-84414561D01*
X174842566Y-84310940D01*
X174858748Y-84291223D01*
X174920214Y-84176226D01*
X174933962Y-84150506D01*
X174980279Y-83997821D01*
X174991999Y-83878824D01*
X174991999Y-83878822D01*
X174995918Y-83839034D01*
X174991999Y-83799246D01*
X174991999Y-81351083D01*
X175135641Y-81447061D01*
G37*
X175135641Y-81447061D02*
X175378595Y-81547696D01*
X175636514Y-81599000D01*
X175899486Y-81599000D01*
X176033001Y-81572442D01*
X176033002Y-86609438D01*
X176029204Y-86648001D01*
X176044360Y-86801887D01*
X176089247Y-86949860D01*
X176101619Y-86973006D01*
X176162140Y-87086234D01*
X176199738Y-87132047D01*
X176235656Y-87175813D01*
X176235660Y-87175817D01*
X176260238Y-87205765D01*
X176290186Y-87230343D01*
X182956925Y-93897082D01*
X182919000Y-94087740D01*
X182919000Y-94380260D01*
X182976068Y-94667158D01*
X183088010Y-94937411D01*
X183250525Y-95180632D01*
X183457368Y-95387475D01*
X183631760Y-95504000D01*
X183457368Y-95620525D01*
X183250525Y-95827368D01*
X183142526Y-95989000D01*
X181623468Y-95989000D01*
X171184090Y-85549622D01*
X171237937Y-85495774D01*
X171351205Y-85326256D01*
X171384448Y-85246001D01*
X173545243Y-85246001D01*
X173585031Y-85249920D01*
X173624819Y-85246001D01*
X173624822Y-85246001D01*
X173743819Y-85234281D01*
X173896504Y-85187964D01*
X174037220Y-85112750D01*
X174160559Y-85011529D01*
X174185930Y-84980614D01*
X174726616Y-84439928D01*
X174757527Y-84414561D01*
X174842566Y-84310940D01*
X174858748Y-84291223D01*
X174920214Y-84176226D01*
X174933962Y-84150506D01*
X174980279Y-83997821D01*
X174991999Y-83878824D01*
X174991999Y-83878822D01*
X174995918Y-83839034D01*
X174991999Y-83799246D01*
X174991999Y-81351083D01*
X175135641Y-81447061D01*
G36*
X125791138Y-89924704D02*
G01*
X125763603Y-89847708D01*
X125696671Y-89722486D01*
X125452702Y-89650903D01*
X124639605Y-90464000D01*
X124653748Y-90478143D01*
X124474143Y-90657748D01*
X124460000Y-90643605D01*
X124445858Y-90657748D01*
X124266253Y-90478143D01*
X124280395Y-90464000D01*
X123467298Y-89650903D01*
X123223329Y-89722486D01*
X123102429Y-89977996D01*
X123033700Y-90252184D01*
X123019783Y-90534512D01*
X123061213Y-90814130D01*
X123138054Y-91028999D01*
X122427047Y-91028999D01*
X121624886Y-90226838D01*
X121707937Y-90143786D01*
X121821205Y-89974268D01*
X121899226Y-89785910D01*
X121928093Y-89640786D01*
X122097581Y-89471298D01*
X123646903Y-89471298D01*
X124460000Y-90284395D01*
X125273097Y-89471298D01*
X125201514Y-89227329D01*
X124946004Y-89106429D01*
X124671816Y-89037700D01*
X124389488Y-89023783D01*
X124109870Y-89065213D01*
X123843708Y-89160397D01*
X123718486Y-89227329D01*
X123646903Y-89471298D01*
X122097581Y-89471298D01*
X123188381Y-88380500D01*
X123220240Y-88354354D01*
X123257304Y-88309192D01*
X123324585Y-88227209D01*
X123402121Y-88082150D01*
X123449867Y-87924752D01*
X123452719Y-87895799D01*
X123461949Y-87802082D01*
X123465989Y-87761063D01*
X123461949Y-87720045D01*
X123461949Y-87141000D01*
X123545939Y-87141000D01*
X123745898Y-87101226D01*
X123886796Y-87042864D01*
X123951765Y-87086274D01*
X124140123Y-87164295D01*
X124340082Y-87204069D01*
X124543960Y-87204069D01*
X124743919Y-87164295D01*
X124932277Y-87086274D01*
X125101795Y-86973006D01*
X125120732Y-86954069D01*
X128761773Y-86954069D01*
X125791138Y-89924704D01*
G37*
X125791138Y-89924704D02*
X125763603Y-89847708D01*
X125696671Y-89722486D01*
X125452702Y-89650903D01*
X124639605Y-90464000D01*
X124653748Y-90478143D01*
X124474143Y-90657748D01*
X124460000Y-90643605D01*
X124445858Y-90657748D01*
X124266253Y-90478143D01*
X124280395Y-90464000D01*
X123467298Y-89650903D01*
X123223329Y-89722486D01*
X123102429Y-89977996D01*
X123033700Y-90252184D01*
X123019783Y-90534512D01*
X123061213Y-90814130D01*
X123138054Y-91028999D01*
X122427047Y-91028999D01*
X121624886Y-90226838D01*
X121707937Y-90143786D01*
X121821205Y-89974268D01*
X121899226Y-89785910D01*
X121928093Y-89640786D01*
X122097581Y-89471298D01*
X123646903Y-89471298D01*
X124460000Y-90284395D01*
X125273097Y-89471298D01*
X125201514Y-89227329D01*
X124946004Y-89106429D01*
X124671816Y-89037700D01*
X124389488Y-89023783D01*
X124109870Y-89065213D01*
X123843708Y-89160397D01*
X123718486Y-89227329D01*
X123646903Y-89471298D01*
X122097581Y-89471298D01*
X123188381Y-88380500D01*
X123220240Y-88354354D01*
X123257304Y-88309192D01*
X123324585Y-88227209D01*
X123402121Y-88082150D01*
X123449867Y-87924752D01*
X123452719Y-87895799D01*
X123461949Y-87802082D01*
X123465989Y-87761063D01*
X123461949Y-87720045D01*
X123461949Y-87141000D01*
X123545939Y-87141000D01*
X123745898Y-87101226D01*
X123886796Y-87042864D01*
X123951765Y-87086274D01*
X124140123Y-87164295D01*
X124340082Y-87204069D01*
X124543960Y-87204069D01*
X124743919Y-87164295D01*
X124932277Y-87086274D01*
X125101795Y-86973006D01*
X125120732Y-86954069D01*
X128761773Y-86954069D01*
X125791138Y-89924704D01*
G36*
X118957104Y-81975318D02*
G01*
X118923331Y-82003035D01*
X118812737Y-82137794D01*
X118730559Y-82291540D01*
X118704282Y-82378162D01*
X118683461Y-82446800D01*
X118679953Y-82458363D01*
X118667148Y-82588376D01*
X118667148Y-82588383D01*
X118662867Y-82631852D01*
X118667148Y-82675321D01*
X118667149Y-86341268D01*
X117800725Y-87207693D01*
X117800198Y-87207260D01*
X117659482Y-87132046D01*
X117506797Y-87085729D01*
X117387800Y-87074009D01*
X117387797Y-87074009D01*
X117348009Y-87070090D01*
X117308221Y-87074009D01*
X116387784Y-87074009D01*
X117757756Y-85704038D01*
X117902877Y-85675172D01*
X118091235Y-85597151D01*
X118260753Y-85483883D01*
X118404916Y-85339720D01*
X118518184Y-85170202D01*
X118596205Y-84981844D01*
X118635979Y-84781885D01*
X118635979Y-84578007D01*
X118596205Y-84378048D01*
X118518184Y-84189690D01*
X118516902Y-84187772D01*
X118528613Y-84170245D01*
X118606634Y-83981887D01*
X118646408Y-83781928D01*
X118646408Y-83578050D01*
X118606634Y-83378091D01*
X118528613Y-83189733D01*
X118517409Y-83172965D01*
X118519205Y-83170277D01*
X118597226Y-82981919D01*
X118637000Y-82781960D01*
X118637000Y-82578082D01*
X118597226Y-82378123D01*
X118519205Y-82189765D01*
X118405937Y-82020247D01*
X118261774Y-81876084D01*
X118092256Y-81762816D01*
X117903898Y-81684795D01*
X117703939Y-81645021D01*
X117500061Y-81645021D01*
X117300102Y-81684795D01*
X117111744Y-81762816D01*
X116942226Y-81876084D01*
X116915153Y-81903157D01*
X116882428Y-81906380D01*
X116734455Y-81951267D01*
X116598082Y-82024159D01*
X116552390Y-82061658D01*
X116508502Y-82097676D01*
X116508499Y-82097679D01*
X116478551Y-82122257D01*
X116453973Y-82152205D01*
X115080066Y-83526113D01*
X115055603Y-83457708D01*
X114988671Y-83332486D01*
X114744702Y-83260903D01*
X113931605Y-84074000D01*
X113945748Y-84088143D01*
X113766143Y-84267748D01*
X113752000Y-84253605D01*
X113737858Y-84267748D01*
X113558253Y-84088143D01*
X113572395Y-84074000D01*
X112759298Y-83260903D01*
X112515329Y-83332486D01*
X112501676Y-83361341D01*
X112366637Y-83159241D01*
X112288694Y-83081298D01*
X112938903Y-83081298D01*
X113752000Y-83894395D01*
X114565097Y-83081298D01*
X114493514Y-82837329D01*
X114238004Y-82716429D01*
X113963816Y-82647700D01*
X113681488Y-82633783D01*
X113401870Y-82675213D01*
X113135708Y-82770397D01*
X113010486Y-82837329D01*
X112938903Y-83081298D01*
X112288694Y-83081298D01*
X112166759Y-82959363D01*
X111931727Y-82802320D01*
X111670574Y-82694147D01*
X111393335Y-82639000D01*
X111358579Y-82639000D01*
X112848575Y-81149004D01*
X119783418Y-81149004D01*
X118957104Y-81975318D01*
G37*
X118957104Y-81975318D02*
X118923331Y-82003035D01*
X118812737Y-82137794D01*
X118730559Y-82291540D01*
X118704282Y-82378162D01*
X118683461Y-82446800D01*
X118679953Y-82458363D01*
X118667148Y-82588376D01*
X118667148Y-82588383D01*
X118662867Y-82631852D01*
X118667148Y-82675321D01*
X118667149Y-86341268D01*
X117800725Y-87207693D01*
X117800198Y-87207260D01*
X117659482Y-87132046D01*
X117506797Y-87085729D01*
X117387800Y-87074009D01*
X117387797Y-87074009D01*
X117348009Y-87070090D01*
X117308221Y-87074009D01*
X116387784Y-87074009D01*
X117757756Y-85704038D01*
X117902877Y-85675172D01*
X118091235Y-85597151D01*
X118260753Y-85483883D01*
X118404916Y-85339720D01*
X118518184Y-85170202D01*
X118596205Y-84981844D01*
X118635979Y-84781885D01*
X118635979Y-84578007D01*
X118596205Y-84378048D01*
X118518184Y-84189690D01*
X118516902Y-84187772D01*
X118528613Y-84170245D01*
X118606634Y-83981887D01*
X118646408Y-83781928D01*
X118646408Y-83578050D01*
X118606634Y-83378091D01*
X118528613Y-83189733D01*
X118517409Y-83172965D01*
X118519205Y-83170277D01*
X118597226Y-82981919D01*
X118637000Y-82781960D01*
X118637000Y-82578082D01*
X118597226Y-82378123D01*
X118519205Y-82189765D01*
X118405937Y-82020247D01*
X118261774Y-81876084D01*
X118092256Y-81762816D01*
X117903898Y-81684795D01*
X117703939Y-81645021D01*
X117500061Y-81645021D01*
X117300102Y-81684795D01*
X117111744Y-81762816D01*
X116942226Y-81876084D01*
X116915153Y-81903157D01*
X116882428Y-81906380D01*
X116734455Y-81951267D01*
X116598082Y-82024159D01*
X116552390Y-82061658D01*
X116508502Y-82097676D01*
X116508499Y-82097679D01*
X116478551Y-82122257D01*
X116453973Y-82152205D01*
X115080066Y-83526113D01*
X115055603Y-83457708D01*
X114988671Y-83332486D01*
X114744702Y-83260903D01*
X113931605Y-84074000D01*
X113945748Y-84088143D01*
X113766143Y-84267748D01*
X113752000Y-84253605D01*
X113737858Y-84267748D01*
X113558253Y-84088143D01*
X113572395Y-84074000D01*
X112759298Y-83260903D01*
X112515329Y-83332486D01*
X112501676Y-83361341D01*
X112366637Y-83159241D01*
X112288694Y-83081298D01*
X112938903Y-83081298D01*
X113752000Y-83894395D01*
X114565097Y-83081298D01*
X114493514Y-82837329D01*
X114238004Y-82716429D01*
X113963816Y-82647700D01*
X113681488Y-82633783D01*
X113401870Y-82675213D01*
X113135708Y-82770397D01*
X113010486Y-82837329D01*
X112938903Y-83081298D01*
X112288694Y-83081298D01*
X112166759Y-82959363D01*
X111931727Y-82802320D01*
X111670574Y-82694147D01*
X111393335Y-82639000D01*
X111358579Y-82639000D01*
X112848575Y-81149004D01*
X119783418Y-81149004D01*
X118957104Y-81975318D01*
G36*
X153786525Y-73336632D02*
G01*
X153993368Y-73543475D01*
X154236589Y-73705990D01*
X154506842Y-73817932D01*
X154793740Y-73875000D01*
X154806843Y-73875000D01*
X155937000Y-75005158D01*
X155937000Y-75031939D01*
X155976774Y-75231898D01*
X156054795Y-75420256D01*
X156168063Y-75589774D01*
X156312226Y-75733937D01*
X156481744Y-75847205D01*
X156519876Y-75863000D01*
X152911466Y-75863000D01*
X152867999Y-75858719D01*
X152824533Y-75863000D01*
X152824523Y-75863000D01*
X152694510Y-75875805D01*
X152527687Y-75926411D01*
X152373941Y-76008589D01*
X152373939Y-76008590D01*
X152373940Y-76008590D01*
X152272953Y-76091468D01*
X152272951Y-76091470D01*
X152239183Y-76119183D01*
X152211470Y-76152951D01*
X147500495Y-80863927D01*
X147587696Y-80653405D01*
X147639000Y-80395486D01*
X147639000Y-80132514D01*
X147587696Y-79874595D01*
X147487061Y-79631641D01*
X147340962Y-79412987D01*
X147155013Y-79227038D01*
X146936359Y-79080939D01*
X146693405Y-78980304D01*
X146435486Y-78929000D01*
X146172514Y-78929000D01*
X145914595Y-78980304D01*
X145671641Y-79080939D01*
X145452987Y-79227038D01*
X145267038Y-79412987D01*
X145161000Y-79571685D01*
X145054962Y-79412987D01*
X144903004Y-79261029D01*
X144903004Y-78770454D01*
X144935209Y-78722256D01*
X145013230Y-78533898D01*
X145053004Y-78333939D01*
X145053004Y-78130061D01*
X145013230Y-77930102D01*
X144935209Y-77741744D01*
X144821941Y-77572226D01*
X144677778Y-77428063D01*
X144508260Y-77314795D01*
X144319902Y-77236774D01*
X144119943Y-77197000D01*
X143916065Y-77197000D01*
X143716106Y-77236774D01*
X143527748Y-77314795D01*
X143358230Y-77428063D01*
X143214067Y-77572226D01*
X143100799Y-77741744D01*
X143022778Y-77930102D01*
X142983004Y-78130061D01*
X142983004Y-78333939D01*
X143022778Y-78533898D01*
X143100799Y-78722256D01*
X143133004Y-78770455D01*
X143133005Y-79261020D01*
X142981038Y-79412987D01*
X142875000Y-79571685D01*
X142768962Y-79412987D01*
X142583013Y-79227038D01*
X142364359Y-79080939D01*
X142121405Y-78980304D01*
X141863486Y-78929000D01*
X141600514Y-78929000D01*
X141342595Y-78980304D01*
X141099641Y-79080939D01*
X140880987Y-79227038D01*
X140695038Y-79412987D01*
X140584259Y-79578780D01*
X140512759Y-79461340D01*
X140335670Y-79268649D01*
X140124392Y-79114208D01*
X139887044Y-79003953D01*
X139779329Y-78971284D01*
X139573000Y-79094626D01*
X139573000Y-80137000D01*
X139593000Y-80137000D01*
X139593000Y-80391000D01*
X139573000Y-80391000D01*
X139573000Y-81433374D01*
X139779329Y-81556716D01*
X139887044Y-81524047D01*
X140124392Y-81413792D01*
X140335670Y-81259351D01*
X140512759Y-81066660D01*
X140584259Y-80949220D01*
X140695038Y-81115013D01*
X140880987Y-81300962D01*
X141099641Y-81447061D01*
X141342595Y-81547696D01*
X141600514Y-81599000D01*
X141863486Y-81599000D01*
X142121405Y-81547696D01*
X142364359Y-81447061D01*
X142583013Y-81300962D01*
X142768962Y-81115013D01*
X142875000Y-80956315D01*
X142981038Y-81115013D01*
X143166987Y-81300962D01*
X143385641Y-81447061D01*
X143628595Y-81547696D01*
X143886514Y-81599000D01*
X144149486Y-81599000D01*
X144407405Y-81547696D01*
X144650359Y-81447061D01*
X144869013Y-81300962D01*
X145054962Y-81115013D01*
X145161000Y-80956315D01*
X145267038Y-81115013D01*
X145452987Y-81300962D01*
X145671641Y-81447061D01*
X145914595Y-81547696D01*
X146172514Y-81599000D01*
X146435486Y-81599000D01*
X146693405Y-81547696D01*
X146903927Y-81460495D01*
X145739478Y-82624944D01*
X145656600Y-82725931D01*
X145574422Y-82879677D01*
X145527304Y-83035000D01*
X125768552Y-83035000D01*
X125729999Y-83031203D01*
X125691446Y-83035000D01*
X125691439Y-83035000D01*
X125590490Y-83044943D01*
X125576112Y-83046359D01*
X125498762Y-83069823D01*
X125428140Y-83091246D01*
X125291767Y-83164138D01*
X125243794Y-83203509D01*
X125202187Y-83237655D01*
X125202184Y-83237658D01*
X125172236Y-83262236D01*
X125147658Y-83292184D01*
X123461949Y-84977894D01*
X123461949Y-83367798D01*
X125868851Y-80960898D01*
X125933241Y-81066660D01*
X126110330Y-81259351D01*
X126321608Y-81413792D01*
X126558956Y-81524047D01*
X126666671Y-81556716D01*
X126873000Y-81433374D01*
X126873000Y-80391000D01*
X127127000Y-80391000D01*
X127127000Y-81433374D01*
X127333329Y-81556716D01*
X127441044Y-81524047D01*
X127678392Y-81413792D01*
X127889670Y-81259351D01*
X128066759Y-81066660D01*
X128202853Y-80843123D01*
X128270000Y-80659475D01*
X128337147Y-80843123D01*
X128473241Y-81066660D01*
X128650330Y-81259351D01*
X128861608Y-81413792D01*
X129098956Y-81524047D01*
X129206671Y-81556716D01*
X129413000Y-81433374D01*
X129413000Y-80391000D01*
X129667000Y-80391000D01*
X129667000Y-81433374D01*
X129873329Y-81556716D01*
X129981044Y-81524047D01*
X130218392Y-81413792D01*
X130429670Y-81259351D01*
X130606759Y-81066660D01*
X130742853Y-80843123D01*
X130810000Y-80659475D01*
X130877147Y-80843123D01*
X131013241Y-81066660D01*
X131190330Y-81259351D01*
X131401608Y-81413792D01*
X131638956Y-81524047D01*
X131746671Y-81556716D01*
X131953000Y-81433374D01*
X131953000Y-80391000D01*
X130909799Y-80391000D01*
X130810000Y-80559065D01*
X130710201Y-80391000D01*
X129667000Y-80391000D01*
X129413000Y-80391000D01*
X128369799Y-80391000D01*
X128270000Y-80559065D01*
X128170201Y-80391000D01*
X127127000Y-80391000D01*
X126873000Y-80391000D01*
X126853000Y-80391000D01*
X126853000Y-80137000D01*
X126873000Y-80137000D01*
X126873000Y-80117000D01*
X127127000Y-80117000D01*
X127127000Y-80137000D01*
X128170201Y-80137000D01*
X128252147Y-79998999D01*
X128287853Y-79998999D01*
X128369799Y-80137000D01*
X129413000Y-80137000D01*
X129413000Y-80117000D01*
X129667000Y-80117000D01*
X129667000Y-80137000D01*
X130710201Y-80137000D01*
X130792147Y-79998999D01*
X130827853Y-79998999D01*
X130909799Y-80137000D01*
X131953000Y-80137000D01*
X131953000Y-80117000D01*
X132207000Y-80117000D01*
X132207000Y-80137000D01*
X132227000Y-80137000D01*
X132227000Y-80391000D01*
X132207000Y-80391000D01*
X132207000Y-81433374D01*
X132413329Y-81556716D01*
X132521044Y-81524047D01*
X132758392Y-81413792D01*
X132969670Y-81259351D01*
X133146759Y-81066660D01*
X133282853Y-80843123D01*
X133344757Y-80673813D01*
X133436939Y-80896359D01*
X133583038Y-81115013D01*
X133768987Y-81300962D01*
X133987641Y-81447061D01*
X134230595Y-81547696D01*
X134488514Y-81599000D01*
X134751486Y-81599000D01*
X135009405Y-81547696D01*
X135252359Y-81447061D01*
X135471013Y-81300962D01*
X135656962Y-81115013D01*
X135803061Y-80896359D01*
X135895243Y-80673813D01*
X135957147Y-80843123D01*
X136093241Y-81066660D01*
X136270330Y-81259351D01*
X136481608Y-81413792D01*
X136718956Y-81524047D01*
X136826671Y-81556716D01*
X137033000Y-81433374D01*
X137033000Y-80391000D01*
X137287000Y-80391000D01*
X137287000Y-81433374D01*
X137493329Y-81556716D01*
X137601044Y-81524047D01*
X137838392Y-81413792D01*
X138049670Y-81259351D01*
X138226759Y-81066660D01*
X138303000Y-80941433D01*
X138379241Y-81066660D01*
X138556330Y-81259351D01*
X138767608Y-81413792D01*
X139004956Y-81524047D01*
X139112671Y-81556716D01*
X139319000Y-81433374D01*
X139319000Y-80391000D01*
X137287000Y-80391000D01*
X137033000Y-80391000D01*
X137013000Y-80391000D01*
X137013000Y-80137000D01*
X137033000Y-80137000D01*
X137033000Y-79094626D01*
X137287000Y-79094626D01*
X137287000Y-80137000D01*
X139319000Y-80137000D01*
X139319000Y-79094626D01*
X139112671Y-78971284D01*
X139004956Y-79003953D01*
X138767608Y-79114208D01*
X138556330Y-79268649D01*
X138379241Y-79461340D01*
X138303000Y-79586567D01*
X138226759Y-79461340D01*
X138049670Y-79268649D01*
X137838392Y-79114208D01*
X137601044Y-79003953D01*
X137493329Y-78971284D01*
X137287000Y-79094626D01*
X137033000Y-79094626D01*
X136826671Y-78971284D01*
X136718956Y-79003953D01*
X136481608Y-79114208D01*
X136270330Y-79268649D01*
X136093241Y-79461340D01*
X135957147Y-79684877D01*
X135895243Y-79854187D01*
X135803061Y-79631641D01*
X135656962Y-79412987D01*
X135584420Y-79340445D01*
X137721427Y-77203439D01*
X137753291Y-77177289D01*
X137857636Y-77050144D01*
X137871944Y-77023376D01*
X137938914Y-77059173D01*
X138096312Y-77106919D01*
X138218982Y-77119001D01*
X138218992Y-77119001D01*
X138260000Y-77123040D01*
X138301008Y-77119001D01*
X147127062Y-77119001D01*
X147168080Y-77123041D01*
X147209098Y-77119001D01*
X147209099Y-77119001D01*
X147331769Y-77106919D01*
X147489167Y-77059173D01*
X147634226Y-76981637D01*
X147761371Y-76877292D01*
X147787526Y-76845422D01*
X150421433Y-74211517D01*
X150453291Y-74185372D01*
X150495563Y-74133864D01*
X150557636Y-74058227D01*
X150635172Y-73913168D01*
X150663429Y-73820016D01*
X150682918Y-73755770D01*
X150695000Y-73633100D01*
X150695000Y-73633099D01*
X150696585Y-73617006D01*
X150806632Y-73543475D01*
X151013475Y-73336632D01*
X151130000Y-73162240D01*
X151246525Y-73336632D01*
X151453368Y-73543475D01*
X151696589Y-73705990D01*
X151966842Y-73817932D01*
X152253740Y-73875000D01*
X152546260Y-73875000D01*
X152833158Y-73817932D01*
X153103411Y-73705990D01*
X153346632Y-73543475D01*
X153553475Y-73336632D01*
X153670000Y-73162240D01*
X153786525Y-73336632D01*
G37*
X153786525Y-73336632D02*
X153993368Y-73543475D01*
X154236589Y-73705990D01*
X154506842Y-73817932D01*
X154793740Y-73875000D01*
X154806843Y-73875000D01*
X155937000Y-75005158D01*
X155937000Y-75031939D01*
X155976774Y-75231898D01*
X156054795Y-75420256D01*
X156168063Y-75589774D01*
X156312226Y-75733937D01*
X156481744Y-75847205D01*
X156519876Y-75863000D01*
X152911466Y-75863000D01*
X152867999Y-75858719D01*
X152824533Y-75863000D01*
X152824523Y-75863000D01*
X152694510Y-75875805D01*
X152527687Y-75926411D01*
X152373941Y-76008589D01*
X152373939Y-76008590D01*
X152373940Y-76008590D01*
X152272953Y-76091468D01*
X152272951Y-76091470D01*
X152239183Y-76119183D01*
X152211470Y-76152951D01*
X147500495Y-80863927D01*
X147587696Y-80653405D01*
X147639000Y-80395486D01*
X147639000Y-80132514D01*
X147587696Y-79874595D01*
X147487061Y-79631641D01*
X147340962Y-79412987D01*
X147155013Y-79227038D01*
X146936359Y-79080939D01*
X146693405Y-78980304D01*
X146435486Y-78929000D01*
X146172514Y-78929000D01*
X145914595Y-78980304D01*
X145671641Y-79080939D01*
X145452987Y-79227038D01*
X145267038Y-79412987D01*
X145161000Y-79571685D01*
X145054962Y-79412987D01*
X144903004Y-79261029D01*
X144903004Y-78770454D01*
X144935209Y-78722256D01*
X145013230Y-78533898D01*
X145053004Y-78333939D01*
X145053004Y-78130061D01*
X145013230Y-77930102D01*
X144935209Y-77741744D01*
X144821941Y-77572226D01*
X144677778Y-77428063D01*
X144508260Y-77314795D01*
X144319902Y-77236774D01*
X144119943Y-77197000D01*
X143916065Y-77197000D01*
X143716106Y-77236774D01*
X143527748Y-77314795D01*
X143358230Y-77428063D01*
X143214067Y-77572226D01*
X143100799Y-77741744D01*
X143022778Y-77930102D01*
X142983004Y-78130061D01*
X142983004Y-78333939D01*
X143022778Y-78533898D01*
X143100799Y-78722256D01*
X143133004Y-78770455D01*
X143133005Y-79261020D01*
X142981038Y-79412987D01*
X142875000Y-79571685D01*
X142768962Y-79412987D01*
X142583013Y-79227038D01*
X142364359Y-79080939D01*
X142121405Y-78980304D01*
X141863486Y-78929000D01*
X141600514Y-78929000D01*
X141342595Y-78980304D01*
X141099641Y-79080939D01*
X140880987Y-79227038D01*
X140695038Y-79412987D01*
X140584259Y-79578780D01*
X140512759Y-79461340D01*
X140335670Y-79268649D01*
X140124392Y-79114208D01*
X139887044Y-79003953D01*
X139779329Y-78971284D01*
X139573000Y-79094626D01*
X139573000Y-80137000D01*
X139593000Y-80137000D01*
X139593000Y-80391000D01*
X139573000Y-80391000D01*
X139573000Y-81433374D01*
X139779329Y-81556716D01*
X139887044Y-81524047D01*
X140124392Y-81413792D01*
X140335670Y-81259351D01*
X140512759Y-81066660D01*
X140584259Y-80949220D01*
X140695038Y-81115013D01*
X140880987Y-81300962D01*
X141099641Y-81447061D01*
X141342595Y-81547696D01*
X141600514Y-81599000D01*
X141863486Y-81599000D01*
X142121405Y-81547696D01*
X142364359Y-81447061D01*
X142583013Y-81300962D01*
X142768962Y-81115013D01*
X142875000Y-80956315D01*
X142981038Y-81115013D01*
X143166987Y-81300962D01*
X143385641Y-81447061D01*
X143628595Y-81547696D01*
X143886514Y-81599000D01*
X144149486Y-81599000D01*
X144407405Y-81547696D01*
X144650359Y-81447061D01*
X144869013Y-81300962D01*
X145054962Y-81115013D01*
X145161000Y-80956315D01*
X145267038Y-81115013D01*
X145452987Y-81300962D01*
X145671641Y-81447061D01*
X145914595Y-81547696D01*
X146172514Y-81599000D01*
X146435486Y-81599000D01*
X146693405Y-81547696D01*
X146903927Y-81460495D01*
X145739478Y-82624944D01*
X145656600Y-82725931D01*
X145574422Y-82879677D01*
X145527304Y-83035000D01*
X125768552Y-83035000D01*
X125729999Y-83031203D01*
X125691446Y-83035000D01*
X125691439Y-83035000D01*
X125590490Y-83044943D01*
X125576112Y-83046359D01*
X125498762Y-83069823D01*
X125428140Y-83091246D01*
X125291767Y-83164138D01*
X125243794Y-83203509D01*
X125202187Y-83237655D01*
X125202184Y-83237658D01*
X125172236Y-83262236D01*
X125147658Y-83292184D01*
X123461949Y-84977894D01*
X123461949Y-83367798D01*
X125868851Y-80960898D01*
X125933241Y-81066660D01*
X126110330Y-81259351D01*
X126321608Y-81413792D01*
X126558956Y-81524047D01*
X126666671Y-81556716D01*
X126873000Y-81433374D01*
X126873000Y-80391000D01*
X127127000Y-80391000D01*
X127127000Y-81433374D01*
X127333329Y-81556716D01*
X127441044Y-81524047D01*
X127678392Y-81413792D01*
X127889670Y-81259351D01*
X128066759Y-81066660D01*
X128202853Y-80843123D01*
X128270000Y-80659475D01*
X128337147Y-80843123D01*
X128473241Y-81066660D01*
X128650330Y-81259351D01*
X128861608Y-81413792D01*
X129098956Y-81524047D01*
X129206671Y-81556716D01*
X129413000Y-81433374D01*
X129413000Y-80391000D01*
X129667000Y-80391000D01*
X129667000Y-81433374D01*
X129873329Y-81556716D01*
X129981044Y-81524047D01*
X130218392Y-81413792D01*
X130429670Y-81259351D01*
X130606759Y-81066660D01*
X130742853Y-80843123D01*
X130810000Y-80659475D01*
X130877147Y-80843123D01*
X131013241Y-81066660D01*
X131190330Y-81259351D01*
X131401608Y-81413792D01*
X131638956Y-81524047D01*
X131746671Y-81556716D01*
X131953000Y-81433374D01*
X131953000Y-80391000D01*
X130909799Y-80391000D01*
X130810000Y-80559065D01*
X130710201Y-80391000D01*
X129667000Y-80391000D01*
X129413000Y-80391000D01*
X128369799Y-80391000D01*
X128270000Y-80559065D01*
X128170201Y-80391000D01*
X127127000Y-80391000D01*
X126873000Y-80391000D01*
X126853000Y-80391000D01*
X126853000Y-80137000D01*
X126873000Y-80137000D01*
X126873000Y-80117000D01*
X127127000Y-80117000D01*
X127127000Y-80137000D01*
X128170201Y-80137000D01*
X128252147Y-79998999D01*
X128287853Y-79998999D01*
X128369799Y-80137000D01*
X129413000Y-80137000D01*
X129413000Y-80117000D01*
X129667000Y-80117000D01*
X129667000Y-80137000D01*
X130710201Y-80137000D01*
X130792147Y-79998999D01*
X130827853Y-79998999D01*
X130909799Y-80137000D01*
X131953000Y-80137000D01*
X131953000Y-80117000D01*
X132207000Y-80117000D01*
X132207000Y-80137000D01*
X132227000Y-80137000D01*
X132227000Y-80391000D01*
X132207000Y-80391000D01*
X132207000Y-81433374D01*
X132413329Y-81556716D01*
X132521044Y-81524047D01*
X132758392Y-81413792D01*
X132969670Y-81259351D01*
X133146759Y-81066660D01*
X133282853Y-80843123D01*
X133344757Y-80673813D01*
X133436939Y-80896359D01*
X133583038Y-81115013D01*
X133768987Y-81300962D01*
X133987641Y-81447061D01*
X134230595Y-81547696D01*
X134488514Y-81599000D01*
X134751486Y-81599000D01*
X135009405Y-81547696D01*
X135252359Y-81447061D01*
X135471013Y-81300962D01*
X135656962Y-81115013D01*
X135803061Y-80896359D01*
X135895243Y-80673813D01*
X135957147Y-80843123D01*
X136093241Y-81066660D01*
X136270330Y-81259351D01*
X136481608Y-81413792D01*
X136718956Y-81524047D01*
X136826671Y-81556716D01*
X137033000Y-81433374D01*
X137033000Y-80391000D01*
X137287000Y-80391000D01*
X137287000Y-81433374D01*
X137493329Y-81556716D01*
X137601044Y-81524047D01*
X137838392Y-81413792D01*
X138049670Y-81259351D01*
X138226759Y-81066660D01*
X138303000Y-80941433D01*
X138379241Y-81066660D01*
X138556330Y-81259351D01*
X138767608Y-81413792D01*
X139004956Y-81524047D01*
X139112671Y-81556716D01*
X139319000Y-81433374D01*
X139319000Y-80391000D01*
X137287000Y-80391000D01*
X137033000Y-80391000D01*
X137013000Y-80391000D01*
X137013000Y-80137000D01*
X137033000Y-80137000D01*
X137033000Y-79094626D01*
X137287000Y-79094626D01*
X137287000Y-80137000D01*
X139319000Y-80137000D01*
X139319000Y-79094626D01*
X139112671Y-78971284D01*
X139004956Y-79003953D01*
X138767608Y-79114208D01*
X138556330Y-79268649D01*
X138379241Y-79461340D01*
X138303000Y-79586567D01*
X138226759Y-79461340D01*
X138049670Y-79268649D01*
X137838392Y-79114208D01*
X137601044Y-79003953D01*
X137493329Y-78971284D01*
X137287000Y-79094626D01*
X137033000Y-79094626D01*
X136826671Y-78971284D01*
X136718956Y-79003953D01*
X136481608Y-79114208D01*
X136270330Y-79268649D01*
X136093241Y-79461340D01*
X135957147Y-79684877D01*
X135895243Y-79854187D01*
X135803061Y-79631641D01*
X135656962Y-79412987D01*
X135584420Y-79340445D01*
X137721427Y-77203439D01*
X137753291Y-77177289D01*
X137857636Y-77050144D01*
X137871944Y-77023376D01*
X137938914Y-77059173D01*
X138096312Y-77106919D01*
X138218982Y-77119001D01*
X138218992Y-77119001D01*
X138260000Y-77123040D01*
X138301008Y-77119001D01*
X147127062Y-77119001D01*
X147168080Y-77123041D01*
X147209098Y-77119001D01*
X147209099Y-77119001D01*
X147331769Y-77106919D01*
X147489167Y-77059173D01*
X147634226Y-76981637D01*
X147761371Y-76877292D01*
X147787526Y-76845422D01*
X150421433Y-74211517D01*
X150453291Y-74185372D01*
X150495563Y-74133864D01*
X150557636Y-74058227D01*
X150635172Y-73913168D01*
X150663429Y-73820016D01*
X150682918Y-73755770D01*
X150695000Y-73633100D01*
X150695000Y-73633099D01*
X150696585Y-73617006D01*
X150806632Y-73543475D01*
X151013475Y-73336632D01*
X151130000Y-73162240D01*
X151246525Y-73336632D01*
X151453368Y-73543475D01*
X151696589Y-73705990D01*
X151966842Y-73817932D01*
X152253740Y-73875000D01*
X152546260Y-73875000D01*
X152833158Y-73817932D01*
X153103411Y-73705990D01*
X153346632Y-73543475D01*
X153553475Y-73336632D01*
X153670000Y-73162240D01*
X153786525Y-73336632D01*
G36*
X180631034Y-77488613D02*
G01*
X180441939Y-77451000D01*
X180238061Y-77451000D01*
X180038102Y-77490774D01*
X179849744Y-77568795D01*
X179680226Y-77682063D01*
X179536063Y-77826226D01*
X179422795Y-77995744D01*
X179344774Y-78184102D01*
X179305000Y-78384061D01*
X179305000Y-78587939D01*
X179344774Y-78787898D01*
X179422795Y-78976256D01*
X179536063Y-79145774D01*
X179680226Y-79289937D01*
X179849744Y-79403205D01*
X180038102Y-79481226D01*
X180238061Y-79521000D01*
X180264843Y-79521000D01*
X181124328Y-80380486D01*
X181124328Y-81635600D01*
X181136588Y-81760082D01*
X181172898Y-81879780D01*
X181231863Y-81990094D01*
X181311215Y-82086785D01*
X181407906Y-82166137D01*
X181518220Y-82225102D01*
X181637918Y-82261412D01*
X181762400Y-82273672D01*
X183489600Y-82273672D01*
X183614082Y-82261412D01*
X183733780Y-82225102D01*
X183844094Y-82166137D01*
X183940785Y-82086785D01*
X184020137Y-81990094D01*
X184079102Y-81879780D01*
X184096636Y-81821977D01*
X184210698Y-81936039D01*
X184456147Y-82100042D01*
X184728875Y-82213010D01*
X185018401Y-82270600D01*
X185313599Y-82270600D01*
X185603125Y-82213010D01*
X185875853Y-82100042D01*
X186121302Y-81936039D01*
X186330039Y-81727302D01*
X186436000Y-81568719D01*
X186541961Y-81727302D01*
X186750698Y-81936039D01*
X186996147Y-82100042D01*
X187268875Y-82213010D01*
X187558401Y-82270600D01*
X187853599Y-82270600D01*
X188143125Y-82213010D01*
X188415853Y-82100042D01*
X188661302Y-81936039D01*
X188870039Y-81727302D01*
X188976000Y-81568719D01*
X189081961Y-81727302D01*
X189290698Y-81936039D01*
X189536147Y-82100042D01*
X189808875Y-82213010D01*
X190098401Y-82270600D01*
X190393599Y-82270600D01*
X190683125Y-82213010D01*
X190955853Y-82100042D01*
X191201302Y-81936039D01*
X191410039Y-81727302D01*
X191516000Y-81568719D01*
X191621961Y-81727302D01*
X191830698Y-81936039D01*
X192076147Y-82100042D01*
X192128730Y-82121823D01*
X191061552Y-83189000D01*
X188138656Y-83189000D01*
X188097475Y-83127368D01*
X187890632Y-82920525D01*
X187647411Y-82758010D01*
X187377158Y-82646068D01*
X187090260Y-82589000D01*
X186797740Y-82589000D01*
X186510842Y-82646068D01*
X186240589Y-82758010D01*
X185997368Y-82920525D01*
X185865513Y-83052380D01*
X185843502Y-82979820D01*
X185784537Y-82869506D01*
X185705185Y-82772815D01*
X185608494Y-82693463D01*
X185498180Y-82634498D01*
X185378482Y-82598188D01*
X185254000Y-82585928D01*
X184689750Y-82589000D01*
X184531000Y-82747750D01*
X184531000Y-83947000D01*
X184551000Y-83947000D01*
X184551000Y-84201000D01*
X184531000Y-84201000D01*
X184531000Y-84221000D01*
X184277000Y-84221000D01*
X184277000Y-84201000D01*
X184257000Y-84201000D01*
X184257000Y-83947000D01*
X184277000Y-83947000D01*
X184277000Y-82747750D01*
X184118250Y-82589000D01*
X183554000Y-82585928D01*
X183429518Y-82598188D01*
X183309820Y-82634498D01*
X183199506Y-82693463D01*
X183102815Y-82772815D01*
X183023463Y-82869506D01*
X182964498Y-82979820D01*
X182928188Y-83099518D01*
X182915928Y-83224000D01*
X182919000Y-83788250D01*
X183077748Y-83946998D01*
X182919000Y-83946998D01*
X182919000Y-84018842D01*
X181117011Y-82216854D01*
X181117011Y-81191195D01*
X181120808Y-81152642D01*
X181117011Y-81114089D01*
X181117011Y-81114082D01*
X181105652Y-80998756D01*
X181104574Y-80995200D01*
X181083038Y-80924208D01*
X181060765Y-80850783D01*
X180987873Y-80714410D01*
X180937085Y-80652525D01*
X180914356Y-80624830D01*
X180914353Y-80624827D01*
X180889775Y-80594879D01*
X180859828Y-80570302D01*
X176553956Y-76264431D01*
X176619013Y-76220962D01*
X176804962Y-76035013D01*
X176951061Y-75816359D01*
X177051696Y-75573405D01*
X177103000Y-75315486D01*
X177103000Y-75052514D01*
X177076442Y-74918999D01*
X178061421Y-74918999D01*
X180631034Y-77488613D01*
G37*
X180631034Y-77488613D02*
X180441939Y-77451000D01*
X180238061Y-77451000D01*
X180038102Y-77490774D01*
X179849744Y-77568795D01*
X179680226Y-77682063D01*
X179536063Y-77826226D01*
X179422795Y-77995744D01*
X179344774Y-78184102D01*
X179305000Y-78384061D01*
X179305000Y-78587939D01*
X179344774Y-78787898D01*
X179422795Y-78976256D01*
X179536063Y-79145774D01*
X179680226Y-79289937D01*
X179849744Y-79403205D01*
X180038102Y-79481226D01*
X180238061Y-79521000D01*
X180264843Y-79521000D01*
X181124328Y-80380486D01*
X181124328Y-81635600D01*
X181136588Y-81760082D01*
X181172898Y-81879780D01*
X181231863Y-81990094D01*
X181311215Y-82086785D01*
X181407906Y-82166137D01*
X181518220Y-82225102D01*
X181637918Y-82261412D01*
X181762400Y-82273672D01*
X183489600Y-82273672D01*
X183614082Y-82261412D01*
X183733780Y-82225102D01*
X183844094Y-82166137D01*
X183940785Y-82086785D01*
X184020137Y-81990094D01*
X184079102Y-81879780D01*
X184096636Y-81821977D01*
X184210698Y-81936039D01*
X184456147Y-82100042D01*
X184728875Y-82213010D01*
X185018401Y-82270600D01*
X185313599Y-82270600D01*
X185603125Y-82213010D01*
X185875853Y-82100042D01*
X186121302Y-81936039D01*
X186330039Y-81727302D01*
X186436000Y-81568719D01*
X186541961Y-81727302D01*
X186750698Y-81936039D01*
X186996147Y-82100042D01*
X187268875Y-82213010D01*
X187558401Y-82270600D01*
X187853599Y-82270600D01*
X188143125Y-82213010D01*
X188415853Y-82100042D01*
X188661302Y-81936039D01*
X188870039Y-81727302D01*
X188976000Y-81568719D01*
X189081961Y-81727302D01*
X189290698Y-81936039D01*
X189536147Y-82100042D01*
X189808875Y-82213010D01*
X190098401Y-82270600D01*
X190393599Y-82270600D01*
X190683125Y-82213010D01*
X190955853Y-82100042D01*
X191201302Y-81936039D01*
X191410039Y-81727302D01*
X191516000Y-81568719D01*
X191621961Y-81727302D01*
X191830698Y-81936039D01*
X192076147Y-82100042D01*
X192128730Y-82121823D01*
X191061552Y-83189000D01*
X188138656Y-83189000D01*
X188097475Y-83127368D01*
X187890632Y-82920525D01*
X187647411Y-82758010D01*
X187377158Y-82646068D01*
X187090260Y-82589000D01*
X186797740Y-82589000D01*
X186510842Y-82646068D01*
X186240589Y-82758010D01*
X185997368Y-82920525D01*
X185865513Y-83052380D01*
X185843502Y-82979820D01*
X185784537Y-82869506D01*
X185705185Y-82772815D01*
X185608494Y-82693463D01*
X185498180Y-82634498D01*
X185378482Y-82598188D01*
X185254000Y-82585928D01*
X184689750Y-82589000D01*
X184531000Y-82747750D01*
X184531000Y-83947000D01*
X184551000Y-83947000D01*
X184551000Y-84201000D01*
X184531000Y-84201000D01*
X184531000Y-84221000D01*
X184277000Y-84221000D01*
X184277000Y-84201000D01*
X184257000Y-84201000D01*
X184257000Y-83947000D01*
X184277000Y-83947000D01*
X184277000Y-82747750D01*
X184118250Y-82589000D01*
X183554000Y-82585928D01*
X183429518Y-82598188D01*
X183309820Y-82634498D01*
X183199506Y-82693463D01*
X183102815Y-82772815D01*
X183023463Y-82869506D01*
X182964498Y-82979820D01*
X182928188Y-83099518D01*
X182915928Y-83224000D01*
X182919000Y-83788250D01*
X183077748Y-83946998D01*
X182919000Y-83946998D01*
X182919000Y-84018842D01*
X181117011Y-82216854D01*
X181117011Y-81191195D01*
X181120808Y-81152642D01*
X181117011Y-81114089D01*
X181117011Y-81114082D01*
X181105652Y-80998756D01*
X181104574Y-80995200D01*
X181083038Y-80924208D01*
X181060765Y-80850783D01*
X180987873Y-80714410D01*
X180937085Y-80652525D01*
X180914356Y-80624830D01*
X180914353Y-80624827D01*
X180889775Y-80594879D01*
X180859828Y-80570302D01*
X176553956Y-76264431D01*
X176619013Y-76220962D01*
X176804962Y-76035013D01*
X176951061Y-75816359D01*
X177051696Y-75573405D01*
X177103000Y-75315486D01*
X177103000Y-75052514D01*
X177076442Y-74918999D01*
X178061421Y-74918999D01*
X180631034Y-77488613D01*
M02*
