%FSLAX45Y45*%
G04 Gerber Fmt 4.5, Leading zero omitted, Abs format (unit mm)*
G04 Created by KiCad (PCBNEW (5.1.5)-3) date 2020-10-12 17:18:43*
%MOMM*%
%LPD*%
G04 APERTURE LIST*
%TA.AperFunction,Profile*%
%ADD10C,0.050000*%
%TD*%
%ADD11C,0.200000*%
%ADD12C,0.300000*%
G04 APERTURE END LIST*
D10*
X9474200Y-6756400D02*
X19735800Y-6756400D01*
X9474200Y-11074400D02*
X9474200Y-6756400D01*
X10617200Y-11074400D02*
X9474200Y-11074400D01*
X10617200Y-12166600D02*
X10617200Y-11074400D01*
X11861800Y-12166600D02*
X10617200Y-12166600D01*
X11861800Y-13208000D02*
X11861800Y-12166600D01*
X11887200Y-13258800D02*
X11861800Y-13208000D01*
X11938000Y-13284200D02*
X11887200Y-13258800D01*
X18288000Y-13284200D02*
X11938000Y-13284200D01*
X18338800Y-13258800D02*
X18288000Y-13284200D01*
X18364200Y-13208000D02*
X18338800Y-13258800D01*
X18364200Y-12166600D02*
X18364200Y-13208000D01*
X19735800Y-12166600D02*
X18364200Y-12166600D01*
X19735800Y-6756400D02*
X19735800Y-12166600D01*
D11*
X10895270Y-8193001D02*
X10935270Y-8233001D01*
X10935270Y-8193001D02*
X10895270Y-8233001D01*
X10946359Y-8918994D02*
X10986359Y-8958994D01*
X10986359Y-8918994D02*
X10946359Y-8958994D01*
X10952800Y-8719199D02*
X10992800Y-8759199D01*
X10992800Y-8719199D02*
X10952800Y-8759199D01*
X10952800Y-8819200D02*
X10992800Y-8859200D01*
X10992800Y-8819200D02*
X10952800Y-8859200D01*
X10989604Y-9019467D02*
X11029604Y-9059467D01*
X11029604Y-9019467D02*
X10989604Y-9059467D01*
X11130600Y-11664000D02*
X11170600Y-11704000D01*
X11170600Y-11664000D02*
X11130600Y-11704000D01*
X11257600Y-9327200D02*
X11297600Y-9367200D01*
X11297600Y-9327200D02*
X11257600Y-9367200D01*
X11318987Y-9133728D02*
X11358987Y-9173728D01*
X11358987Y-9133728D02*
X11318987Y-9173728D01*
X11344952Y-8788416D02*
X11384952Y-8828416D01*
X11384952Y-8788416D02*
X11344952Y-8828416D01*
X11359200Y-9606600D02*
X11399200Y-9646600D01*
X11399200Y-9606600D02*
X11359200Y-9646600D01*
X11436802Y-9281732D02*
X11476802Y-9321732D01*
X11476802Y-9281732D02*
X11436802Y-9321732D01*
X11462999Y-8918798D02*
X11502999Y-8958798D01*
X11502999Y-8918798D02*
X11462999Y-8958798D01*
X11487390Y-9190934D02*
X11527390Y-9230934D01*
X11527390Y-9190934D02*
X11487390Y-9230934D01*
X11562265Y-8930895D02*
X11602265Y-8970895D01*
X11602265Y-8930895D02*
X11562265Y-8970895D01*
X11614955Y-8845901D02*
X11654955Y-8885901D01*
X11654955Y-8845901D02*
X11614955Y-8885901D01*
X11740098Y-8447995D02*
X11780098Y-8487995D01*
X11780098Y-8447995D02*
X11740098Y-8487995D01*
X11740200Y-8248002D02*
X11780200Y-8288002D01*
X11780200Y-8248002D02*
X11740200Y-8288002D01*
X11741141Y-8347999D02*
X11781141Y-8387999D01*
X11781141Y-8347999D02*
X11741141Y-8387999D01*
X11789731Y-9573054D02*
X11829731Y-9613054D01*
X11829731Y-9573054D02*
X11789731Y-9613054D01*
X11908172Y-8822815D02*
X11948172Y-8862815D01*
X11948172Y-8822815D02*
X11908172Y-8862815D01*
X12014396Y-8822659D02*
X12054396Y-8862659D01*
X12054396Y-8822659D02*
X12014396Y-8862659D01*
X12021680Y-9295877D02*
X12061680Y-9335877D01*
X12061680Y-9295877D02*
X12021680Y-9335877D01*
X12045000Y-8006400D02*
X12085000Y-8046400D01*
X12085000Y-8006400D02*
X12045000Y-8046400D01*
X12070400Y-8928401D02*
X12110400Y-8968401D01*
X12110400Y-8928401D02*
X12070400Y-8968401D01*
X12119042Y-8758635D02*
X12159042Y-8798635D01*
X12159042Y-8758635D02*
X12119042Y-8798635D01*
X12162694Y-8369795D02*
X12202694Y-8409795D01*
X12202694Y-8369795D02*
X12162694Y-8409795D01*
X12248200Y-10546400D02*
X12288200Y-10586400D01*
X12288200Y-10546400D02*
X12248200Y-10586400D01*
X12299000Y-9784400D02*
X12339000Y-9824400D01*
X12339000Y-9784400D02*
X12299000Y-9824400D01*
X12324400Y-8590600D02*
X12364400Y-8630600D01*
X12364400Y-8590600D02*
X12324400Y-8630600D01*
X12388548Y-10388498D02*
X12428548Y-10428498D01*
X12428548Y-10388498D02*
X12388548Y-10428498D01*
X12400600Y-12045000D02*
X12440600Y-12085000D01*
X12440600Y-12045000D02*
X12400600Y-12085000D01*
X12424202Y-8596907D02*
X12464202Y-8636907D01*
X12464202Y-8596907D02*
X12424202Y-8636907D01*
X12883200Y-11003600D02*
X12923200Y-11043600D01*
X12923200Y-11003600D02*
X12883200Y-11043600D01*
X12883200Y-11156000D02*
X12923200Y-11196000D01*
X12923200Y-11156000D02*
X12883200Y-11196000D01*
X12883200Y-10851200D02*
X12923200Y-10891200D01*
X12923200Y-10851200D02*
X12883200Y-10891200D01*
X13146036Y-10852619D02*
X13186036Y-10892619D01*
X13186036Y-10852619D02*
X13146036Y-10892619D01*
X13265830Y-10644439D02*
X13305830Y-10684439D01*
X13305830Y-10644439D02*
X13265830Y-10684439D01*
X13289600Y-10851200D02*
X13329600Y-10891200D01*
X13329600Y-10851200D02*
X13289600Y-10891200D01*
X13300053Y-8900902D02*
X13340053Y-8940902D01*
X13340053Y-8900902D02*
X13300053Y-8940902D01*
X13467400Y-11257600D02*
X13507400Y-11297600D01*
X13507400Y-11257600D02*
X13467400Y-11297600D01*
X13717098Y-8973401D02*
X13757098Y-9013401D01*
X13757098Y-8973401D02*
X13717098Y-9013401D01*
X13721400Y-10597201D02*
X13761400Y-10637201D01*
X13761400Y-10597201D02*
X13721400Y-10637201D01*
X14051600Y-9047800D02*
X14091600Y-9087800D01*
X14091600Y-9047800D02*
X14051600Y-9087800D01*
X14178600Y-10597200D02*
X14218600Y-10637200D01*
X14218600Y-10597200D02*
X14178600Y-10637200D01*
X14381800Y-7803200D02*
X14421800Y-7843200D01*
X14421800Y-7803200D02*
X14381800Y-7843200D01*
X14458000Y-10470200D02*
X14498000Y-10510200D01*
X14498000Y-10470200D02*
X14458000Y-10510200D01*
X14661200Y-10038401D02*
X14701200Y-10078401D01*
X14701200Y-10038401D02*
X14661200Y-10078401D01*
X14712000Y-10825800D02*
X14752000Y-10865800D01*
X14752000Y-10825800D02*
X14712000Y-10865800D01*
X14714604Y-9461519D02*
X14754604Y-9501519D01*
X14754604Y-9461519D02*
X14714604Y-9501519D01*
X14788200Y-10597200D02*
X14828200Y-10637200D01*
X14828200Y-10597200D02*
X14788200Y-10637200D01*
X14864403Y-9276400D02*
X14904403Y-9316400D01*
X14904403Y-9276400D02*
X14864403Y-9316400D01*
X14889800Y-10749600D02*
X14929800Y-10789600D01*
X14929800Y-10749600D02*
X14889800Y-10789600D01*
X14966000Y-11410000D02*
X15006000Y-11450000D01*
X15006000Y-11410000D02*
X14966000Y-11450000D01*
X15093000Y-12070400D02*
X15133000Y-12110400D01*
X15133000Y-12070400D02*
X15093000Y-12110400D01*
X15118400Y-9125301D02*
X15158400Y-9165301D01*
X15158400Y-9125301D02*
X15118400Y-9165301D01*
X15218306Y-11702888D02*
X15258306Y-11742888D01*
X15258306Y-11702888D02*
X15218306Y-11742888D01*
X15270800Y-12070400D02*
X15310800Y-12110400D01*
X15310800Y-12070400D02*
X15270800Y-12110400D01*
X15295697Y-11790277D02*
X15335697Y-11830277D01*
X15335697Y-11790277D02*
X15295697Y-11830277D01*
X15352824Y-11872354D02*
X15392824Y-11912354D01*
X15392824Y-11872354D02*
X15352824Y-11912354D01*
X15423200Y-11943400D02*
X15463200Y-11983400D01*
X15463200Y-11943400D02*
X15423200Y-11983400D01*
X15448600Y-11511600D02*
X15488600Y-11551600D01*
X15488600Y-11511600D02*
X15448600Y-11551600D01*
X15515692Y-10610856D02*
X15555692Y-10650856D01*
X15555692Y-10610856D02*
X15515692Y-10650856D01*
X15575600Y-12172000D02*
X15615600Y-12212000D01*
X15615600Y-12172000D02*
X15575600Y-12212000D01*
X15677200Y-7473000D02*
X15717200Y-7513000D01*
X15717200Y-7473000D02*
X15677200Y-7513000D01*
X15804200Y-9860600D02*
X15844200Y-9900600D01*
X15844200Y-9860600D02*
X15804200Y-9900600D01*
X16032800Y-7422200D02*
X16072800Y-7462200D01*
X16072800Y-7422200D02*
X16032800Y-7462200D01*
X16032800Y-8488458D02*
X16072800Y-8528458D01*
X16072800Y-8488458D02*
X16032800Y-8528458D01*
X16134400Y-10444800D02*
X16174400Y-10484800D01*
X16174400Y-10444800D02*
X16134400Y-10484800D01*
X16520153Y-8842845D02*
X16560153Y-8882845D01*
X16560153Y-8842845D02*
X16520153Y-8882845D01*
X16648327Y-8538459D02*
X16688327Y-8578459D01*
X16688327Y-8538459D02*
X16648327Y-8578459D01*
X16693200Y-11841800D02*
X16733200Y-11881800D01*
X16733200Y-11841800D02*
X16693200Y-11881800D01*
X16693200Y-12197400D02*
X16733200Y-12237400D01*
X16733200Y-12197400D02*
X16693200Y-12237400D01*
X16744000Y-8692200D02*
X16784000Y-8732200D01*
X16784000Y-8692200D02*
X16744000Y-8732200D01*
X16744000Y-9454200D02*
X16784000Y-9494200D01*
X16784000Y-9454200D02*
X16744000Y-9494200D01*
X16896400Y-8235000D02*
X16936400Y-8275000D01*
X16936400Y-8235000D02*
X16896400Y-8275000D01*
X17023400Y-8463600D02*
X17063400Y-8503600D01*
X17063400Y-8463600D02*
X17023400Y-8503600D01*
X17070895Y-8916102D02*
X17110895Y-8956102D01*
X17110895Y-8916102D02*
X17070895Y-8956102D01*
X17125000Y-12222800D02*
X17165000Y-12262800D01*
X17165000Y-12222800D02*
X17125000Y-12262800D01*
X17150401Y-8539800D02*
X17190401Y-8579800D01*
X17190401Y-8539800D02*
X17150401Y-8579800D01*
X17227799Y-10815461D02*
X17267799Y-10855461D01*
X17267799Y-10815461D02*
X17227799Y-10855461D01*
X17276180Y-8310629D02*
X17316180Y-8350629D01*
X17316180Y-8310629D02*
X17276180Y-8350629D01*
X17531400Y-8692200D02*
X17571400Y-8732200D01*
X17571400Y-8692200D02*
X17531400Y-8732200D01*
X17604027Y-9783201D02*
X17644027Y-9823201D01*
X17644027Y-9783201D02*
X17604027Y-9823201D01*
X17633000Y-10902000D02*
X17673000Y-10942000D01*
X17673000Y-10902000D02*
X17633000Y-10942000D01*
X17887000Y-12197400D02*
X17927000Y-12237400D01*
X17927000Y-12197400D02*
X17887000Y-12237400D01*
X17973666Y-10455266D02*
X18013666Y-10495266D01*
X18013666Y-10455266D02*
X17973666Y-10495266D01*
X18014000Y-7828600D02*
X18054000Y-7868600D01*
X18054000Y-7828600D02*
X18014000Y-7868600D01*
X18109772Y-11882982D02*
X18149772Y-11922982D01*
X18149772Y-11882982D02*
X18109772Y-11922982D01*
X18109772Y-12017056D02*
X18149772Y-12057056D01*
X18149772Y-12017056D02*
X18109772Y-12057056D01*
X19004600Y-8971600D02*
X19044600Y-9011600D01*
X19044600Y-8971600D02*
X19004600Y-9011600D01*
X17383200Y-10058400D02*
G75*
G03X17383200Y-10058400I-35000J0D01*
G01*
X17891200Y-10058400D02*
G75*
G03X17891200Y-10058400I-35000J0D01*
G01*
X14436800Y-7518400D02*
G75*
G03X14436800Y-7518400I-35000J0D01*
G01*
X14436800Y-8026400D02*
G75*
G03X14436800Y-8026400I-35000J0D01*
G01*
X14665400Y-7518400D02*
G75*
G03X14665400Y-7518400I-35000J0D01*
G01*
X14665400Y-8026400D02*
G75*
G03X14665400Y-8026400I-35000J0D01*
G01*
X13751000Y-7518400D02*
G75*
G03X13751000Y-7518400I-35000J0D01*
G01*
X13751000Y-8026400D02*
G75*
G03X13751000Y-8026400I-35000J0D01*
G01*
X16926000Y-7518400D02*
G75*
G03X16926000Y-7518400I-35000J0D01*
G01*
X16926000Y-8026400D02*
G75*
G03X16926000Y-8026400I-35000J0D01*
G01*
X11465000Y-7366000D02*
G75*
G03X11465000Y-7366000I-35000J0D01*
G01*
X11465000Y-7874000D02*
G75*
G03X11465000Y-7874000I-35000J0D01*
G01*
X14208200Y-7518400D02*
G75*
G03X14208200Y-7518400I-35000J0D01*
G01*
X14208200Y-8026400D02*
G75*
G03X14208200Y-8026400I-35000J0D01*
G01*
X17611800Y-7518400D02*
G75*
G03X17611800Y-7518400I-35000J0D01*
G01*
X17611800Y-8026400D02*
G75*
G03X17611800Y-8026400I-35000J0D01*
G01*
X12989000Y-7518400D02*
G75*
G03X12989000Y-7518400I-35000J0D01*
G01*
X12989000Y-8026400D02*
G75*
G03X12989000Y-8026400I-35000J0D01*
G01*
X13497000Y-7518400D02*
G75*
G03X13497000Y-7518400I-35000J0D01*
G01*
X13497000Y-8026400D02*
G75*
G03X13497000Y-8026400I-35000J0D01*
G01*
X13979600Y-7518400D02*
G75*
G03X13979600Y-7518400I-35000J0D01*
G01*
X13979600Y-8026400D02*
G75*
G03X13979600Y-8026400I-35000J0D01*
G01*
X12735000Y-7518400D02*
G75*
G03X12735000Y-7518400I-35000J0D01*
G01*
X12735000Y-8026400D02*
G75*
G03X12735000Y-8026400I-35000J0D01*
G01*
X17154600Y-7518400D02*
G75*
G03X17154600Y-7518400I-35000J0D01*
G01*
X17154600Y-8026400D02*
G75*
G03X17154600Y-8026400I-35000J0D01*
G01*
X17383200Y-10515600D02*
G75*
G03X17383200Y-10515600I-35000J0D01*
G01*
X17891200Y-10515600D02*
G75*
G03X17891200Y-10515600I-35000J0D01*
G01*
X13243000Y-7518400D02*
G75*
G03X13243000Y-7518400I-35000J0D01*
G01*
X13243000Y-8026400D02*
G75*
G03X13243000Y-8026400I-35000J0D01*
G01*
X11973000Y-7366000D02*
G75*
G03X11973000Y-7366000I-35000J0D01*
G01*
X11973000Y-7874000D02*
G75*
G03X11973000Y-7874000I-35000J0D01*
G01*
X17383200Y-10287000D02*
G75*
G03X17383200Y-10287000I-35000J0D01*
G01*
X17891200Y-10287000D02*
G75*
G03X17891200Y-10287000I-35000J0D01*
G01*
X10957000Y-7366000D02*
G75*
G03X10957000Y-7366000I-35000J0D01*
G01*
X10957000Y-7874000D02*
G75*
G03X10957000Y-7874000I-35000J0D01*
G01*
X17383200Y-7518400D02*
G75*
G03X17383200Y-7518400I-35000J0D01*
G01*
X17383200Y-8026400D02*
G75*
G03X17383200Y-8026400I-35000J0D01*
G01*
X10240200Y-8519800D02*
X10240200Y-8599800D01*
X10200200Y-8559800D02*
X10280200Y-8559800D01*
X10490200Y-8519800D02*
X10490200Y-8599800D01*
X10450200Y-8559800D02*
X10530200Y-8559800D01*
X10769600Y-8977000D02*
X10769600Y-9057000D01*
X10729600Y-9017000D02*
X10809600Y-9017000D01*
X10769600Y-9227000D02*
X10769600Y-9307000D01*
X10729600Y-9267000D02*
X10809600Y-9267000D01*
X12446000Y-9006400D02*
X12446000Y-9086400D01*
X12406000Y-9046400D02*
X12486000Y-9046400D01*
X12446000Y-9256400D02*
X12446000Y-9336400D01*
X12406000Y-9296400D02*
X12486000Y-9296400D01*
X11125200Y-8367400D02*
X11125200Y-8447400D01*
X11085200Y-8407400D02*
X11165200Y-8407400D01*
X11375200Y-8367400D02*
X11375200Y-8447400D01*
X11335200Y-8407400D02*
X11415200Y-8407400D01*
X11738800Y-10069200D02*
X11738800Y-10149200D01*
X11698800Y-10109200D02*
X11778800Y-10109200D01*
X11988800Y-10069200D02*
X11988800Y-10149200D01*
X11948800Y-10109200D02*
X12028800Y-10109200D01*
X9910000Y-10475600D02*
X9910000Y-10555600D01*
X9870000Y-10515600D02*
X9950000Y-10515600D01*
X10160000Y-10475600D02*
X10160000Y-10555600D01*
X10120000Y-10515600D02*
X10200000Y-10515600D01*
X10236200Y-8748400D02*
X10236200Y-8828400D01*
X10196200Y-8788400D02*
X10276200Y-8788400D01*
X10486200Y-8748400D02*
X10486200Y-8828400D01*
X10446200Y-8788400D02*
X10526200Y-8788400D01*
X10896600Y-11216200D02*
X10896600Y-11296200D01*
X10856600Y-11256200D02*
X10936600Y-11256200D01*
X10896600Y-11466200D02*
X10896600Y-11546200D01*
X10856600Y-11506200D02*
X10936600Y-11506200D01*
X9702800Y-8519800D02*
X9702800Y-8599800D01*
X9662800Y-8559800D02*
X9742800Y-8559800D01*
X9952800Y-8519800D02*
X9952800Y-8599800D01*
X9912800Y-8559800D02*
X9992800Y-8559800D01*
X9702800Y-8748400D02*
X9702800Y-8828400D01*
X9662800Y-8788400D02*
X9742800Y-8788400D01*
X9952800Y-8748400D02*
X9952800Y-8828400D01*
X9912800Y-8788400D02*
X9992800Y-8788400D01*
X16967200Y-10704200D02*
X16967200Y-10784200D01*
X16927200Y-10744200D02*
X17007200Y-10744200D01*
X16967200Y-10954200D02*
X16967200Y-11034200D01*
X16927200Y-10994200D02*
X17007200Y-10994200D01*
X16484600Y-7634800D02*
X16484600Y-7714800D01*
X16444600Y-7674800D02*
X16524600Y-7674800D01*
X16484600Y-7884800D02*
X16484600Y-7964800D01*
X16444600Y-7924800D02*
X16524600Y-7924800D01*
X10896600Y-10733600D02*
X10896600Y-10813600D01*
X10856600Y-10773600D02*
X10936600Y-10773600D01*
X10896600Y-10983600D02*
X10896600Y-11063600D01*
X10856600Y-11023600D02*
X10936600Y-11023600D01*
X11334820Y-7067620D02*
X11334820Y-7003980D01*
X11271180Y-7003980D01*
X11271180Y-7067620D01*
X11334820Y-7067620D01*
X11588820Y-7067620D02*
X11588820Y-7003980D01*
X11525180Y-7003980D01*
X11525180Y-7067620D01*
X11588820Y-7067620D01*
X10826820Y-7067620D02*
X10826820Y-7003980D01*
X10763180Y-7003980D01*
X10763180Y-7067620D01*
X10826820Y-7067620D01*
X11080820Y-7067620D02*
X11080820Y-7003980D01*
X11017180Y-7003980D01*
X11017180Y-7067620D01*
X11080820Y-7067620D01*
X11842820Y-7067620D02*
X11842820Y-7003980D01*
X11779180Y-7003980D01*
X11779180Y-7067620D01*
X11842820Y-7067620D01*
X12096820Y-7067620D02*
X12096820Y-7003980D01*
X12033180Y-7003980D01*
X12033180Y-7067620D01*
X12096820Y-7067620D01*
X18440400Y-8457400D02*
X18490400Y-8407400D01*
X18440400Y-8357400D01*
X18390400Y-8407400D01*
X18440400Y-8457400D01*
X18440400Y-8711400D02*
X18490400Y-8661400D01*
X18440400Y-8611400D01*
X18390400Y-8661400D01*
X18440400Y-8711400D01*
X18440400Y-8965400D02*
X18490400Y-8915400D01*
X18440400Y-8865400D01*
X18390400Y-8915400D01*
X18440400Y-8965400D01*
X18440400Y-9219400D02*
X18490400Y-9169400D01*
X18440400Y-9119400D01*
X18390400Y-9169400D01*
X18440400Y-9219400D01*
X18440400Y-9473400D02*
X18490400Y-9423400D01*
X18440400Y-9373400D01*
X18390400Y-9423400D01*
X18440400Y-9473400D01*
X18440400Y-9727400D02*
X18490400Y-9677400D01*
X18440400Y-9627400D01*
X18390400Y-9677400D01*
X18440400Y-9727400D01*
X18694400Y-8457400D02*
X18744400Y-8407400D01*
X18694400Y-8357400D01*
X18644400Y-8407400D01*
X18694400Y-8457400D01*
X18694400Y-8711400D02*
X18744400Y-8661400D01*
X18694400Y-8611400D01*
X18644400Y-8661400D01*
X18694400Y-8711400D01*
X18694400Y-8965400D02*
X18744400Y-8915400D01*
X18694400Y-8865400D01*
X18644400Y-8915400D01*
X18694400Y-8965400D01*
X18694400Y-9219400D02*
X18744400Y-9169400D01*
X18694400Y-9119400D01*
X18644400Y-9169400D01*
X18694400Y-9219400D01*
X18694400Y-9473400D02*
X18744400Y-9423400D01*
X18694400Y-9373400D01*
X18644400Y-9423400D01*
X18694400Y-9473400D01*
X18694400Y-9727400D02*
X18744400Y-9677400D01*
X18694400Y-9627400D01*
X18644400Y-9677400D01*
X18694400Y-9727400D01*
X12700000Y-7035000D02*
X12750000Y-6985000D01*
X12700000Y-6935000D01*
X12650000Y-6985000D01*
X12700000Y-7035000D01*
X12700000Y-7289000D02*
X12750000Y-7239000D01*
X12700000Y-7189000D01*
X12650000Y-7239000D01*
X12700000Y-7289000D01*
X12954000Y-7035000D02*
X13004000Y-6985000D01*
X12954000Y-6935000D01*
X12904000Y-6985000D01*
X12954000Y-7035000D01*
X12954000Y-7289000D02*
X13004000Y-7239000D01*
X12954000Y-7189000D01*
X12904000Y-7239000D01*
X12954000Y-7289000D01*
X13208000Y-7035000D02*
X13258000Y-6985000D01*
X13208000Y-6935000D01*
X13158000Y-6985000D01*
X13208000Y-7035000D01*
X13208000Y-7289000D02*
X13258000Y-7239000D01*
X13208000Y-7189000D01*
X13158000Y-7239000D01*
X13208000Y-7289000D01*
X13462000Y-7035000D02*
X13512000Y-6985000D01*
X13462000Y-6935000D01*
X13412000Y-6985000D01*
X13462000Y-7035000D01*
X13462000Y-7289000D02*
X13512000Y-7239000D01*
X13462000Y-7189000D01*
X13412000Y-7239000D01*
X13462000Y-7289000D01*
X13716000Y-7035000D02*
X13766000Y-6985000D01*
X13716000Y-6935000D01*
X13666000Y-6985000D01*
X13716000Y-7035000D01*
X13716000Y-7289000D02*
X13766000Y-7239000D01*
X13716000Y-7189000D01*
X13666000Y-7239000D01*
X13716000Y-7289000D01*
X13970000Y-7035000D02*
X14020000Y-6985000D01*
X13970000Y-6935000D01*
X13920000Y-6985000D01*
X13970000Y-7035000D01*
X13970000Y-7289000D02*
X14020000Y-7239000D01*
X13970000Y-7189000D01*
X13920000Y-7239000D01*
X13970000Y-7289000D01*
X14224000Y-7035000D02*
X14274000Y-6985000D01*
X14224000Y-6935000D01*
X14174000Y-6985000D01*
X14224000Y-7035000D01*
X14224000Y-7289000D02*
X14274000Y-7239000D01*
X14224000Y-7189000D01*
X14174000Y-7239000D01*
X14224000Y-7289000D01*
X14478000Y-7035000D02*
X14528000Y-6985000D01*
X14478000Y-6935000D01*
X14428000Y-6985000D01*
X14478000Y-7035000D01*
X14478000Y-7289000D02*
X14528000Y-7239000D01*
X14478000Y-7189000D01*
X14428000Y-7239000D01*
X14478000Y-7289000D01*
X14732000Y-7035000D02*
X14782000Y-6985000D01*
X14732000Y-6935000D01*
X14682000Y-6985000D01*
X14732000Y-7035000D01*
X14732000Y-7289000D02*
X14782000Y-7239000D01*
X14732000Y-7189000D01*
X14682000Y-7239000D01*
X14732000Y-7289000D01*
X14986000Y-7035000D02*
X15036000Y-6985000D01*
X14986000Y-6935000D01*
X14936000Y-6985000D01*
X14986000Y-7035000D01*
X14986000Y-7289000D02*
X15036000Y-7239000D01*
X14986000Y-7189000D01*
X14936000Y-7239000D01*
X14986000Y-7289000D01*
X15240000Y-7035000D02*
X15290000Y-6985000D01*
X15240000Y-6935000D01*
X15190000Y-6985000D01*
X15240000Y-7035000D01*
X15240000Y-7289000D02*
X15290000Y-7239000D01*
X15240000Y-7189000D01*
X15190000Y-7239000D01*
X15240000Y-7289000D01*
X15494000Y-7035000D02*
X15544000Y-6985000D01*
X15494000Y-6935000D01*
X15444000Y-6985000D01*
X15494000Y-7035000D01*
X15494000Y-7289000D02*
X15544000Y-7239000D01*
X15494000Y-7189000D01*
X15444000Y-7239000D01*
X15494000Y-7289000D01*
X15748000Y-7035000D02*
X15798000Y-6985000D01*
X15748000Y-6935000D01*
X15698000Y-6985000D01*
X15748000Y-7035000D01*
X15748000Y-7289000D02*
X15798000Y-7239000D01*
X15748000Y-7189000D01*
X15698000Y-7239000D01*
X15748000Y-7289000D01*
X16002000Y-7035000D02*
X16052000Y-6985000D01*
X16002000Y-6935000D01*
X15952000Y-6985000D01*
X16002000Y-7035000D01*
X16002000Y-7289000D02*
X16052000Y-7239000D01*
X16002000Y-7189000D01*
X15952000Y-7239000D01*
X16002000Y-7289000D01*
X16256000Y-7035000D02*
X16306000Y-6985000D01*
X16256000Y-6935000D01*
X16206000Y-6985000D01*
X16256000Y-7035000D01*
X16256000Y-7289000D02*
X16306000Y-7239000D01*
X16256000Y-7189000D01*
X16206000Y-7239000D01*
X16256000Y-7289000D01*
X16510000Y-7035000D02*
X16560000Y-6985000D01*
X16510000Y-6935000D01*
X16460000Y-6985000D01*
X16510000Y-7035000D01*
X16510000Y-7289000D02*
X16560000Y-7239000D01*
X16510000Y-7189000D01*
X16460000Y-7239000D01*
X16510000Y-7289000D01*
X16764000Y-7035000D02*
X16814000Y-6985000D01*
X16764000Y-6935000D01*
X16714000Y-6985000D01*
X16764000Y-7035000D01*
X16764000Y-7289000D02*
X16814000Y-7239000D01*
X16764000Y-7189000D01*
X16714000Y-7239000D01*
X16764000Y-7289000D01*
X17018000Y-7035000D02*
X17068000Y-6985000D01*
X17018000Y-6935000D01*
X16968000Y-6985000D01*
X17018000Y-7035000D01*
X17018000Y-7289000D02*
X17068000Y-7239000D01*
X17018000Y-7189000D01*
X16968000Y-7239000D01*
X17018000Y-7289000D01*
X17272000Y-7035000D02*
X17322000Y-6985000D01*
X17272000Y-6935000D01*
X17222000Y-6985000D01*
X17272000Y-7035000D01*
X17272000Y-7289000D02*
X17322000Y-7239000D01*
X17272000Y-7189000D01*
X17222000Y-7239000D01*
X17272000Y-7289000D01*
X17526000Y-7035000D02*
X17576000Y-6985000D01*
X17526000Y-6935000D01*
X17476000Y-6985000D01*
X17526000Y-7035000D01*
X17526000Y-7289000D02*
X17576000Y-7239000D01*
X17526000Y-7189000D01*
X17476000Y-7239000D01*
X17526000Y-7289000D01*
X18440400Y-10108400D02*
X18490400Y-10058400D01*
X18440400Y-10008400D01*
X18390400Y-10058400D01*
X18440400Y-10108400D01*
X18440400Y-10362400D02*
X18490400Y-10312400D01*
X18440400Y-10262400D01*
X18390400Y-10312400D01*
X18440400Y-10362400D01*
X18440400Y-10616400D02*
X18490400Y-10566400D01*
X18440400Y-10516400D01*
X18390400Y-10566400D01*
X18440400Y-10616400D01*
X18440400Y-10870400D02*
X18490400Y-10820400D01*
X18440400Y-10770400D01*
X18390400Y-10820400D01*
X18440400Y-10870400D01*
X18440400Y-11124400D02*
X18490400Y-11074400D01*
X18440400Y-11024400D01*
X18390400Y-11074400D01*
X18440400Y-11124400D01*
X18440400Y-11378400D02*
X18490400Y-11328400D01*
X18440400Y-11278400D01*
X18390400Y-11328400D01*
X18440400Y-11378400D01*
X18440400Y-11632400D02*
X18490400Y-11582400D01*
X18440400Y-11532400D01*
X18390400Y-11582400D01*
X18440400Y-11632400D01*
X18694400Y-10108400D02*
X18744400Y-10058400D01*
X18694400Y-10008400D01*
X18644400Y-10058400D01*
X18694400Y-10108400D01*
X18694400Y-10362400D02*
X18744400Y-10312400D01*
X18694400Y-10262400D01*
X18644400Y-10312400D01*
X18694400Y-10362400D01*
X18694400Y-10616400D02*
X18744400Y-10566400D01*
X18694400Y-10516400D01*
X18644400Y-10566400D01*
X18694400Y-10616400D01*
X18694400Y-10870400D02*
X18744400Y-10820400D01*
X18694400Y-10770400D01*
X18644400Y-10820400D01*
X18694400Y-10870400D01*
X18694400Y-11124400D02*
X18744400Y-11074400D01*
X18694400Y-11024400D01*
X18644400Y-11074400D01*
X18694400Y-11124400D01*
X18694400Y-11378400D02*
X18744400Y-11328400D01*
X18694400Y-11278400D01*
X18644400Y-11328400D01*
X18694400Y-11378400D01*
X18694400Y-11632400D02*
X18744400Y-11582400D01*
X18694400Y-11532400D01*
X18644400Y-11582400D01*
X18694400Y-11632400D01*
X18211800Y-7772400D02*
X18313400Y-7874000D01*
X18313400Y-7772400D02*
X18211800Y-7874000D01*
X18313400Y-7823200D02*
G75*
G03X18313400Y-7823200I-50800J0D01*
G01*
X18211800Y-8026400D02*
X18313400Y-8128000D01*
X18313400Y-8026400D02*
X18211800Y-8128000D01*
X18313400Y-8077200D02*
G75*
G03X18313400Y-8077200I-50800J0D01*
G01*
X18465800Y-7772400D02*
X18567400Y-7874000D01*
X18567400Y-7772400D02*
X18465800Y-7874000D01*
X18567400Y-7823200D02*
G75*
G03X18567400Y-7823200I-50800J0D01*
G01*
X18465800Y-8026400D02*
X18567400Y-8128000D01*
X18567400Y-8026400D02*
X18465800Y-8128000D01*
X18567400Y-8077200D02*
G75*
G03X18567400Y-8077200I-50800J0D01*
G01*
X18719800Y-7772400D02*
X18821400Y-7874000D01*
X18821400Y-7772400D02*
X18719800Y-7874000D01*
X18821400Y-7823200D02*
G75*
G03X18821400Y-7823200I-50800J0D01*
G01*
X18719800Y-8026400D02*
X18821400Y-8128000D01*
X18821400Y-8026400D02*
X18719800Y-8128000D01*
X18821400Y-8077200D02*
G75*
G03X18821400Y-8077200I-50800J0D01*
G01*
X18973800Y-7772400D02*
X19075400Y-7874000D01*
X19075400Y-7772400D02*
X18973800Y-7874000D01*
X19075400Y-7823200D02*
G75*
G03X19075400Y-7823200I-50800J0D01*
G01*
X18973800Y-8026400D02*
X19075400Y-8128000D01*
X19075400Y-8026400D02*
X18973800Y-8128000D01*
X19075400Y-8077200D02*
G75*
G03X19075400Y-8077200I-50800J0D01*
G01*
X19227800Y-7772400D02*
X19329400Y-7874000D01*
X19329400Y-7772400D02*
X19227800Y-7874000D01*
X19329400Y-7823200D02*
G75*
G03X19329400Y-7823200I-50800J0D01*
G01*
X19227800Y-8026400D02*
X19329400Y-8128000D01*
X19329400Y-8026400D02*
X19227800Y-8128000D01*
X19329400Y-8077200D02*
G75*
G03X19329400Y-8077200I-50800J0D01*
G01*
X9601000Y-7533200D02*
X9711000Y-7643200D01*
X9711000Y-7533200D02*
X9601000Y-7643200D01*
X9656000Y-7533200D02*
X9656000Y-7643200D01*
X9601000Y-7588200D02*
X9711000Y-7588200D01*
X9851000Y-7133200D02*
X9961000Y-7243200D01*
X9961000Y-7133200D02*
X9851000Y-7243200D01*
X9906000Y-7133200D02*
X9906000Y-7243200D01*
X9851000Y-7188200D02*
X9961000Y-7188200D01*
X10261000Y-7733200D02*
X10371000Y-7843200D01*
X10371000Y-7733200D02*
X10261000Y-7843200D01*
X10316000Y-7733200D02*
X10316000Y-7843200D01*
X10261000Y-7788200D02*
X10371000Y-7788200D01*
X13279120Y-9570720D02*
X13390880Y-9682480D01*
X13390880Y-9570720D02*
X13279120Y-9682480D01*
X13374513Y-9666114D02*
X13374513Y-9587087D01*
X13295486Y-9587087D01*
X13295486Y-9666114D01*
X13374513Y-9666114D01*
X13279120Y-11094720D02*
X13390880Y-11206480D01*
X13390880Y-11094720D02*
X13279120Y-11206480D01*
X13374513Y-11190113D02*
X13374513Y-11111087D01*
X13295486Y-11111087D01*
X13295486Y-11190113D01*
X13374513Y-11190113D01*
X13533120Y-9570720D02*
X13644880Y-9682480D01*
X13644880Y-9570720D02*
X13533120Y-9682480D01*
X13628513Y-9666114D02*
X13628513Y-9587087D01*
X13549486Y-9587087D01*
X13549486Y-9666114D01*
X13628513Y-9666114D01*
X13533120Y-11094720D02*
X13644880Y-11206480D01*
X13644880Y-11094720D02*
X13533120Y-11206480D01*
X13628513Y-11190113D02*
X13628513Y-11111087D01*
X13549486Y-11111087D01*
X13549486Y-11190113D01*
X13628513Y-11190113D01*
X13787120Y-9570720D02*
X13898880Y-9682480D01*
X13898880Y-9570720D02*
X13787120Y-9682480D01*
X13882513Y-9666114D02*
X13882513Y-9587087D01*
X13803486Y-9587087D01*
X13803486Y-9666114D01*
X13882513Y-9666114D01*
X13787120Y-11094720D02*
X13898880Y-11206480D01*
X13898880Y-11094720D02*
X13787120Y-11206480D01*
X13882513Y-11190113D02*
X13882513Y-11111087D01*
X13803486Y-11111087D01*
X13803486Y-11190113D01*
X13882513Y-11190113D01*
X14041120Y-9570720D02*
X14152880Y-9682480D01*
X14152880Y-9570720D02*
X14041120Y-9682480D01*
X14136513Y-9666114D02*
X14136513Y-9587087D01*
X14057486Y-9587087D01*
X14057486Y-9666114D01*
X14136513Y-9666114D01*
X14041120Y-11094720D02*
X14152880Y-11206480D01*
X14152880Y-11094720D02*
X14041120Y-11206480D01*
X14136513Y-11190113D02*
X14136513Y-11111087D01*
X14057486Y-11111087D01*
X14057486Y-11190113D01*
X14136513Y-11190113D01*
X14295120Y-9570720D02*
X14406880Y-9682480D01*
X14406880Y-9570720D02*
X14295120Y-9682480D01*
X14390513Y-9666114D02*
X14390513Y-9587087D01*
X14311486Y-9587087D01*
X14311486Y-9666114D01*
X14390513Y-9666114D01*
X14295120Y-11094720D02*
X14406880Y-11206480D01*
X14406880Y-11094720D02*
X14295120Y-11206480D01*
X14390513Y-11190113D02*
X14390513Y-11111087D01*
X14311486Y-11111087D01*
X14311486Y-11190113D01*
X14390513Y-11190113D01*
X14549120Y-9570720D02*
X14660880Y-9682480D01*
X14660880Y-9570720D02*
X14549120Y-9682480D01*
X14644513Y-9666114D02*
X14644513Y-9587087D01*
X14565486Y-9587087D01*
X14565486Y-9666114D01*
X14644513Y-9666114D01*
X14549120Y-11094720D02*
X14660880Y-11206480D01*
X14660880Y-11094720D02*
X14549120Y-11206480D01*
X14644513Y-11190113D02*
X14644513Y-11111087D01*
X14565486Y-11111087D01*
X14565486Y-11190113D01*
X14644513Y-11190113D01*
X14803120Y-9570720D02*
X14914880Y-9682480D01*
X14914880Y-9570720D02*
X14803120Y-9682480D01*
X14898513Y-9666114D02*
X14898513Y-9587087D01*
X14819486Y-9587087D01*
X14819486Y-9666114D01*
X14898513Y-9666114D01*
X14803120Y-11094720D02*
X14914880Y-11206480D01*
X14914880Y-11094720D02*
X14803120Y-11206480D01*
X14898513Y-11190113D02*
X14898513Y-11111087D01*
X14819486Y-11111087D01*
X14819486Y-11190113D01*
X14898513Y-11190113D01*
X15057120Y-9570720D02*
X15168880Y-9682480D01*
X15168880Y-9570720D02*
X15057120Y-9682480D01*
X15152513Y-9666114D02*
X15152513Y-9587087D01*
X15073486Y-9587087D01*
X15073486Y-9666114D01*
X15152513Y-9666114D01*
X15057120Y-11094720D02*
X15168880Y-11206480D01*
X15168880Y-11094720D02*
X15057120Y-11206480D01*
X15152513Y-11190113D02*
X15152513Y-11111087D01*
X15073486Y-11111087D01*
X15073486Y-11190113D01*
X15152513Y-11190113D01*
X15311120Y-9570720D02*
X15422880Y-9682480D01*
X15422880Y-9570720D02*
X15311120Y-9682480D01*
X15406513Y-9666114D02*
X15406513Y-9587087D01*
X15327486Y-9587087D01*
X15327486Y-9666114D01*
X15406513Y-9666114D01*
X15311120Y-11094720D02*
X15422880Y-11206480D01*
X15422880Y-11094720D02*
X15311120Y-11206480D01*
X15406513Y-11190113D02*
X15406513Y-11111087D01*
X15327486Y-11111087D01*
X15327486Y-11190113D01*
X15406513Y-11190113D01*
X15565120Y-9570720D02*
X15676880Y-9682480D01*
X15676880Y-9570720D02*
X15565120Y-9682480D01*
X15660513Y-9666114D02*
X15660513Y-9587087D01*
X15581486Y-9587087D01*
X15581486Y-9666114D01*
X15660513Y-9666114D01*
X15565120Y-11094720D02*
X15676880Y-11206480D01*
X15676880Y-11094720D02*
X15565120Y-11206480D01*
X15660513Y-11190113D02*
X15660513Y-11111087D01*
X15581486Y-11111087D01*
X15581486Y-11190113D01*
X15660513Y-11190113D01*
X15819120Y-9570720D02*
X15930880Y-9682480D01*
X15930880Y-9570720D02*
X15819120Y-9682480D01*
X15914513Y-9666114D02*
X15914513Y-9587087D01*
X15835486Y-9587087D01*
X15835486Y-9666114D01*
X15914513Y-9666114D01*
X15819120Y-11094720D02*
X15930880Y-11206480D01*
X15930880Y-11094720D02*
X15819120Y-11206480D01*
X15914513Y-11190113D02*
X15914513Y-11111087D01*
X15835486Y-11111087D01*
X15835486Y-11190113D01*
X15914513Y-11190113D01*
X16073120Y-9570720D02*
X16184880Y-9682480D01*
X16184880Y-9570720D02*
X16073120Y-9682480D01*
X16168513Y-9666114D02*
X16168513Y-9587087D01*
X16089486Y-9587087D01*
X16089486Y-9666114D01*
X16168513Y-9666114D01*
X16073120Y-11094720D02*
X16184880Y-11206480D01*
X16184880Y-11094720D02*
X16073120Y-11206480D01*
X16168513Y-11190113D02*
X16168513Y-11111087D01*
X16089486Y-11111087D01*
X16089486Y-11190113D01*
X16168513Y-11190113D01*
X16327120Y-9570720D02*
X16438880Y-9682480D01*
X16438880Y-9570720D02*
X16327120Y-9682480D01*
X16422513Y-9666114D02*
X16422513Y-9587087D01*
X16343486Y-9587087D01*
X16343486Y-9666114D01*
X16422513Y-9666114D01*
X16327120Y-11094720D02*
X16438880Y-11206480D01*
X16438880Y-11094720D02*
X16327120Y-11206480D01*
X16422513Y-11190113D02*
X16422513Y-11111087D01*
X16343486Y-11111087D01*
X16343486Y-11190113D01*
X16422513Y-11190113D01*
X16581120Y-9570720D02*
X16692880Y-9682480D01*
X16692880Y-9570720D02*
X16581120Y-9682480D01*
X16676513Y-9666114D02*
X16676513Y-9587087D01*
X16597486Y-9587087D01*
X16597486Y-9666114D01*
X16676513Y-9666114D01*
X16581120Y-11094720D02*
X16692880Y-11206480D01*
X16692880Y-11094720D02*
X16581120Y-11206480D01*
X16676513Y-11190113D02*
X16676513Y-11111087D01*
X16597486Y-11111087D01*
X16597486Y-11190113D01*
X16676513Y-11190113D01*
D12*
X9758128Y-13752414D02*
X9758128Y-13452414D01*
X9829557Y-13452414D01*
X9872414Y-13466700D01*
X9900986Y-13495271D01*
X9915271Y-13523843D01*
X9929557Y-13580986D01*
X9929557Y-13623843D01*
X9915271Y-13680986D01*
X9900986Y-13709557D01*
X9872414Y-13738129D01*
X9829557Y-13752414D01*
X9758128Y-13752414D01*
X10058128Y-13752414D02*
X10058128Y-13552414D01*
X10058128Y-13609557D02*
X10072414Y-13580986D01*
X10086700Y-13566700D01*
X10115271Y-13552414D01*
X10143843Y-13552414D01*
X10243843Y-13752414D02*
X10243843Y-13552414D01*
X10243843Y-13452414D02*
X10229557Y-13466700D01*
X10243843Y-13480986D01*
X10258128Y-13466700D01*
X10243843Y-13452414D01*
X10243843Y-13480986D01*
X10429557Y-13752414D02*
X10400986Y-13738129D01*
X10386700Y-13709557D01*
X10386700Y-13452414D01*
X10586700Y-13752414D02*
X10558128Y-13738129D01*
X10543843Y-13709557D01*
X10543843Y-13452414D01*
X10929557Y-13752414D02*
X10929557Y-13452414D01*
X11029557Y-13666700D01*
X11129557Y-13452414D01*
X11129557Y-13752414D01*
X11400986Y-13752414D02*
X11400986Y-13595271D01*
X11386700Y-13566700D01*
X11358128Y-13552414D01*
X11300986Y-13552414D01*
X11272414Y-13566700D01*
X11400986Y-13738129D02*
X11372414Y-13752414D01*
X11300986Y-13752414D01*
X11272414Y-13738129D01*
X11258128Y-13709557D01*
X11258128Y-13680986D01*
X11272414Y-13652414D01*
X11300986Y-13638129D01*
X11372414Y-13638129D01*
X11400986Y-13623843D01*
X11543843Y-13552414D02*
X11543843Y-13852414D01*
X11543843Y-13566700D02*
X11572414Y-13552414D01*
X11629557Y-13552414D01*
X11658128Y-13566700D01*
X11672414Y-13580986D01*
X11686700Y-13609557D01*
X11686700Y-13695271D01*
X11672414Y-13723843D01*
X11658128Y-13738129D01*
X11629557Y-13752414D01*
X11572414Y-13752414D01*
X11543843Y-13738129D01*
X11815271Y-13723843D02*
X11829557Y-13738129D01*
X11815271Y-13752414D01*
X11800986Y-13738129D01*
X11815271Y-13723843D01*
X11815271Y-13752414D01*
X11815271Y-13566700D02*
X11829557Y-13580986D01*
X11815271Y-13595271D01*
X11800986Y-13580986D01*
X11815271Y-13566700D01*
X11815271Y-13595271D01*
X9431700Y-14226700D02*
X9471700Y-14266700D01*
X9471700Y-14226700D02*
X9431700Y-14266700D01*
X9815271Y-14082414D02*
X9843843Y-14082414D01*
X9872414Y-14096700D01*
X9886700Y-14110986D01*
X9900986Y-14139557D01*
X9915271Y-14196700D01*
X9915271Y-14268129D01*
X9900986Y-14325271D01*
X9886700Y-14353843D01*
X9872414Y-14368129D01*
X9843843Y-14382414D01*
X9815271Y-14382414D01*
X9786700Y-14368129D01*
X9772414Y-14353843D01*
X9758128Y-14325271D01*
X9743843Y-14268129D01*
X9743843Y-14196700D01*
X9758128Y-14139557D01*
X9772414Y-14110986D01*
X9786700Y-14096700D01*
X9815271Y-14082414D01*
X10043843Y-14353843D02*
X10058128Y-14368129D01*
X10043843Y-14382414D01*
X10029557Y-14368129D01*
X10043843Y-14353843D01*
X10043843Y-14382414D01*
X10315271Y-14182414D02*
X10315271Y-14382414D01*
X10243843Y-14068129D02*
X10172414Y-14282414D01*
X10358128Y-14282414D01*
X10529557Y-14082414D02*
X10558128Y-14082414D01*
X10586700Y-14096700D01*
X10600986Y-14110986D01*
X10615271Y-14139557D01*
X10629557Y-14196700D01*
X10629557Y-14268129D01*
X10615271Y-14325271D01*
X10600986Y-14353843D01*
X10586700Y-14368129D01*
X10558128Y-14382414D01*
X10529557Y-14382414D01*
X10500986Y-14368129D01*
X10486700Y-14353843D01*
X10472414Y-14325271D01*
X10458128Y-14268129D01*
X10458128Y-14196700D01*
X10472414Y-14139557D01*
X10486700Y-14110986D01*
X10500986Y-14096700D01*
X10529557Y-14082414D01*
X10758128Y-14382414D02*
X10758128Y-14182414D01*
X10758128Y-14210986D02*
X10772414Y-14196700D01*
X10800986Y-14182414D01*
X10843843Y-14182414D01*
X10872414Y-14196700D01*
X10886700Y-14225271D01*
X10886700Y-14382414D01*
X10886700Y-14225271D02*
X10900986Y-14196700D01*
X10929557Y-14182414D01*
X10972414Y-14182414D01*
X11000986Y-14196700D01*
X11015271Y-14225271D01*
X11015271Y-14382414D01*
X11158128Y-14382414D02*
X11158128Y-14182414D01*
X11158128Y-14210986D02*
X11172414Y-14196700D01*
X11200986Y-14182414D01*
X11243843Y-14182414D01*
X11272414Y-14196700D01*
X11286700Y-14225271D01*
X11286700Y-14382414D01*
X11286700Y-14225271D02*
X11300986Y-14196700D01*
X11329557Y-14182414D01*
X11372414Y-14182414D01*
X11400986Y-14196700D01*
X11415271Y-14225271D01*
X11415271Y-14382414D01*
X12000986Y-14068129D02*
X11743843Y-14453843D01*
X12386700Y-14082414D02*
X12415271Y-14082414D01*
X12443843Y-14096700D01*
X12458128Y-14110986D01*
X12472414Y-14139557D01*
X12486700Y-14196700D01*
X12486700Y-14268129D01*
X12472414Y-14325271D01*
X12458128Y-14353843D01*
X12443843Y-14368129D01*
X12415271Y-14382414D01*
X12386700Y-14382414D01*
X12358128Y-14368129D01*
X12343843Y-14353843D01*
X12329557Y-14325271D01*
X12315271Y-14268129D01*
X12315271Y-14196700D01*
X12329557Y-14139557D01*
X12343843Y-14110986D01*
X12358128Y-14096700D01*
X12386700Y-14082414D01*
X12615271Y-14353843D02*
X12629557Y-14368129D01*
X12615271Y-14382414D01*
X12600986Y-14368129D01*
X12615271Y-14353843D01*
X12615271Y-14382414D01*
X12815271Y-14082414D02*
X12843843Y-14082414D01*
X12872414Y-14096700D01*
X12886700Y-14110986D01*
X12900986Y-14139557D01*
X12915271Y-14196700D01*
X12915271Y-14268129D01*
X12900986Y-14325271D01*
X12886700Y-14353843D01*
X12872414Y-14368129D01*
X12843843Y-14382414D01*
X12815271Y-14382414D01*
X12786700Y-14368129D01*
X12772414Y-14353843D01*
X12758128Y-14325271D01*
X12743843Y-14268129D01*
X12743843Y-14196700D01*
X12758128Y-14139557D01*
X12772414Y-14110986D01*
X12786700Y-14096700D01*
X12815271Y-14082414D01*
X13200986Y-14382414D02*
X13029557Y-14382414D01*
X13115271Y-14382414D02*
X13115271Y-14082414D01*
X13086700Y-14125271D01*
X13058128Y-14153843D01*
X13029557Y-14168129D01*
X13458128Y-14082414D02*
X13400986Y-14082414D01*
X13372414Y-14096700D01*
X13358128Y-14110986D01*
X13329557Y-14153843D01*
X13315271Y-14210986D01*
X13315271Y-14325271D01*
X13329557Y-14353843D01*
X13343843Y-14368129D01*
X13372414Y-14382414D01*
X13429557Y-14382414D01*
X13458128Y-14368129D01*
X13472414Y-14353843D01*
X13486700Y-14325271D01*
X13486700Y-14253843D01*
X13472414Y-14225271D01*
X13458128Y-14210986D01*
X13429557Y-14196700D01*
X13372414Y-14196700D01*
X13343843Y-14210986D01*
X13329557Y-14225271D01*
X13315271Y-14253843D01*
X13600986Y-14082414D02*
X13600986Y-14139557D01*
X13715271Y-14082414D02*
X13715271Y-14139557D01*
X14158128Y-14496700D02*
X14143843Y-14482414D01*
X14115271Y-14439557D01*
X14100986Y-14410986D01*
X14086700Y-14368129D01*
X14072414Y-14296700D01*
X14072414Y-14239557D01*
X14086700Y-14168129D01*
X14100986Y-14125271D01*
X14115271Y-14096700D01*
X14143843Y-14053843D01*
X14158128Y-14039557D01*
X14286700Y-14382414D02*
X14343843Y-14382414D01*
X14372414Y-14368129D01*
X14386700Y-14353843D01*
X14415271Y-14310986D01*
X14429557Y-14253843D01*
X14429557Y-14139557D01*
X14415271Y-14110986D01*
X14400986Y-14096700D01*
X14372414Y-14082414D01*
X14315271Y-14082414D01*
X14286700Y-14096700D01*
X14272414Y-14110986D01*
X14258128Y-14139557D01*
X14258128Y-14210986D01*
X14272414Y-14239557D01*
X14286700Y-14253843D01*
X14315271Y-14268129D01*
X14372414Y-14268129D01*
X14400986Y-14253843D01*
X14415271Y-14239557D01*
X14429557Y-14210986D01*
X14615271Y-14082414D02*
X14643843Y-14082414D01*
X14672414Y-14096700D01*
X14686700Y-14110986D01*
X14700986Y-14139557D01*
X14715271Y-14196700D01*
X14715271Y-14268129D01*
X14700986Y-14325271D01*
X14686700Y-14353843D01*
X14672414Y-14368129D01*
X14643843Y-14382414D01*
X14615271Y-14382414D01*
X14586700Y-14368129D01*
X14572414Y-14353843D01*
X14558128Y-14325271D01*
X14543843Y-14268129D01*
X14543843Y-14196700D01*
X14558128Y-14139557D01*
X14572414Y-14110986D01*
X14586700Y-14096700D01*
X14615271Y-14082414D01*
X15072414Y-14382414D02*
X15072414Y-14082414D01*
X15200986Y-14382414D02*
X15200986Y-14225271D01*
X15186700Y-14196700D01*
X15158128Y-14182414D01*
X15115271Y-14182414D01*
X15086700Y-14196700D01*
X15072414Y-14210986D01*
X15386700Y-14382414D02*
X15358128Y-14368129D01*
X15343843Y-14353843D01*
X15329557Y-14325271D01*
X15329557Y-14239557D01*
X15343843Y-14210986D01*
X15358128Y-14196700D01*
X15386700Y-14182414D01*
X15429557Y-14182414D01*
X15458128Y-14196700D01*
X15472414Y-14210986D01*
X15486700Y-14239557D01*
X15486700Y-14325271D01*
X15472414Y-14353843D01*
X15458128Y-14368129D01*
X15429557Y-14382414D01*
X15386700Y-14382414D01*
X15658128Y-14382414D02*
X15629557Y-14368129D01*
X15615271Y-14339557D01*
X15615271Y-14082414D01*
X15886700Y-14368129D02*
X15858128Y-14382414D01*
X15800986Y-14382414D01*
X15772414Y-14368129D01*
X15758128Y-14339557D01*
X15758128Y-14225271D01*
X15772414Y-14196700D01*
X15800986Y-14182414D01*
X15858128Y-14182414D01*
X15886700Y-14196700D01*
X15900986Y-14225271D01*
X15900986Y-14253843D01*
X15758128Y-14282414D01*
X16015271Y-14368129D02*
X16043843Y-14382414D01*
X16100986Y-14382414D01*
X16129557Y-14368129D01*
X16143843Y-14339557D01*
X16143843Y-14325271D01*
X16129557Y-14296700D01*
X16100986Y-14282414D01*
X16058128Y-14282414D01*
X16029557Y-14268129D01*
X16015271Y-14239557D01*
X16015271Y-14225271D01*
X16029557Y-14196700D01*
X16058128Y-14182414D01*
X16100986Y-14182414D01*
X16129557Y-14196700D01*
X16243843Y-14496700D02*
X16258128Y-14482414D01*
X16286700Y-14439557D01*
X16300986Y-14410986D01*
X16315271Y-14368129D01*
X16329557Y-14296700D01*
X16329557Y-14239557D01*
X16315271Y-14168129D01*
X16300986Y-14125271D01*
X16286700Y-14096700D01*
X16258128Y-14053843D01*
X16243843Y-14039557D01*
X9471700Y-14642700D02*
G75*
G03X9471700Y-14642700I-35000J0D01*
G01*
X9815271Y-14478414D02*
X9843843Y-14478414D01*
X9872414Y-14492700D01*
X9886700Y-14506986D01*
X9900986Y-14535557D01*
X9915271Y-14592700D01*
X9915271Y-14664129D01*
X9900986Y-14721271D01*
X9886700Y-14749843D01*
X9872414Y-14764129D01*
X9843843Y-14778414D01*
X9815271Y-14778414D01*
X9786700Y-14764129D01*
X9772414Y-14749843D01*
X9758128Y-14721271D01*
X9743843Y-14664129D01*
X9743843Y-14592700D01*
X9758128Y-14535557D01*
X9772414Y-14506986D01*
X9786700Y-14492700D01*
X9815271Y-14478414D01*
X10043843Y-14749843D02*
X10058128Y-14764129D01*
X10043843Y-14778414D01*
X10029557Y-14764129D01*
X10043843Y-14749843D01*
X10043843Y-14778414D01*
X10158128Y-14478414D02*
X10358128Y-14478414D01*
X10229557Y-14778414D01*
X10529557Y-14478414D02*
X10558128Y-14478414D01*
X10586700Y-14492700D01*
X10600986Y-14506986D01*
X10615271Y-14535557D01*
X10629557Y-14592700D01*
X10629557Y-14664129D01*
X10615271Y-14721271D01*
X10600986Y-14749843D01*
X10586700Y-14764129D01*
X10558128Y-14778414D01*
X10529557Y-14778414D01*
X10500986Y-14764129D01*
X10486700Y-14749843D01*
X10472414Y-14721271D01*
X10458128Y-14664129D01*
X10458128Y-14592700D01*
X10472414Y-14535557D01*
X10486700Y-14506986D01*
X10500986Y-14492700D01*
X10529557Y-14478414D01*
X10758128Y-14778414D02*
X10758128Y-14578414D01*
X10758128Y-14606986D02*
X10772414Y-14592700D01*
X10800986Y-14578414D01*
X10843843Y-14578414D01*
X10872414Y-14592700D01*
X10886700Y-14621271D01*
X10886700Y-14778414D01*
X10886700Y-14621271D02*
X10900986Y-14592700D01*
X10929557Y-14578414D01*
X10972414Y-14578414D01*
X11000986Y-14592700D01*
X11015271Y-14621271D01*
X11015271Y-14778414D01*
X11158128Y-14778414D02*
X11158128Y-14578414D01*
X11158128Y-14606986D02*
X11172414Y-14592700D01*
X11200986Y-14578414D01*
X11243843Y-14578414D01*
X11272414Y-14592700D01*
X11286700Y-14621271D01*
X11286700Y-14778414D01*
X11286700Y-14621271D02*
X11300986Y-14592700D01*
X11329557Y-14578414D01*
X11372414Y-14578414D01*
X11400986Y-14592700D01*
X11415271Y-14621271D01*
X11415271Y-14778414D01*
X12000986Y-14464129D02*
X11743843Y-14849843D01*
X12386700Y-14478414D02*
X12415271Y-14478414D01*
X12443843Y-14492700D01*
X12458128Y-14506986D01*
X12472414Y-14535557D01*
X12486700Y-14592700D01*
X12486700Y-14664129D01*
X12472414Y-14721271D01*
X12458128Y-14749843D01*
X12443843Y-14764129D01*
X12415271Y-14778414D01*
X12386700Y-14778414D01*
X12358128Y-14764129D01*
X12343843Y-14749843D01*
X12329557Y-14721271D01*
X12315271Y-14664129D01*
X12315271Y-14592700D01*
X12329557Y-14535557D01*
X12343843Y-14506986D01*
X12358128Y-14492700D01*
X12386700Y-14478414D01*
X12615271Y-14749843D02*
X12629557Y-14764129D01*
X12615271Y-14778414D01*
X12600986Y-14764129D01*
X12615271Y-14749843D01*
X12615271Y-14778414D01*
X12815271Y-14478414D02*
X12843843Y-14478414D01*
X12872414Y-14492700D01*
X12886700Y-14506986D01*
X12900986Y-14535557D01*
X12915271Y-14592700D01*
X12915271Y-14664129D01*
X12900986Y-14721271D01*
X12886700Y-14749843D01*
X12872414Y-14764129D01*
X12843843Y-14778414D01*
X12815271Y-14778414D01*
X12786700Y-14764129D01*
X12772414Y-14749843D01*
X12758128Y-14721271D01*
X12743843Y-14664129D01*
X12743843Y-14592700D01*
X12758128Y-14535557D01*
X12772414Y-14506986D01*
X12786700Y-14492700D01*
X12815271Y-14478414D01*
X13029557Y-14506986D02*
X13043843Y-14492700D01*
X13072414Y-14478414D01*
X13143843Y-14478414D01*
X13172414Y-14492700D01*
X13186700Y-14506986D01*
X13200986Y-14535557D01*
X13200986Y-14564129D01*
X13186700Y-14606986D01*
X13015271Y-14778414D01*
X13200986Y-14778414D01*
X13372414Y-14606986D02*
X13343843Y-14592700D01*
X13329557Y-14578414D01*
X13315271Y-14549843D01*
X13315271Y-14535557D01*
X13329557Y-14506986D01*
X13343843Y-14492700D01*
X13372414Y-14478414D01*
X13429557Y-14478414D01*
X13458128Y-14492700D01*
X13472414Y-14506986D01*
X13486700Y-14535557D01*
X13486700Y-14549843D01*
X13472414Y-14578414D01*
X13458128Y-14592700D01*
X13429557Y-14606986D01*
X13372414Y-14606986D01*
X13343843Y-14621271D01*
X13329557Y-14635557D01*
X13315271Y-14664129D01*
X13315271Y-14721271D01*
X13329557Y-14749843D01*
X13343843Y-14764129D01*
X13372414Y-14778414D01*
X13429557Y-14778414D01*
X13458128Y-14764129D01*
X13472414Y-14749843D01*
X13486700Y-14721271D01*
X13486700Y-14664129D01*
X13472414Y-14635557D01*
X13458128Y-14621271D01*
X13429557Y-14606986D01*
X13600986Y-14478414D02*
X13600986Y-14535557D01*
X13715271Y-14478414D02*
X13715271Y-14535557D01*
X14158128Y-14892700D02*
X14143843Y-14878414D01*
X14115271Y-14835557D01*
X14100986Y-14806986D01*
X14086700Y-14764129D01*
X14072414Y-14692700D01*
X14072414Y-14635557D01*
X14086700Y-14564129D01*
X14100986Y-14521271D01*
X14115271Y-14492700D01*
X14143843Y-14449843D01*
X14158128Y-14435557D01*
X14243843Y-14478414D02*
X14429557Y-14478414D01*
X14329557Y-14592700D01*
X14372414Y-14592700D01*
X14400986Y-14606986D01*
X14415271Y-14621271D01*
X14429557Y-14649843D01*
X14429557Y-14721271D01*
X14415271Y-14749843D01*
X14400986Y-14764129D01*
X14372414Y-14778414D01*
X14286700Y-14778414D01*
X14258128Y-14764129D01*
X14243843Y-14749843D01*
X14600986Y-14606986D02*
X14572414Y-14592700D01*
X14558128Y-14578414D01*
X14543843Y-14549843D01*
X14543843Y-14535557D01*
X14558128Y-14506986D01*
X14572414Y-14492700D01*
X14600986Y-14478414D01*
X14658128Y-14478414D01*
X14686700Y-14492700D01*
X14700986Y-14506986D01*
X14715271Y-14535557D01*
X14715271Y-14549843D01*
X14700986Y-14578414D01*
X14686700Y-14592700D01*
X14658128Y-14606986D01*
X14600986Y-14606986D01*
X14572414Y-14621271D01*
X14558128Y-14635557D01*
X14543843Y-14664129D01*
X14543843Y-14721271D01*
X14558128Y-14749843D01*
X14572414Y-14764129D01*
X14600986Y-14778414D01*
X14658128Y-14778414D01*
X14686700Y-14764129D01*
X14700986Y-14749843D01*
X14715271Y-14721271D01*
X14715271Y-14664129D01*
X14700986Y-14635557D01*
X14686700Y-14621271D01*
X14658128Y-14606986D01*
X15072414Y-14778414D02*
X15072414Y-14478414D01*
X15200986Y-14778414D02*
X15200986Y-14621271D01*
X15186700Y-14592700D01*
X15158128Y-14578414D01*
X15115271Y-14578414D01*
X15086700Y-14592700D01*
X15072414Y-14606986D01*
X15386700Y-14778414D02*
X15358128Y-14764129D01*
X15343843Y-14749843D01*
X15329557Y-14721271D01*
X15329557Y-14635557D01*
X15343843Y-14606986D01*
X15358128Y-14592700D01*
X15386700Y-14578414D01*
X15429557Y-14578414D01*
X15458128Y-14592700D01*
X15472414Y-14606986D01*
X15486700Y-14635557D01*
X15486700Y-14721271D01*
X15472414Y-14749843D01*
X15458128Y-14764129D01*
X15429557Y-14778414D01*
X15386700Y-14778414D01*
X15658128Y-14778414D02*
X15629557Y-14764129D01*
X15615271Y-14735557D01*
X15615271Y-14478414D01*
X15886700Y-14764129D02*
X15858128Y-14778414D01*
X15800986Y-14778414D01*
X15772414Y-14764129D01*
X15758128Y-14735557D01*
X15758128Y-14621271D01*
X15772414Y-14592700D01*
X15800986Y-14578414D01*
X15858128Y-14578414D01*
X15886700Y-14592700D01*
X15900986Y-14621271D01*
X15900986Y-14649843D01*
X15758128Y-14678414D01*
X16015271Y-14764129D02*
X16043843Y-14778414D01*
X16100986Y-14778414D01*
X16129557Y-14764129D01*
X16143843Y-14735557D01*
X16143843Y-14721271D01*
X16129557Y-14692700D01*
X16100986Y-14678414D01*
X16058128Y-14678414D01*
X16029557Y-14664129D01*
X16015271Y-14635557D01*
X16015271Y-14621271D01*
X16029557Y-14592700D01*
X16058128Y-14578414D01*
X16100986Y-14578414D01*
X16129557Y-14592700D01*
X16243843Y-14892700D02*
X16258128Y-14878414D01*
X16286700Y-14835557D01*
X16300986Y-14806986D01*
X16315271Y-14764129D01*
X16329557Y-14692700D01*
X16329557Y-14635557D01*
X16315271Y-14564129D01*
X16300986Y-14521271D01*
X16286700Y-14492700D01*
X16258128Y-14449843D01*
X16243843Y-14435557D01*
X9431700Y-14998700D02*
X9431700Y-15078700D01*
X9391700Y-15038700D02*
X9471700Y-15038700D01*
X9815271Y-14874414D02*
X9843843Y-14874414D01*
X9872414Y-14888700D01*
X9886700Y-14902986D01*
X9900986Y-14931557D01*
X9915271Y-14988700D01*
X9915271Y-15060129D01*
X9900986Y-15117271D01*
X9886700Y-15145843D01*
X9872414Y-15160129D01*
X9843843Y-15174414D01*
X9815271Y-15174414D01*
X9786700Y-15160129D01*
X9772414Y-15145843D01*
X9758128Y-15117271D01*
X9743843Y-15060129D01*
X9743843Y-14988700D01*
X9758128Y-14931557D01*
X9772414Y-14902986D01*
X9786700Y-14888700D01*
X9815271Y-14874414D01*
X10043843Y-15145843D02*
X10058128Y-15160129D01*
X10043843Y-15174414D01*
X10029557Y-15160129D01*
X10043843Y-15145843D01*
X10043843Y-15174414D01*
X10229557Y-15002986D02*
X10200986Y-14988700D01*
X10186700Y-14974414D01*
X10172414Y-14945843D01*
X10172414Y-14931557D01*
X10186700Y-14902986D01*
X10200986Y-14888700D01*
X10229557Y-14874414D01*
X10286700Y-14874414D01*
X10315271Y-14888700D01*
X10329557Y-14902986D01*
X10343843Y-14931557D01*
X10343843Y-14945843D01*
X10329557Y-14974414D01*
X10315271Y-14988700D01*
X10286700Y-15002986D01*
X10229557Y-15002986D01*
X10200986Y-15017271D01*
X10186700Y-15031557D01*
X10172414Y-15060129D01*
X10172414Y-15117271D01*
X10186700Y-15145843D01*
X10200986Y-15160129D01*
X10229557Y-15174414D01*
X10286700Y-15174414D01*
X10315271Y-15160129D01*
X10329557Y-15145843D01*
X10343843Y-15117271D01*
X10343843Y-15060129D01*
X10329557Y-15031557D01*
X10315271Y-15017271D01*
X10286700Y-15002986D01*
X10529557Y-14874414D02*
X10558128Y-14874414D01*
X10586700Y-14888700D01*
X10600986Y-14902986D01*
X10615271Y-14931557D01*
X10629557Y-14988700D01*
X10629557Y-15060129D01*
X10615271Y-15117271D01*
X10600986Y-15145843D01*
X10586700Y-15160129D01*
X10558128Y-15174414D01*
X10529557Y-15174414D01*
X10500986Y-15160129D01*
X10486700Y-15145843D01*
X10472414Y-15117271D01*
X10458128Y-15060129D01*
X10458128Y-14988700D01*
X10472414Y-14931557D01*
X10486700Y-14902986D01*
X10500986Y-14888700D01*
X10529557Y-14874414D01*
X10758128Y-15174414D02*
X10758128Y-14974414D01*
X10758128Y-15002986D02*
X10772414Y-14988700D01*
X10800986Y-14974414D01*
X10843843Y-14974414D01*
X10872414Y-14988700D01*
X10886700Y-15017271D01*
X10886700Y-15174414D01*
X10886700Y-15017271D02*
X10900986Y-14988700D01*
X10929557Y-14974414D01*
X10972414Y-14974414D01*
X11000986Y-14988700D01*
X11015271Y-15017271D01*
X11015271Y-15174414D01*
X11158128Y-15174414D02*
X11158128Y-14974414D01*
X11158128Y-15002986D02*
X11172414Y-14988700D01*
X11200986Y-14974414D01*
X11243843Y-14974414D01*
X11272414Y-14988700D01*
X11286700Y-15017271D01*
X11286700Y-15174414D01*
X11286700Y-15017271D02*
X11300986Y-14988700D01*
X11329557Y-14974414D01*
X11372414Y-14974414D01*
X11400986Y-14988700D01*
X11415271Y-15017271D01*
X11415271Y-15174414D01*
X12000986Y-14860129D02*
X11743843Y-15245843D01*
X12386700Y-14874414D02*
X12415271Y-14874414D01*
X12443843Y-14888700D01*
X12458128Y-14902986D01*
X12472414Y-14931557D01*
X12486700Y-14988700D01*
X12486700Y-15060129D01*
X12472414Y-15117271D01*
X12458128Y-15145843D01*
X12443843Y-15160129D01*
X12415271Y-15174414D01*
X12386700Y-15174414D01*
X12358128Y-15160129D01*
X12343843Y-15145843D01*
X12329557Y-15117271D01*
X12315271Y-15060129D01*
X12315271Y-14988700D01*
X12329557Y-14931557D01*
X12343843Y-14902986D01*
X12358128Y-14888700D01*
X12386700Y-14874414D01*
X12615271Y-15145843D02*
X12629557Y-15160129D01*
X12615271Y-15174414D01*
X12600986Y-15160129D01*
X12615271Y-15145843D01*
X12615271Y-15174414D01*
X12815271Y-14874414D02*
X12843843Y-14874414D01*
X12872414Y-14888700D01*
X12886700Y-14902986D01*
X12900986Y-14931557D01*
X12915271Y-14988700D01*
X12915271Y-15060129D01*
X12900986Y-15117271D01*
X12886700Y-15145843D01*
X12872414Y-15160129D01*
X12843843Y-15174414D01*
X12815271Y-15174414D01*
X12786700Y-15160129D01*
X12772414Y-15145843D01*
X12758128Y-15117271D01*
X12743843Y-15060129D01*
X12743843Y-14988700D01*
X12758128Y-14931557D01*
X12772414Y-14902986D01*
X12786700Y-14888700D01*
X12815271Y-14874414D01*
X13015271Y-14874414D02*
X13200986Y-14874414D01*
X13100986Y-14988700D01*
X13143843Y-14988700D01*
X13172414Y-15002986D01*
X13186700Y-15017271D01*
X13200986Y-15045843D01*
X13200986Y-15117271D01*
X13186700Y-15145843D01*
X13172414Y-15160129D01*
X13143843Y-15174414D01*
X13058128Y-15174414D01*
X13029557Y-15160129D01*
X13015271Y-15145843D01*
X13486700Y-15174414D02*
X13315271Y-15174414D01*
X13400986Y-15174414D02*
X13400986Y-14874414D01*
X13372414Y-14917271D01*
X13343843Y-14945843D01*
X13315271Y-14960129D01*
X13600986Y-14874414D02*
X13600986Y-14931557D01*
X13715271Y-14874414D02*
X13715271Y-14931557D01*
X14158128Y-15288700D02*
X14143843Y-15274414D01*
X14115271Y-15231557D01*
X14100986Y-15202986D01*
X14086700Y-15160129D01*
X14072414Y-15088700D01*
X14072414Y-15031557D01*
X14086700Y-14960129D01*
X14100986Y-14917271D01*
X14115271Y-14888700D01*
X14143843Y-14845843D01*
X14158128Y-14831557D01*
X14258128Y-14902986D02*
X14272414Y-14888700D01*
X14300986Y-14874414D01*
X14372414Y-14874414D01*
X14400986Y-14888700D01*
X14415271Y-14902986D01*
X14429557Y-14931557D01*
X14429557Y-14960129D01*
X14415271Y-15002986D01*
X14243843Y-15174414D01*
X14429557Y-15174414D01*
X14686700Y-14874414D02*
X14629557Y-14874414D01*
X14600986Y-14888700D01*
X14586700Y-14902986D01*
X14558128Y-14945843D01*
X14543843Y-15002986D01*
X14543843Y-15117271D01*
X14558128Y-15145843D01*
X14572414Y-15160129D01*
X14600986Y-15174414D01*
X14658128Y-15174414D01*
X14686700Y-15160129D01*
X14700986Y-15145843D01*
X14715271Y-15117271D01*
X14715271Y-15045843D01*
X14700986Y-15017271D01*
X14686700Y-15002986D01*
X14658128Y-14988700D01*
X14600986Y-14988700D01*
X14572414Y-15002986D01*
X14558128Y-15017271D01*
X14543843Y-15045843D01*
X15072414Y-15174414D02*
X15072414Y-14874414D01*
X15200986Y-15174414D02*
X15200986Y-15017271D01*
X15186700Y-14988700D01*
X15158128Y-14974414D01*
X15115271Y-14974414D01*
X15086700Y-14988700D01*
X15072414Y-15002986D01*
X15386700Y-15174414D02*
X15358128Y-15160129D01*
X15343843Y-15145843D01*
X15329557Y-15117271D01*
X15329557Y-15031557D01*
X15343843Y-15002986D01*
X15358128Y-14988700D01*
X15386700Y-14974414D01*
X15429557Y-14974414D01*
X15458128Y-14988700D01*
X15472414Y-15002986D01*
X15486700Y-15031557D01*
X15486700Y-15117271D01*
X15472414Y-15145843D01*
X15458128Y-15160129D01*
X15429557Y-15174414D01*
X15386700Y-15174414D01*
X15658128Y-15174414D02*
X15629557Y-15160129D01*
X15615271Y-15131557D01*
X15615271Y-14874414D01*
X15886700Y-15160129D02*
X15858128Y-15174414D01*
X15800986Y-15174414D01*
X15772414Y-15160129D01*
X15758128Y-15131557D01*
X15758128Y-15017271D01*
X15772414Y-14988700D01*
X15800986Y-14974414D01*
X15858128Y-14974414D01*
X15886700Y-14988700D01*
X15900986Y-15017271D01*
X15900986Y-15045843D01*
X15758128Y-15074414D01*
X16015271Y-15160129D02*
X16043843Y-15174414D01*
X16100986Y-15174414D01*
X16129557Y-15160129D01*
X16143843Y-15131557D01*
X16143843Y-15117271D01*
X16129557Y-15088700D01*
X16100986Y-15074414D01*
X16058128Y-15074414D01*
X16029557Y-15060129D01*
X16015271Y-15031557D01*
X16015271Y-15017271D01*
X16029557Y-14988700D01*
X16058128Y-14974414D01*
X16100986Y-14974414D01*
X16129557Y-14988700D01*
X16243843Y-15288700D02*
X16258128Y-15274414D01*
X16286700Y-15231557D01*
X16300986Y-15202986D01*
X16315271Y-15160129D01*
X16329557Y-15088700D01*
X16329557Y-15031557D01*
X16315271Y-14960129D01*
X16300986Y-14917271D01*
X16286700Y-14888700D01*
X16258128Y-14845843D01*
X16243843Y-14831557D01*
X9458520Y-15466520D02*
X9458520Y-15402880D01*
X9394880Y-15402880D01*
X9394880Y-15466520D01*
X9458520Y-15466520D01*
X9815271Y-15270414D02*
X9843843Y-15270414D01*
X9872414Y-15284700D01*
X9886700Y-15298986D01*
X9900986Y-15327557D01*
X9915271Y-15384700D01*
X9915271Y-15456129D01*
X9900986Y-15513271D01*
X9886700Y-15541843D01*
X9872414Y-15556129D01*
X9843843Y-15570414D01*
X9815271Y-15570414D01*
X9786700Y-15556129D01*
X9772414Y-15541843D01*
X9758128Y-15513271D01*
X9743843Y-15456129D01*
X9743843Y-15384700D01*
X9758128Y-15327557D01*
X9772414Y-15298986D01*
X9786700Y-15284700D01*
X9815271Y-15270414D01*
X10043843Y-15541843D02*
X10058128Y-15556129D01*
X10043843Y-15570414D01*
X10029557Y-15556129D01*
X10043843Y-15541843D01*
X10043843Y-15570414D01*
X10200986Y-15570414D02*
X10258128Y-15570414D01*
X10286700Y-15556129D01*
X10300986Y-15541843D01*
X10329557Y-15498986D01*
X10343843Y-15441843D01*
X10343843Y-15327557D01*
X10329557Y-15298986D01*
X10315271Y-15284700D01*
X10286700Y-15270414D01*
X10229557Y-15270414D01*
X10200986Y-15284700D01*
X10186700Y-15298986D01*
X10172414Y-15327557D01*
X10172414Y-15398986D01*
X10186700Y-15427557D01*
X10200986Y-15441843D01*
X10229557Y-15456129D01*
X10286700Y-15456129D01*
X10315271Y-15441843D01*
X10329557Y-15427557D01*
X10343843Y-15398986D01*
X10529557Y-15270414D02*
X10558128Y-15270414D01*
X10586700Y-15284700D01*
X10600986Y-15298986D01*
X10615271Y-15327557D01*
X10629557Y-15384700D01*
X10629557Y-15456129D01*
X10615271Y-15513271D01*
X10600986Y-15541843D01*
X10586700Y-15556129D01*
X10558128Y-15570414D01*
X10529557Y-15570414D01*
X10500986Y-15556129D01*
X10486700Y-15541843D01*
X10472414Y-15513271D01*
X10458128Y-15456129D01*
X10458128Y-15384700D01*
X10472414Y-15327557D01*
X10486700Y-15298986D01*
X10500986Y-15284700D01*
X10529557Y-15270414D01*
X10758128Y-15570414D02*
X10758128Y-15370414D01*
X10758128Y-15398986D02*
X10772414Y-15384700D01*
X10800986Y-15370414D01*
X10843843Y-15370414D01*
X10872414Y-15384700D01*
X10886700Y-15413271D01*
X10886700Y-15570414D01*
X10886700Y-15413271D02*
X10900986Y-15384700D01*
X10929557Y-15370414D01*
X10972414Y-15370414D01*
X11000986Y-15384700D01*
X11015271Y-15413271D01*
X11015271Y-15570414D01*
X11158128Y-15570414D02*
X11158128Y-15370414D01*
X11158128Y-15398986D02*
X11172414Y-15384700D01*
X11200986Y-15370414D01*
X11243843Y-15370414D01*
X11272414Y-15384700D01*
X11286700Y-15413271D01*
X11286700Y-15570414D01*
X11286700Y-15413271D02*
X11300986Y-15384700D01*
X11329557Y-15370414D01*
X11372414Y-15370414D01*
X11400986Y-15384700D01*
X11415271Y-15413271D01*
X11415271Y-15570414D01*
X12000986Y-15256129D02*
X11743843Y-15641843D01*
X12386700Y-15270414D02*
X12415271Y-15270414D01*
X12443843Y-15284700D01*
X12458128Y-15298986D01*
X12472414Y-15327557D01*
X12486700Y-15384700D01*
X12486700Y-15456129D01*
X12472414Y-15513271D01*
X12458128Y-15541843D01*
X12443843Y-15556129D01*
X12415271Y-15570414D01*
X12386700Y-15570414D01*
X12358128Y-15556129D01*
X12343843Y-15541843D01*
X12329557Y-15513271D01*
X12315271Y-15456129D01*
X12315271Y-15384700D01*
X12329557Y-15327557D01*
X12343843Y-15298986D01*
X12358128Y-15284700D01*
X12386700Y-15270414D01*
X12615271Y-15541843D02*
X12629557Y-15556129D01*
X12615271Y-15570414D01*
X12600986Y-15556129D01*
X12615271Y-15541843D01*
X12615271Y-15570414D01*
X12815271Y-15270414D02*
X12843843Y-15270414D01*
X12872414Y-15284700D01*
X12886700Y-15298986D01*
X12900986Y-15327557D01*
X12915271Y-15384700D01*
X12915271Y-15456129D01*
X12900986Y-15513271D01*
X12886700Y-15541843D01*
X12872414Y-15556129D01*
X12843843Y-15570414D01*
X12815271Y-15570414D01*
X12786700Y-15556129D01*
X12772414Y-15541843D01*
X12758128Y-15513271D01*
X12743843Y-15456129D01*
X12743843Y-15384700D01*
X12758128Y-15327557D01*
X12772414Y-15298986D01*
X12786700Y-15284700D01*
X12815271Y-15270414D01*
X13015271Y-15270414D02*
X13200986Y-15270414D01*
X13100986Y-15384700D01*
X13143843Y-15384700D01*
X13172414Y-15398986D01*
X13186700Y-15413271D01*
X13200986Y-15441843D01*
X13200986Y-15513271D01*
X13186700Y-15541843D01*
X13172414Y-15556129D01*
X13143843Y-15570414D01*
X13058128Y-15570414D01*
X13029557Y-15556129D01*
X13015271Y-15541843D01*
X13472414Y-15270414D02*
X13329557Y-15270414D01*
X13315271Y-15413271D01*
X13329557Y-15398986D01*
X13358128Y-15384700D01*
X13429557Y-15384700D01*
X13458128Y-15398986D01*
X13472414Y-15413271D01*
X13486700Y-15441843D01*
X13486700Y-15513271D01*
X13472414Y-15541843D01*
X13458128Y-15556129D01*
X13429557Y-15570414D01*
X13358128Y-15570414D01*
X13329557Y-15556129D01*
X13315271Y-15541843D01*
X13600986Y-15270414D02*
X13600986Y-15327557D01*
X13715271Y-15270414D02*
X13715271Y-15327557D01*
X14158128Y-15684700D02*
X14143843Y-15670414D01*
X14115271Y-15627557D01*
X14100986Y-15598986D01*
X14086700Y-15556129D01*
X14072414Y-15484700D01*
X14072414Y-15427557D01*
X14086700Y-15356129D01*
X14100986Y-15313271D01*
X14115271Y-15284700D01*
X14143843Y-15241843D01*
X14158128Y-15227557D01*
X14400986Y-15270414D02*
X14343843Y-15270414D01*
X14315271Y-15284700D01*
X14300986Y-15298986D01*
X14272414Y-15341843D01*
X14258128Y-15398986D01*
X14258128Y-15513271D01*
X14272414Y-15541843D01*
X14286700Y-15556129D01*
X14315271Y-15570414D01*
X14372414Y-15570414D01*
X14400986Y-15556129D01*
X14415271Y-15541843D01*
X14429557Y-15513271D01*
X14429557Y-15441843D01*
X14415271Y-15413271D01*
X14400986Y-15398986D01*
X14372414Y-15384700D01*
X14315271Y-15384700D01*
X14286700Y-15398986D01*
X14272414Y-15413271D01*
X14258128Y-15441843D01*
X14786700Y-15570414D02*
X14786700Y-15270414D01*
X14915271Y-15570414D02*
X14915271Y-15413271D01*
X14900986Y-15384700D01*
X14872414Y-15370414D01*
X14829557Y-15370414D01*
X14800986Y-15384700D01*
X14786700Y-15398986D01*
X15100986Y-15570414D02*
X15072414Y-15556129D01*
X15058128Y-15541843D01*
X15043843Y-15513271D01*
X15043843Y-15427557D01*
X15058128Y-15398986D01*
X15072414Y-15384700D01*
X15100986Y-15370414D01*
X15143843Y-15370414D01*
X15172414Y-15384700D01*
X15186700Y-15398986D01*
X15200986Y-15427557D01*
X15200986Y-15513271D01*
X15186700Y-15541843D01*
X15172414Y-15556129D01*
X15143843Y-15570414D01*
X15100986Y-15570414D01*
X15372414Y-15570414D02*
X15343843Y-15556129D01*
X15329557Y-15527557D01*
X15329557Y-15270414D01*
X15600986Y-15556129D02*
X15572414Y-15570414D01*
X15515271Y-15570414D01*
X15486700Y-15556129D01*
X15472414Y-15527557D01*
X15472414Y-15413271D01*
X15486700Y-15384700D01*
X15515271Y-15370414D01*
X15572414Y-15370414D01*
X15600986Y-15384700D01*
X15615271Y-15413271D01*
X15615271Y-15441843D01*
X15472414Y-15470414D01*
X15729557Y-15556129D02*
X15758128Y-15570414D01*
X15815271Y-15570414D01*
X15843843Y-15556129D01*
X15858128Y-15527557D01*
X15858128Y-15513271D01*
X15843843Y-15484700D01*
X15815271Y-15470414D01*
X15772414Y-15470414D01*
X15743843Y-15456129D01*
X15729557Y-15427557D01*
X15729557Y-15413271D01*
X15743843Y-15384700D01*
X15772414Y-15370414D01*
X15815271Y-15370414D01*
X15843843Y-15384700D01*
X15958128Y-15684700D02*
X15972414Y-15670414D01*
X16000986Y-15627557D01*
X16015271Y-15598986D01*
X16029557Y-15556129D01*
X16043843Y-15484700D01*
X16043843Y-15427557D01*
X16029557Y-15356129D01*
X16015271Y-15313271D01*
X16000986Y-15284700D01*
X15972414Y-15241843D01*
X15958128Y-15227557D01*
X9421700Y-15880700D02*
X9471700Y-15830700D01*
X9421700Y-15780700D01*
X9371700Y-15830700D01*
X9421700Y-15880700D01*
X9915271Y-15966414D02*
X9743843Y-15966414D01*
X9829557Y-15966414D02*
X9829557Y-15666414D01*
X9800986Y-15709271D01*
X9772414Y-15737843D01*
X9743843Y-15752129D01*
X10043843Y-15937843D02*
X10058128Y-15952129D01*
X10043843Y-15966414D01*
X10029557Y-15952129D01*
X10043843Y-15937843D01*
X10043843Y-15966414D01*
X10243843Y-15666414D02*
X10272414Y-15666414D01*
X10300986Y-15680700D01*
X10315271Y-15694986D01*
X10329557Y-15723557D01*
X10343843Y-15780700D01*
X10343843Y-15852129D01*
X10329557Y-15909271D01*
X10315271Y-15937843D01*
X10300986Y-15952129D01*
X10272414Y-15966414D01*
X10243843Y-15966414D01*
X10215271Y-15952129D01*
X10200986Y-15937843D01*
X10186700Y-15909271D01*
X10172414Y-15852129D01*
X10172414Y-15780700D01*
X10186700Y-15723557D01*
X10200986Y-15694986D01*
X10215271Y-15680700D01*
X10243843Y-15666414D01*
X10529557Y-15666414D02*
X10558128Y-15666414D01*
X10586700Y-15680700D01*
X10600986Y-15694986D01*
X10615271Y-15723557D01*
X10629557Y-15780700D01*
X10629557Y-15852129D01*
X10615271Y-15909271D01*
X10600986Y-15937843D01*
X10586700Y-15952129D01*
X10558128Y-15966414D01*
X10529557Y-15966414D01*
X10500986Y-15952129D01*
X10486700Y-15937843D01*
X10472414Y-15909271D01*
X10458128Y-15852129D01*
X10458128Y-15780700D01*
X10472414Y-15723557D01*
X10486700Y-15694986D01*
X10500986Y-15680700D01*
X10529557Y-15666414D01*
X10758128Y-15966414D02*
X10758128Y-15766414D01*
X10758128Y-15794986D02*
X10772414Y-15780700D01*
X10800986Y-15766414D01*
X10843843Y-15766414D01*
X10872414Y-15780700D01*
X10886700Y-15809271D01*
X10886700Y-15966414D01*
X10886700Y-15809271D02*
X10900986Y-15780700D01*
X10929557Y-15766414D01*
X10972414Y-15766414D01*
X11000986Y-15780700D01*
X11015271Y-15809271D01*
X11015271Y-15966414D01*
X11158128Y-15966414D02*
X11158128Y-15766414D01*
X11158128Y-15794986D02*
X11172414Y-15780700D01*
X11200986Y-15766414D01*
X11243843Y-15766414D01*
X11272414Y-15780700D01*
X11286700Y-15809271D01*
X11286700Y-15966414D01*
X11286700Y-15809271D02*
X11300986Y-15780700D01*
X11329557Y-15766414D01*
X11372414Y-15766414D01*
X11400986Y-15780700D01*
X11415271Y-15809271D01*
X11415271Y-15966414D01*
X12000986Y-15652129D02*
X11743843Y-16037843D01*
X12386700Y-15666414D02*
X12415271Y-15666414D01*
X12443843Y-15680700D01*
X12458128Y-15694986D01*
X12472414Y-15723557D01*
X12486700Y-15780700D01*
X12486700Y-15852129D01*
X12472414Y-15909271D01*
X12458128Y-15937843D01*
X12443843Y-15952129D01*
X12415271Y-15966414D01*
X12386700Y-15966414D01*
X12358128Y-15952129D01*
X12343843Y-15937843D01*
X12329557Y-15909271D01*
X12315271Y-15852129D01*
X12315271Y-15780700D01*
X12329557Y-15723557D01*
X12343843Y-15694986D01*
X12358128Y-15680700D01*
X12386700Y-15666414D01*
X12615271Y-15937843D02*
X12629557Y-15952129D01*
X12615271Y-15966414D01*
X12600986Y-15952129D01*
X12615271Y-15937843D01*
X12615271Y-15966414D01*
X12815271Y-15666414D02*
X12843843Y-15666414D01*
X12872414Y-15680700D01*
X12886700Y-15694986D01*
X12900986Y-15723557D01*
X12915271Y-15780700D01*
X12915271Y-15852129D01*
X12900986Y-15909271D01*
X12886700Y-15937843D01*
X12872414Y-15952129D01*
X12843843Y-15966414D01*
X12815271Y-15966414D01*
X12786700Y-15952129D01*
X12772414Y-15937843D01*
X12758128Y-15909271D01*
X12743843Y-15852129D01*
X12743843Y-15780700D01*
X12758128Y-15723557D01*
X12772414Y-15694986D01*
X12786700Y-15680700D01*
X12815271Y-15666414D01*
X13015271Y-15666414D02*
X13200986Y-15666414D01*
X13100986Y-15780700D01*
X13143843Y-15780700D01*
X13172414Y-15794986D01*
X13186700Y-15809271D01*
X13200986Y-15837843D01*
X13200986Y-15909271D01*
X13186700Y-15937843D01*
X13172414Y-15952129D01*
X13143843Y-15966414D01*
X13058128Y-15966414D01*
X13029557Y-15952129D01*
X13015271Y-15937843D01*
X13343843Y-15966414D02*
X13400986Y-15966414D01*
X13429557Y-15952129D01*
X13443843Y-15937843D01*
X13472414Y-15894986D01*
X13486700Y-15837843D01*
X13486700Y-15723557D01*
X13472414Y-15694986D01*
X13458128Y-15680700D01*
X13429557Y-15666414D01*
X13372414Y-15666414D01*
X13343843Y-15680700D01*
X13329557Y-15694986D01*
X13315271Y-15723557D01*
X13315271Y-15794986D01*
X13329557Y-15823557D01*
X13343843Y-15837843D01*
X13372414Y-15852129D01*
X13429557Y-15852129D01*
X13458128Y-15837843D01*
X13472414Y-15823557D01*
X13486700Y-15794986D01*
X13600986Y-15666414D02*
X13600986Y-15723557D01*
X13715271Y-15666414D02*
X13715271Y-15723557D01*
X14158128Y-16080700D02*
X14143843Y-16066414D01*
X14115271Y-16023557D01*
X14100986Y-15994986D01*
X14086700Y-15952129D01*
X14072414Y-15880700D01*
X14072414Y-15823557D01*
X14086700Y-15752129D01*
X14100986Y-15709271D01*
X14115271Y-15680700D01*
X14143843Y-15637843D01*
X14158128Y-15623557D01*
X14400986Y-15666414D02*
X14343843Y-15666414D01*
X14315271Y-15680700D01*
X14300986Y-15694986D01*
X14272414Y-15737843D01*
X14258128Y-15794986D01*
X14258128Y-15909271D01*
X14272414Y-15937843D01*
X14286700Y-15952129D01*
X14315271Y-15966414D01*
X14372414Y-15966414D01*
X14400986Y-15952129D01*
X14415271Y-15937843D01*
X14429557Y-15909271D01*
X14429557Y-15837843D01*
X14415271Y-15809271D01*
X14400986Y-15794986D01*
X14372414Y-15780700D01*
X14315271Y-15780700D01*
X14286700Y-15794986D01*
X14272414Y-15809271D01*
X14258128Y-15837843D01*
X14686700Y-15666414D02*
X14629557Y-15666414D01*
X14600986Y-15680700D01*
X14586700Y-15694986D01*
X14558128Y-15737843D01*
X14543843Y-15794986D01*
X14543843Y-15909271D01*
X14558128Y-15937843D01*
X14572414Y-15952129D01*
X14600986Y-15966414D01*
X14658128Y-15966414D01*
X14686700Y-15952129D01*
X14700986Y-15937843D01*
X14715271Y-15909271D01*
X14715271Y-15837843D01*
X14700986Y-15809271D01*
X14686700Y-15794986D01*
X14658128Y-15780700D01*
X14600986Y-15780700D01*
X14572414Y-15794986D01*
X14558128Y-15809271D01*
X14543843Y-15837843D01*
X15072414Y-15966414D02*
X15072414Y-15666414D01*
X15200986Y-15966414D02*
X15200986Y-15809271D01*
X15186700Y-15780700D01*
X15158128Y-15766414D01*
X15115271Y-15766414D01*
X15086700Y-15780700D01*
X15072414Y-15794986D01*
X15386700Y-15966414D02*
X15358128Y-15952129D01*
X15343843Y-15937843D01*
X15329557Y-15909271D01*
X15329557Y-15823557D01*
X15343843Y-15794986D01*
X15358128Y-15780700D01*
X15386700Y-15766414D01*
X15429557Y-15766414D01*
X15458128Y-15780700D01*
X15472414Y-15794986D01*
X15486700Y-15823557D01*
X15486700Y-15909271D01*
X15472414Y-15937843D01*
X15458128Y-15952129D01*
X15429557Y-15966414D01*
X15386700Y-15966414D01*
X15658128Y-15966414D02*
X15629557Y-15952129D01*
X15615271Y-15923557D01*
X15615271Y-15666414D01*
X15886700Y-15952129D02*
X15858128Y-15966414D01*
X15800986Y-15966414D01*
X15772414Y-15952129D01*
X15758128Y-15923557D01*
X15758128Y-15809271D01*
X15772414Y-15780700D01*
X15800986Y-15766414D01*
X15858128Y-15766414D01*
X15886700Y-15780700D01*
X15900986Y-15809271D01*
X15900986Y-15837843D01*
X15758128Y-15866414D01*
X16015271Y-15952129D02*
X16043843Y-15966414D01*
X16100986Y-15966414D01*
X16129557Y-15952129D01*
X16143843Y-15923557D01*
X16143843Y-15909271D01*
X16129557Y-15880700D01*
X16100986Y-15866414D01*
X16058128Y-15866414D01*
X16029557Y-15852129D01*
X16015271Y-15823557D01*
X16015271Y-15809271D01*
X16029557Y-15780700D01*
X16058128Y-15766414D01*
X16100986Y-15766414D01*
X16129557Y-15780700D01*
X16243843Y-16080700D02*
X16258128Y-16066414D01*
X16286700Y-16023557D01*
X16300986Y-15994986D01*
X16315271Y-15952129D01*
X16329557Y-15880700D01*
X16329557Y-15823557D01*
X16315271Y-15752129D01*
X16300986Y-15709271D01*
X16286700Y-15680700D01*
X16258128Y-15637843D01*
X16243843Y-15623557D01*
X9370100Y-16175900D02*
X9471700Y-16277500D01*
X9471700Y-16175900D02*
X9370100Y-16277500D01*
X9471700Y-16226700D02*
G75*
G03X9471700Y-16226700I-50800J0D01*
G01*
X9915271Y-16362414D02*
X9743843Y-16362414D01*
X9829557Y-16362414D02*
X9829557Y-16062414D01*
X9800986Y-16105271D01*
X9772414Y-16133843D01*
X9743843Y-16148129D01*
X10043843Y-16333843D02*
X10058128Y-16348129D01*
X10043843Y-16362414D01*
X10029557Y-16348129D01*
X10043843Y-16333843D01*
X10043843Y-16362414D01*
X10243843Y-16062414D02*
X10272414Y-16062414D01*
X10300986Y-16076700D01*
X10315271Y-16090986D01*
X10329557Y-16119557D01*
X10343843Y-16176700D01*
X10343843Y-16248129D01*
X10329557Y-16305271D01*
X10315271Y-16333843D01*
X10300986Y-16348129D01*
X10272414Y-16362414D01*
X10243843Y-16362414D01*
X10215271Y-16348129D01*
X10200986Y-16333843D01*
X10186700Y-16305271D01*
X10172414Y-16248129D01*
X10172414Y-16176700D01*
X10186700Y-16119557D01*
X10200986Y-16090986D01*
X10215271Y-16076700D01*
X10243843Y-16062414D01*
X10458128Y-16090986D02*
X10472414Y-16076700D01*
X10500986Y-16062414D01*
X10572414Y-16062414D01*
X10600986Y-16076700D01*
X10615271Y-16090986D01*
X10629557Y-16119557D01*
X10629557Y-16148129D01*
X10615271Y-16190986D01*
X10443843Y-16362414D01*
X10629557Y-16362414D01*
X10758128Y-16362414D02*
X10758128Y-16162414D01*
X10758128Y-16190986D02*
X10772414Y-16176700D01*
X10800986Y-16162414D01*
X10843843Y-16162414D01*
X10872414Y-16176700D01*
X10886700Y-16205271D01*
X10886700Y-16362414D01*
X10886700Y-16205271D02*
X10900986Y-16176700D01*
X10929557Y-16162414D01*
X10972414Y-16162414D01*
X11000986Y-16176700D01*
X11015271Y-16205271D01*
X11015271Y-16362414D01*
X11158128Y-16362414D02*
X11158128Y-16162414D01*
X11158128Y-16190986D02*
X11172414Y-16176700D01*
X11200986Y-16162414D01*
X11243843Y-16162414D01*
X11272414Y-16176700D01*
X11286700Y-16205271D01*
X11286700Y-16362414D01*
X11286700Y-16205271D02*
X11300986Y-16176700D01*
X11329557Y-16162414D01*
X11372414Y-16162414D01*
X11400986Y-16176700D01*
X11415271Y-16205271D01*
X11415271Y-16362414D01*
X12000986Y-16048129D02*
X11743843Y-16433843D01*
X12386700Y-16062414D02*
X12415271Y-16062414D01*
X12443843Y-16076700D01*
X12458128Y-16090986D01*
X12472414Y-16119557D01*
X12486700Y-16176700D01*
X12486700Y-16248129D01*
X12472414Y-16305271D01*
X12458128Y-16333843D01*
X12443843Y-16348129D01*
X12415271Y-16362414D01*
X12386700Y-16362414D01*
X12358128Y-16348129D01*
X12343843Y-16333843D01*
X12329557Y-16305271D01*
X12315271Y-16248129D01*
X12315271Y-16176700D01*
X12329557Y-16119557D01*
X12343843Y-16090986D01*
X12358128Y-16076700D01*
X12386700Y-16062414D01*
X12615271Y-16333843D02*
X12629557Y-16348129D01*
X12615271Y-16362414D01*
X12600986Y-16348129D01*
X12615271Y-16333843D01*
X12615271Y-16362414D01*
X12815271Y-16062414D02*
X12843843Y-16062414D01*
X12872414Y-16076700D01*
X12886700Y-16090986D01*
X12900986Y-16119557D01*
X12915271Y-16176700D01*
X12915271Y-16248129D01*
X12900986Y-16305271D01*
X12886700Y-16333843D01*
X12872414Y-16348129D01*
X12843843Y-16362414D01*
X12815271Y-16362414D01*
X12786700Y-16348129D01*
X12772414Y-16333843D01*
X12758128Y-16305271D01*
X12743843Y-16248129D01*
X12743843Y-16176700D01*
X12758128Y-16119557D01*
X12772414Y-16090986D01*
X12786700Y-16076700D01*
X12815271Y-16062414D01*
X13172414Y-16162414D02*
X13172414Y-16362414D01*
X13100986Y-16048129D02*
X13029557Y-16262414D01*
X13215271Y-16262414D01*
X13386700Y-16062414D02*
X13415271Y-16062414D01*
X13443843Y-16076700D01*
X13458128Y-16090986D01*
X13472414Y-16119557D01*
X13486700Y-16176700D01*
X13486700Y-16248129D01*
X13472414Y-16305271D01*
X13458128Y-16333843D01*
X13443843Y-16348129D01*
X13415271Y-16362414D01*
X13386700Y-16362414D01*
X13358128Y-16348129D01*
X13343843Y-16333843D01*
X13329557Y-16305271D01*
X13315271Y-16248129D01*
X13315271Y-16176700D01*
X13329557Y-16119557D01*
X13343843Y-16090986D01*
X13358128Y-16076700D01*
X13386700Y-16062414D01*
X13600986Y-16062414D02*
X13600986Y-16119557D01*
X13715271Y-16062414D02*
X13715271Y-16119557D01*
X14158128Y-16476700D02*
X14143843Y-16462414D01*
X14115271Y-16419557D01*
X14100986Y-16390986D01*
X14086700Y-16348129D01*
X14072414Y-16276700D01*
X14072414Y-16219557D01*
X14086700Y-16148129D01*
X14100986Y-16105271D01*
X14115271Y-16076700D01*
X14143843Y-16033843D01*
X14158128Y-16019557D01*
X14429557Y-16362414D02*
X14258128Y-16362414D01*
X14343843Y-16362414D02*
X14343843Y-16062414D01*
X14315271Y-16105271D01*
X14286700Y-16133843D01*
X14258128Y-16148129D01*
X14615271Y-16062414D02*
X14643843Y-16062414D01*
X14672414Y-16076700D01*
X14686700Y-16090986D01*
X14700986Y-16119557D01*
X14715271Y-16176700D01*
X14715271Y-16248129D01*
X14700986Y-16305271D01*
X14686700Y-16333843D01*
X14672414Y-16348129D01*
X14643843Y-16362414D01*
X14615271Y-16362414D01*
X14586700Y-16348129D01*
X14572414Y-16333843D01*
X14558128Y-16305271D01*
X14543843Y-16248129D01*
X14543843Y-16176700D01*
X14558128Y-16119557D01*
X14572414Y-16090986D01*
X14586700Y-16076700D01*
X14615271Y-16062414D01*
X15072414Y-16362414D02*
X15072414Y-16062414D01*
X15200986Y-16362414D02*
X15200986Y-16205271D01*
X15186700Y-16176700D01*
X15158128Y-16162414D01*
X15115271Y-16162414D01*
X15086700Y-16176700D01*
X15072414Y-16190986D01*
X15386700Y-16362414D02*
X15358128Y-16348129D01*
X15343843Y-16333843D01*
X15329557Y-16305271D01*
X15329557Y-16219557D01*
X15343843Y-16190986D01*
X15358128Y-16176700D01*
X15386700Y-16162414D01*
X15429557Y-16162414D01*
X15458128Y-16176700D01*
X15472414Y-16190986D01*
X15486700Y-16219557D01*
X15486700Y-16305271D01*
X15472414Y-16333843D01*
X15458128Y-16348129D01*
X15429557Y-16362414D01*
X15386700Y-16362414D01*
X15658128Y-16362414D02*
X15629557Y-16348129D01*
X15615271Y-16319557D01*
X15615271Y-16062414D01*
X15886700Y-16348129D02*
X15858128Y-16362414D01*
X15800986Y-16362414D01*
X15772414Y-16348129D01*
X15758128Y-16319557D01*
X15758128Y-16205271D01*
X15772414Y-16176700D01*
X15800986Y-16162414D01*
X15858128Y-16162414D01*
X15886700Y-16176700D01*
X15900986Y-16205271D01*
X15900986Y-16233843D01*
X15758128Y-16262414D01*
X16015271Y-16348129D02*
X16043843Y-16362414D01*
X16100986Y-16362414D01*
X16129557Y-16348129D01*
X16143843Y-16319557D01*
X16143843Y-16305271D01*
X16129557Y-16276700D01*
X16100986Y-16262414D01*
X16058128Y-16262414D01*
X16029557Y-16248129D01*
X16015271Y-16219557D01*
X16015271Y-16205271D01*
X16029557Y-16176700D01*
X16058128Y-16162414D01*
X16100986Y-16162414D01*
X16129557Y-16176700D01*
X16243843Y-16476700D02*
X16258128Y-16462414D01*
X16286700Y-16419557D01*
X16300986Y-16390986D01*
X16315271Y-16348129D01*
X16329557Y-16276700D01*
X16329557Y-16219557D01*
X16315271Y-16148129D01*
X16300986Y-16105271D01*
X16286700Y-16076700D01*
X16258128Y-16033843D01*
X16243843Y-16019557D01*
X9361700Y-16567700D02*
X9471700Y-16677700D01*
X9471700Y-16567700D02*
X9361700Y-16677700D01*
X9416700Y-16567700D02*
X9416700Y-16677700D01*
X9361700Y-16622700D02*
X9471700Y-16622700D01*
X9915271Y-16758414D02*
X9743843Y-16758414D01*
X9829557Y-16758414D02*
X9829557Y-16458414D01*
X9800986Y-16501271D01*
X9772414Y-16529843D01*
X9743843Y-16544129D01*
X10043843Y-16729843D02*
X10058128Y-16744129D01*
X10043843Y-16758414D01*
X10029557Y-16744129D01*
X10043843Y-16729843D01*
X10043843Y-16758414D01*
X10343843Y-16758414D02*
X10172414Y-16758414D01*
X10258128Y-16758414D02*
X10258128Y-16458414D01*
X10229557Y-16501271D01*
X10200986Y-16529843D01*
X10172414Y-16544129D01*
X10529557Y-16458414D02*
X10558128Y-16458414D01*
X10586700Y-16472700D01*
X10600986Y-16486986D01*
X10615271Y-16515557D01*
X10629557Y-16572700D01*
X10629557Y-16644129D01*
X10615271Y-16701271D01*
X10600986Y-16729843D01*
X10586700Y-16744129D01*
X10558128Y-16758414D01*
X10529557Y-16758414D01*
X10500986Y-16744129D01*
X10486700Y-16729843D01*
X10472414Y-16701271D01*
X10458128Y-16644129D01*
X10458128Y-16572700D01*
X10472414Y-16515557D01*
X10486700Y-16486986D01*
X10500986Y-16472700D01*
X10529557Y-16458414D01*
X10758128Y-16758414D02*
X10758128Y-16558414D01*
X10758128Y-16586986D02*
X10772414Y-16572700D01*
X10800986Y-16558414D01*
X10843843Y-16558414D01*
X10872414Y-16572700D01*
X10886700Y-16601271D01*
X10886700Y-16758414D01*
X10886700Y-16601271D02*
X10900986Y-16572700D01*
X10929557Y-16558414D01*
X10972414Y-16558414D01*
X11000986Y-16572700D01*
X11015271Y-16601271D01*
X11015271Y-16758414D01*
X11158128Y-16758414D02*
X11158128Y-16558414D01*
X11158128Y-16586986D02*
X11172414Y-16572700D01*
X11200986Y-16558414D01*
X11243843Y-16558414D01*
X11272414Y-16572700D01*
X11286700Y-16601271D01*
X11286700Y-16758414D01*
X11286700Y-16601271D02*
X11300986Y-16572700D01*
X11329557Y-16558414D01*
X11372414Y-16558414D01*
X11400986Y-16572700D01*
X11415271Y-16601271D01*
X11415271Y-16758414D01*
X12000986Y-16444129D02*
X11743843Y-16829843D01*
X12386700Y-16458414D02*
X12415271Y-16458414D01*
X12443843Y-16472700D01*
X12458128Y-16486986D01*
X12472414Y-16515557D01*
X12486700Y-16572700D01*
X12486700Y-16644129D01*
X12472414Y-16701271D01*
X12458128Y-16729843D01*
X12443843Y-16744129D01*
X12415271Y-16758414D01*
X12386700Y-16758414D01*
X12358128Y-16744129D01*
X12343843Y-16729843D01*
X12329557Y-16701271D01*
X12315271Y-16644129D01*
X12315271Y-16572700D01*
X12329557Y-16515557D01*
X12343843Y-16486986D01*
X12358128Y-16472700D01*
X12386700Y-16458414D01*
X12615271Y-16729843D02*
X12629557Y-16744129D01*
X12615271Y-16758414D01*
X12600986Y-16744129D01*
X12615271Y-16729843D01*
X12615271Y-16758414D01*
X12815271Y-16458414D02*
X12843843Y-16458414D01*
X12872414Y-16472700D01*
X12886700Y-16486986D01*
X12900986Y-16515557D01*
X12915271Y-16572700D01*
X12915271Y-16644129D01*
X12900986Y-16701271D01*
X12886700Y-16729843D01*
X12872414Y-16744129D01*
X12843843Y-16758414D01*
X12815271Y-16758414D01*
X12786700Y-16744129D01*
X12772414Y-16729843D01*
X12758128Y-16701271D01*
X12743843Y-16644129D01*
X12743843Y-16572700D01*
X12758128Y-16515557D01*
X12772414Y-16486986D01*
X12786700Y-16472700D01*
X12815271Y-16458414D01*
X13172414Y-16558414D02*
X13172414Y-16758414D01*
X13100986Y-16444129D02*
X13029557Y-16658414D01*
X13215271Y-16658414D01*
X13300986Y-16458414D02*
X13486700Y-16458414D01*
X13386700Y-16572700D01*
X13429557Y-16572700D01*
X13458128Y-16586986D01*
X13472414Y-16601271D01*
X13486700Y-16629843D01*
X13486700Y-16701271D01*
X13472414Y-16729843D01*
X13458128Y-16744129D01*
X13429557Y-16758414D01*
X13343843Y-16758414D01*
X13315271Y-16744129D01*
X13300986Y-16729843D01*
X13600986Y-16458414D02*
X13600986Y-16515557D01*
X13715271Y-16458414D02*
X13715271Y-16515557D01*
X14158128Y-16872700D02*
X14143843Y-16858414D01*
X14115271Y-16815557D01*
X14100986Y-16786986D01*
X14086700Y-16744129D01*
X14072414Y-16672700D01*
X14072414Y-16615557D01*
X14086700Y-16544129D01*
X14100986Y-16501271D01*
X14115271Y-16472700D01*
X14143843Y-16429843D01*
X14158128Y-16415557D01*
X14243843Y-16458414D02*
X14429557Y-16458414D01*
X14329557Y-16572700D01*
X14372414Y-16572700D01*
X14400986Y-16586986D01*
X14415271Y-16601271D01*
X14429557Y-16629843D01*
X14429557Y-16701271D01*
X14415271Y-16729843D01*
X14400986Y-16744129D01*
X14372414Y-16758414D01*
X14286700Y-16758414D01*
X14258128Y-16744129D01*
X14243843Y-16729843D01*
X14786700Y-16758414D02*
X14786700Y-16458414D01*
X14915271Y-16758414D02*
X14915271Y-16601271D01*
X14900986Y-16572700D01*
X14872414Y-16558414D01*
X14829557Y-16558414D01*
X14800986Y-16572700D01*
X14786700Y-16586986D01*
X15100986Y-16758414D02*
X15072414Y-16744129D01*
X15058128Y-16729843D01*
X15043843Y-16701271D01*
X15043843Y-16615557D01*
X15058128Y-16586986D01*
X15072414Y-16572700D01*
X15100986Y-16558414D01*
X15143843Y-16558414D01*
X15172414Y-16572700D01*
X15186700Y-16586986D01*
X15200986Y-16615557D01*
X15200986Y-16701271D01*
X15186700Y-16729843D01*
X15172414Y-16744129D01*
X15143843Y-16758414D01*
X15100986Y-16758414D01*
X15372414Y-16758414D02*
X15343843Y-16744129D01*
X15329557Y-16715557D01*
X15329557Y-16458414D01*
X15600986Y-16744129D02*
X15572414Y-16758414D01*
X15515271Y-16758414D01*
X15486700Y-16744129D01*
X15472414Y-16715557D01*
X15472414Y-16601271D01*
X15486700Y-16572700D01*
X15515271Y-16558414D01*
X15572414Y-16558414D01*
X15600986Y-16572700D01*
X15615271Y-16601271D01*
X15615271Y-16629843D01*
X15472414Y-16658414D01*
X15729557Y-16744129D02*
X15758128Y-16758414D01*
X15815271Y-16758414D01*
X15843843Y-16744129D01*
X15858128Y-16715557D01*
X15858128Y-16701271D01*
X15843843Y-16672700D01*
X15815271Y-16658414D01*
X15772414Y-16658414D01*
X15743843Y-16644129D01*
X15729557Y-16615557D01*
X15729557Y-16601271D01*
X15743843Y-16572700D01*
X15772414Y-16558414D01*
X15815271Y-16558414D01*
X15843843Y-16572700D01*
X15958128Y-16872700D02*
X15972414Y-16858414D01*
X16000986Y-16815557D01*
X16015271Y-16786986D01*
X16029557Y-16744129D01*
X16043843Y-16672700D01*
X16043843Y-16615557D01*
X16029557Y-16544129D01*
X16015271Y-16501271D01*
X16000986Y-16472700D01*
X15972414Y-16429843D01*
X15958128Y-16415557D01*
X9359940Y-16962820D02*
X9471700Y-17074580D01*
X9471700Y-16962820D02*
X9359940Y-17074580D01*
X9455333Y-17058214D02*
X9455333Y-16979187D01*
X9376306Y-16979187D01*
X9376306Y-17058214D01*
X9455333Y-17058214D01*
X9915271Y-17154414D02*
X9743843Y-17154414D01*
X9829557Y-17154414D02*
X9829557Y-16854414D01*
X9800986Y-16897272D01*
X9772414Y-16925843D01*
X9743843Y-16940129D01*
X10043843Y-17125843D02*
X10058128Y-17140129D01*
X10043843Y-17154414D01*
X10029557Y-17140129D01*
X10043843Y-17125843D01*
X10043843Y-17154414D01*
X10343843Y-17154414D02*
X10172414Y-17154414D01*
X10258128Y-17154414D02*
X10258128Y-16854414D01*
X10229557Y-16897272D01*
X10200986Y-16925843D01*
X10172414Y-16940129D01*
X10458128Y-16882986D02*
X10472414Y-16868700D01*
X10500986Y-16854414D01*
X10572414Y-16854414D01*
X10600986Y-16868700D01*
X10615271Y-16882986D01*
X10629557Y-16911557D01*
X10629557Y-16940129D01*
X10615271Y-16982986D01*
X10443843Y-17154414D01*
X10629557Y-17154414D01*
X10758128Y-17154414D02*
X10758128Y-16954414D01*
X10758128Y-16982986D02*
X10772414Y-16968700D01*
X10800986Y-16954414D01*
X10843843Y-16954414D01*
X10872414Y-16968700D01*
X10886700Y-16997272D01*
X10886700Y-17154414D01*
X10886700Y-16997272D02*
X10900986Y-16968700D01*
X10929557Y-16954414D01*
X10972414Y-16954414D01*
X11000986Y-16968700D01*
X11015271Y-16997272D01*
X11015271Y-17154414D01*
X11158128Y-17154414D02*
X11158128Y-16954414D01*
X11158128Y-16982986D02*
X11172414Y-16968700D01*
X11200986Y-16954414D01*
X11243843Y-16954414D01*
X11272414Y-16968700D01*
X11286700Y-16997272D01*
X11286700Y-17154414D01*
X11286700Y-16997272D02*
X11300986Y-16968700D01*
X11329557Y-16954414D01*
X11372414Y-16954414D01*
X11400986Y-16968700D01*
X11415271Y-16997272D01*
X11415271Y-17154414D01*
X12000986Y-16840129D02*
X11743843Y-17225843D01*
X12386700Y-16854414D02*
X12415271Y-16854414D01*
X12443843Y-16868700D01*
X12458128Y-16882986D01*
X12472414Y-16911557D01*
X12486700Y-16968700D01*
X12486700Y-17040129D01*
X12472414Y-17097272D01*
X12458128Y-17125843D01*
X12443843Y-17140129D01*
X12415271Y-17154414D01*
X12386700Y-17154414D01*
X12358128Y-17140129D01*
X12343843Y-17125843D01*
X12329557Y-17097272D01*
X12315271Y-17040129D01*
X12315271Y-16968700D01*
X12329557Y-16911557D01*
X12343843Y-16882986D01*
X12358128Y-16868700D01*
X12386700Y-16854414D01*
X12615271Y-17125843D02*
X12629557Y-17140129D01*
X12615271Y-17154414D01*
X12600986Y-17140129D01*
X12615271Y-17125843D01*
X12615271Y-17154414D01*
X12815271Y-16854414D02*
X12843843Y-16854414D01*
X12872414Y-16868700D01*
X12886700Y-16882986D01*
X12900986Y-16911557D01*
X12915271Y-16968700D01*
X12915271Y-17040129D01*
X12900986Y-17097272D01*
X12886700Y-17125843D01*
X12872414Y-17140129D01*
X12843843Y-17154414D01*
X12815271Y-17154414D01*
X12786700Y-17140129D01*
X12772414Y-17125843D01*
X12758128Y-17097272D01*
X12743843Y-17040129D01*
X12743843Y-16968700D01*
X12758128Y-16911557D01*
X12772414Y-16882986D01*
X12786700Y-16868700D01*
X12815271Y-16854414D01*
X13172414Y-16954414D02*
X13172414Y-17154414D01*
X13100986Y-16840129D02*
X13029557Y-17054414D01*
X13215271Y-17054414D01*
X13458128Y-16954414D02*
X13458128Y-17154414D01*
X13386700Y-16840129D02*
X13315271Y-17054414D01*
X13500986Y-17054414D01*
X13600986Y-16854414D02*
X13600986Y-16911557D01*
X13715271Y-16854414D02*
X13715271Y-16911557D01*
X14158128Y-17268700D02*
X14143843Y-17254414D01*
X14115271Y-17211557D01*
X14100986Y-17182986D01*
X14086700Y-17140129D01*
X14072414Y-17068700D01*
X14072414Y-17011557D01*
X14086700Y-16940129D01*
X14100986Y-16897272D01*
X14115271Y-16868700D01*
X14143843Y-16825843D01*
X14158128Y-16811557D01*
X14258128Y-16882986D02*
X14272414Y-16868700D01*
X14300986Y-16854414D01*
X14372414Y-16854414D01*
X14400986Y-16868700D01*
X14415271Y-16882986D01*
X14429557Y-16911557D01*
X14429557Y-16940129D01*
X14415271Y-16982986D01*
X14243843Y-17154414D01*
X14429557Y-17154414D01*
X14600986Y-16982986D02*
X14572414Y-16968700D01*
X14558128Y-16954414D01*
X14543843Y-16925843D01*
X14543843Y-16911557D01*
X14558128Y-16882986D01*
X14572414Y-16868700D01*
X14600986Y-16854414D01*
X14658128Y-16854414D01*
X14686700Y-16868700D01*
X14700986Y-16882986D01*
X14715271Y-16911557D01*
X14715271Y-16925843D01*
X14700986Y-16954414D01*
X14686700Y-16968700D01*
X14658128Y-16982986D01*
X14600986Y-16982986D01*
X14572414Y-16997272D01*
X14558128Y-17011557D01*
X14543843Y-17040129D01*
X14543843Y-17097272D01*
X14558128Y-17125843D01*
X14572414Y-17140129D01*
X14600986Y-17154414D01*
X14658128Y-17154414D01*
X14686700Y-17140129D01*
X14700986Y-17125843D01*
X14715271Y-17097272D01*
X14715271Y-17040129D01*
X14700986Y-17011557D01*
X14686700Y-16997272D01*
X14658128Y-16982986D01*
X15072414Y-17154414D02*
X15072414Y-16854414D01*
X15200986Y-17154414D02*
X15200986Y-16997272D01*
X15186700Y-16968700D01*
X15158128Y-16954414D01*
X15115271Y-16954414D01*
X15086700Y-16968700D01*
X15072414Y-16982986D01*
X15386700Y-17154414D02*
X15358128Y-17140129D01*
X15343843Y-17125843D01*
X15329557Y-17097272D01*
X15329557Y-17011557D01*
X15343843Y-16982986D01*
X15358128Y-16968700D01*
X15386700Y-16954414D01*
X15429557Y-16954414D01*
X15458128Y-16968700D01*
X15472414Y-16982986D01*
X15486700Y-17011557D01*
X15486700Y-17097272D01*
X15472414Y-17125843D01*
X15458128Y-17140129D01*
X15429557Y-17154414D01*
X15386700Y-17154414D01*
X15658128Y-17154414D02*
X15629557Y-17140129D01*
X15615271Y-17111557D01*
X15615271Y-16854414D01*
X15886700Y-17140129D02*
X15858128Y-17154414D01*
X15800986Y-17154414D01*
X15772414Y-17140129D01*
X15758128Y-17111557D01*
X15758128Y-16997272D01*
X15772414Y-16968700D01*
X15800986Y-16954414D01*
X15858128Y-16954414D01*
X15886700Y-16968700D01*
X15900986Y-16997272D01*
X15900986Y-17025843D01*
X15758128Y-17054414D01*
X16015271Y-17140129D02*
X16043843Y-17154414D01*
X16100986Y-17154414D01*
X16129557Y-17140129D01*
X16143843Y-17111557D01*
X16143843Y-17097272D01*
X16129557Y-17068700D01*
X16100986Y-17054414D01*
X16058128Y-17054414D01*
X16029557Y-17040129D01*
X16015271Y-17011557D01*
X16015271Y-16997272D01*
X16029557Y-16968700D01*
X16058128Y-16954414D01*
X16100986Y-16954414D01*
X16129557Y-16968700D01*
X16243843Y-17268700D02*
X16258128Y-17254414D01*
X16286700Y-17211557D01*
X16300986Y-17182986D01*
X16315271Y-17140129D01*
X16329557Y-17068700D01*
X16329557Y-17011557D01*
X16315271Y-16940129D01*
X16300986Y-16897272D01*
X16286700Y-16868700D01*
X16258128Y-16825843D01*
X16243843Y-16811557D01*
M02*
