G04 #@! TF.GenerationSoftware,KiCad,Pcbnew,(5.1.5)-3*
G04 #@! TF.CreationDate,2020-10-12T17:18:37+01:00*
G04 #@! TF.ProjectId,MSXPi1,4d535850-6931-42e6-9b69-6361645f7063,rev?*
G04 #@! TF.SameCoordinates,Original*
G04 #@! TF.FileFunction,Copper,L1,Top*
G04 #@! TF.FilePolarity,Positive*
%FSLAX46Y46*%
G04 Gerber Fmt 4.6, Leading zero omitted, Abs format (unit mm)*
G04 Created by KiCad (PCBNEW (5.1.5)-3) date 2020-10-12 17:18:37*
%MOMM*%
%LPD*%
G04 APERTURE LIST*
%ADD10C,1.800000*%
%ADD11R,1.800000X1.800000*%
%ADD12C,1.600000*%
%ADD13R,1.600000X1.600000*%
%ADD14O,1.400000X1.400000*%
%ADD15C,1.400000*%
%ADD16R,1.800000X8.000000*%
%ADD17R,1.800000X7.000000*%
%ADD18O,1.700000X1.700000*%
%ADD19R,1.700000X1.700000*%
%ADD20O,1.727200X1.727200*%
%ADD21R,1.727200X1.727200*%
%ADD22C,1.650000*%
%ADD23R,1.650000X1.650000*%
%ADD24R,0.800000X0.900000*%
%ADD25C,1.676400*%
%ADD26R,1.676400X1.676400*%
%ADD27R,1.500000X2.000000*%
%ADD28R,3.800000X2.000000*%
%ADD29R,0.508000X1.473200*%
%ADD30R,1.473200X0.508000*%
%ADD31C,0.800000*%
%ADD32C,0.500000*%
%ADD33C,0.350000*%
%ADD34C,0.300000*%
%ADD35C,0.250000*%
%ADD36C,0.400000*%
G04 APERTURE END LIST*
D10*
X113030000Y-70358000D03*
D11*
X115570000Y-70358000D03*
D12*
X164846000Y-76748000D03*
D13*
X164846000Y-79248000D03*
D14*
X129540000Y-80264000D03*
D15*
X129540000Y-75184000D03*
D12*
X107696000Y-90170000D03*
X107696000Y-92670000D03*
D16*
X120613296Y-127670829D03*
X123153296Y-127670829D03*
X125693296Y-127670829D03*
D17*
X128228216Y-127178069D03*
D16*
X130773296Y-127670829D03*
X133313296Y-127670829D03*
X135853296Y-127670829D03*
X138393296Y-127670829D03*
X140933296Y-127670829D03*
X143473296Y-127670829D03*
X146013296Y-127670829D03*
X148553296Y-127670829D03*
X151093296Y-127670829D03*
X153633296Y-127670829D03*
X156173296Y-127670829D03*
X158713296Y-127670829D03*
X161253296Y-127670829D03*
X163793296Y-127670829D03*
X166333296Y-127670829D03*
X168873296Y-127670829D03*
X171413296Y-127670829D03*
X173953296Y-127670829D03*
X176493296Y-127670829D03*
X179033296Y-127670829D03*
X181573296Y-127670829D03*
D18*
X186944000Y-96774000D03*
X184404000Y-96774000D03*
X186944000Y-94234000D03*
X184404000Y-94234000D03*
X186944000Y-91694000D03*
X184404000Y-91694000D03*
X186944000Y-89154000D03*
X184404000Y-89154000D03*
X186944000Y-86614000D03*
X184404000Y-86614000D03*
X186944000Y-84074000D03*
D19*
X184404000Y-84074000D03*
D20*
X192786000Y-78232000D03*
X192786000Y-80772000D03*
X190246000Y-78232000D03*
X190246000Y-80772000D03*
X187706000Y-78232000D03*
X187706000Y-80772000D03*
X185166000Y-78232000D03*
X185166000Y-80772000D03*
X182626000Y-78232000D03*
D21*
X182626000Y-80772000D03*
D22*
X96560000Y-75882000D03*
X103160000Y-77882000D03*
D23*
X99060000Y-71882000D03*
D14*
X141732000Y-75184000D03*
D15*
X141732000Y-80264000D03*
D14*
X134620000Y-80264000D03*
D15*
X134620000Y-75184000D03*
D14*
X144018000Y-75184000D03*
D15*
X144018000Y-80264000D03*
D14*
X146304000Y-80264000D03*
D15*
X146304000Y-75184000D03*
D24*
X98044000Y-81042000D03*
X98994000Y-83042000D03*
X97094000Y-83042000D03*
X103378000Y-81042000D03*
X104328000Y-83042000D03*
X102428000Y-83042000D03*
D12*
X99528000Y-85598000D03*
X97028000Y-85598000D03*
X104902000Y-85598000D03*
X102402000Y-85598000D03*
X104862000Y-87884000D03*
X102362000Y-87884000D03*
X99528000Y-87884000D03*
X97028000Y-87884000D03*
D14*
X109220000Y-78740000D03*
D15*
X109220000Y-73660000D03*
D14*
X114300000Y-78740000D03*
D15*
X114300000Y-73660000D03*
D10*
X107950000Y-70358000D03*
D11*
X110490000Y-70358000D03*
D25*
X166370000Y-111506000D03*
X163830000Y-111506000D03*
X161290000Y-111506000D03*
X158750000Y-111506000D03*
X156210000Y-111506000D03*
X153670000Y-111506000D03*
X151130000Y-111506000D03*
X148590000Y-111506000D03*
X146050000Y-111506000D03*
X143510000Y-111506000D03*
X140970000Y-111506000D03*
X138430000Y-111506000D03*
X135890000Y-111506000D03*
X133350000Y-111506000D03*
X133350000Y-96266000D03*
X135890000Y-96266000D03*
X138430000Y-96266000D03*
X140970000Y-96266000D03*
X143510000Y-96266000D03*
X146050000Y-96266000D03*
X148590000Y-96266000D03*
X151130000Y-96266000D03*
X153670000Y-96266000D03*
X156210000Y-96266000D03*
X158750000Y-96266000D03*
X161290000Y-96266000D03*
X163830000Y-96266000D03*
D26*
X166370000Y-96266000D03*
D14*
X173482000Y-105156000D03*
D15*
X178562000Y-105156000D03*
D14*
X173482000Y-100584000D03*
D15*
X178562000Y-100584000D03*
D14*
X173482000Y-102870000D03*
D15*
X178562000Y-102870000D03*
D18*
X186944000Y-115824000D03*
X184404000Y-115824000D03*
X186944000Y-113284000D03*
X184404000Y-113284000D03*
X186944000Y-110744000D03*
X184404000Y-110744000D03*
X186944000Y-108204000D03*
X184404000Y-108204000D03*
X186944000Y-105664000D03*
X184404000Y-105664000D03*
X186944000Y-103124000D03*
X184404000Y-103124000D03*
X186944000Y-100584000D03*
D19*
X184404000Y-100584000D03*
D14*
X175768000Y-75184000D03*
D15*
X175768000Y-80264000D03*
D18*
X127000000Y-72390000D03*
X127000000Y-69850000D03*
X129540000Y-72390000D03*
X129540000Y-69850000D03*
X132080000Y-72390000D03*
X132080000Y-69850000D03*
X134620000Y-72390000D03*
X134620000Y-69850000D03*
X137160000Y-72390000D03*
X137160000Y-69850000D03*
X139700000Y-72390000D03*
X139700000Y-69850000D03*
X142240000Y-72390000D03*
X142240000Y-69850000D03*
X144780000Y-72390000D03*
X144780000Y-69850000D03*
X147320000Y-72390000D03*
X147320000Y-69850000D03*
X149860000Y-72390000D03*
X149860000Y-69850000D03*
X152400000Y-72390000D03*
X152400000Y-69850000D03*
X154940000Y-72390000D03*
X154940000Y-69850000D03*
X157480000Y-72390000D03*
X157480000Y-69850000D03*
X160020000Y-72390000D03*
X160020000Y-69850000D03*
X162560000Y-72390000D03*
X162560000Y-69850000D03*
X165100000Y-72390000D03*
X165100000Y-69850000D03*
X167640000Y-72390000D03*
X167640000Y-69850000D03*
X170180000Y-72390000D03*
X170180000Y-69850000D03*
X172720000Y-72390000D03*
X172720000Y-69850000D03*
X175260000Y-72390000D03*
D19*
X175260000Y-69850000D03*
D12*
X99100000Y-105156000D03*
D13*
X101600000Y-105156000D03*
D14*
X119380000Y-78740000D03*
D15*
X119380000Y-73660000D03*
D14*
X173482000Y-75184000D03*
D15*
X173482000Y-80264000D03*
D14*
X171196000Y-75184000D03*
D15*
X171196000Y-80264000D03*
D14*
X168910000Y-80264000D03*
D15*
X168910000Y-75184000D03*
D27*
X111492000Y-114758000D03*
X116092000Y-114758000D03*
X113792000Y-114758000D03*
D28*
X113792000Y-108458000D03*
D11*
X120650000Y-70358000D03*
D10*
X118110000Y-70358000D03*
D12*
X108966000Y-110236000D03*
X108966000Y-107736000D03*
X108966000Y-112562000D03*
X108966000Y-115062000D03*
X117388000Y-101092000D03*
X119888000Y-101092000D03*
X124460000Y-92964000D03*
X124460000Y-90464000D03*
X113752000Y-84074000D03*
X111252000Y-84074000D03*
X169672000Y-107442000D03*
X169672000Y-109942000D03*
D15*
X127000000Y-75184000D03*
D14*
X127000000Y-80264000D03*
X132080000Y-80264000D03*
D15*
X132080000Y-75184000D03*
X139446000Y-75184000D03*
D14*
X139446000Y-80264000D03*
D15*
X137160000Y-75184000D03*
D14*
X137160000Y-80264000D03*
D29*
X120827800Y-86334600D03*
X120040400Y-86334600D03*
X119227600Y-86334600D03*
X118440200Y-86334600D03*
X117627400Y-86334600D03*
X116840000Y-86334600D03*
X116052600Y-86334600D03*
X115239800Y-86334600D03*
X114452400Y-86334600D03*
X113639600Y-86334600D03*
X112852200Y-86334600D03*
D30*
X111226600Y-87960200D03*
X111226600Y-88747600D03*
X111226600Y-89560400D03*
X111226600Y-90347800D03*
X111226600Y-91160600D03*
X111226600Y-91948000D03*
X111226600Y-92735400D03*
X111226600Y-93548200D03*
X111226600Y-94335600D03*
X111226600Y-95148400D03*
X111226600Y-95935800D03*
D29*
X112852200Y-97561400D03*
X113639600Y-97561400D03*
X114452400Y-97561400D03*
X115239800Y-97561400D03*
X116052600Y-97561400D03*
X116840000Y-97561400D03*
X117627400Y-97561400D03*
X118440200Y-97561400D03*
X119227600Y-97561400D03*
X120040400Y-97561400D03*
X120827800Y-97561400D03*
D30*
X122453400Y-95935800D03*
X122453400Y-95148400D03*
X122453400Y-94335600D03*
X122453400Y-93548200D03*
X122453400Y-92735400D03*
X122453400Y-91948000D03*
X122453400Y-91160600D03*
X122453400Y-90347800D03*
X122453400Y-89560400D03*
X122453400Y-88747600D03*
X122453400Y-87960200D03*
D31*
X124206000Y-120650000D03*
X141986000Y-106171999D03*
X137414000Y-106172006D03*
X155356919Y-106308555D03*
X129032000Y-110236000D03*
X133096000Y-108712000D03*
X148082000Y-106172000D03*
X175514000Y-87122000D03*
X171704008Y-85598000D03*
X123444000Y-86106000D03*
X133200528Y-89209021D03*
X115822653Y-89508953D03*
X170434000Y-84836000D03*
X172961801Y-83306289D03*
X180340000Y-78486000D03*
X151384000Y-91453010D03*
X147346043Y-94815190D03*
X144780000Y-104902000D03*
X148844028Y-92964000D03*
X149860004Y-114300000D03*
X146812000Y-100584006D03*
X137370978Y-89934013D03*
X152383060Y-117228883D03*
X140716000Y-90678000D03*
X154686000Y-115316000D03*
X155956000Y-121920000D03*
X119281725Y-88428149D03*
X113649520Y-88084163D03*
X181297716Y-119029822D03*
X154432000Y-119634000D03*
X116349550Y-88659010D03*
X132858303Y-106644394D03*
X109728000Y-87391987D03*
X122682000Y-105663996D03*
X131660362Y-108726192D03*
X129032004Y-108712000D03*
X124085478Y-104084979D03*
X114829986Y-89387976D03*
X111506000Y-116840000D03*
X167640000Y-94742000D03*
X113792000Y-96266000D03*
X114568021Y-93017321D03*
X113389872Y-91537283D03*
X118097315Y-95930543D03*
X176530000Y-109220000D03*
X167132000Y-118618000D03*
X167132000Y-122174000D03*
X123190000Y-98044000D03*
X115073902Y-92109344D03*
X170908947Y-89361023D03*
X110096039Y-90394667D03*
X166683266Y-85584590D03*
X117611408Y-83679989D03*
X124442021Y-86169069D03*
X120416799Y-93158769D03*
X120343960Y-88426590D03*
X121390421Y-87786348D03*
X112776000Y-93472000D03*
X121826939Y-83897950D03*
X117600979Y-84679946D03*
X120904000Y-89484012D03*
X134874000Y-112776000D03*
X109663594Y-89389936D03*
X129032000Y-111760002D03*
X153156968Y-118102770D03*
X151130000Y-120904000D03*
X153728242Y-118923543D03*
X152908000Y-120904000D03*
X181297716Y-120370564D03*
X172477990Y-108354610D03*
X109728000Y-88392000D03*
X165401529Y-88628449D03*
X160528002Y-85084579D03*
X117602000Y-82680021D03*
X171450000Y-122428000D03*
X167640000Y-87122000D03*
X179070000Y-122174000D03*
X179936662Y-104752662D03*
X176240274Y-98032010D03*
X149098000Y-107696000D03*
X158241996Y-98806000D03*
X147320000Y-108458000D03*
X161544000Y-104648000D03*
X144018004Y-78232000D03*
X120650000Y-80264004D03*
X109152695Y-82130010D03*
X160528000Y-74422000D03*
X156972000Y-74930000D03*
X169164004Y-82550000D03*
X190246000Y-89916000D03*
D32*
X171196000Y-75184000D02*
X173482000Y-75184000D01*
X173482000Y-75184000D02*
X175768000Y-75184000D01*
X175260000Y-74676000D02*
X175768000Y-75184000D01*
X175260000Y-72390000D02*
X175260000Y-74676000D01*
X172720000Y-72390000D02*
X175260000Y-72390000D01*
X168108000Y-111506000D02*
X169672000Y-109942000D01*
X166370000Y-111506000D02*
X168108000Y-111506000D01*
X173482000Y-100584000D02*
X173482000Y-102870000D01*
X173482000Y-102870000D02*
X173482000Y-105156000D01*
X116092000Y-114758000D02*
X118314000Y-114758000D01*
X118314000Y-114758000D02*
X124206000Y-120650000D01*
X108966000Y-116193370D02*
X111136630Y-118364000D01*
X108966000Y-115062000D02*
X108966000Y-116193370D01*
X113986000Y-118364000D02*
X116092000Y-116258000D01*
X116092000Y-116258000D02*
X116092000Y-114758000D01*
X111136630Y-118364000D02*
X113986000Y-118364000D01*
X182118000Y-75184000D02*
X185166000Y-78232000D01*
X175768000Y-75184000D02*
X182118000Y-75184000D01*
X173482000Y-106132000D02*
X173482000Y-105156000D01*
X169672000Y-109942000D02*
X173482000Y-106132000D01*
X141986000Y-106171999D02*
X137668007Y-106171999D01*
X167132000Y-79248000D02*
X164846000Y-79248000D01*
X171196000Y-75184000D02*
X167132000Y-79248000D01*
X128632001Y-110635999D02*
X129032000Y-110236000D01*
X124206000Y-115062000D02*
X128632001Y-110635999D01*
X124206000Y-120650000D02*
X124206000Y-115062000D01*
X131572000Y-110236000D02*
X133096000Y-108712000D01*
X129032000Y-110236000D02*
X131572000Y-110236000D01*
X155356919Y-106308555D02*
X148218555Y-106308555D01*
X148218555Y-106308555D02*
X148082000Y-106172000D01*
D33*
X104328000Y-83042000D02*
X105078000Y-83042000D01*
D32*
X139446000Y-80264000D02*
X137160000Y-80264000D01*
X110744000Y-108458000D02*
X113792000Y-108458000D01*
X108966000Y-110236000D02*
X110744000Y-108458000D01*
X113792000Y-113258000D02*
X113792000Y-108458000D01*
X113792000Y-114758000D02*
X113792000Y-113258000D01*
X129540000Y-80264000D02*
X132080000Y-80264000D01*
X127000000Y-80264000D02*
X129540000Y-80264000D01*
X112519989Y-108458000D02*
X113792000Y-108458000D01*
X109217989Y-105156000D02*
X112519989Y-108458000D01*
X101600000Y-105156000D02*
X109217989Y-105156000D01*
X136460001Y-79564001D02*
X137160000Y-80264000D01*
X135547998Y-78651998D02*
X136460001Y-79564001D01*
X132080000Y-80264000D02*
X132080000Y-79513996D01*
X132941998Y-78651998D02*
X135547998Y-78651998D01*
X132080000Y-79513996D02*
X132941998Y-78651998D01*
X124343800Y-90347800D02*
X124460000Y-90464000D01*
X122453400Y-90347800D02*
X124343800Y-90347800D01*
X112463200Y-91948000D02*
X111226600Y-91948000D01*
X108418000Y-91948000D02*
X111226600Y-91948000D01*
X107696000Y-92670000D02*
X108418000Y-91948000D01*
X117627400Y-100852600D02*
X117388000Y-101092000D01*
X117627400Y-97561400D02*
X117627400Y-100852600D01*
X114452400Y-86334600D02*
X114452400Y-84774400D01*
X114452400Y-84774400D02*
X113752000Y-84074000D01*
X117627400Y-93580042D02*
X120859642Y-90347800D01*
X117627400Y-93937200D02*
X117627400Y-93580042D01*
X120859642Y-90347800D02*
X121216800Y-90347800D01*
X121216800Y-90347800D02*
X122453400Y-90347800D01*
X101600000Y-98766000D02*
X107696000Y-92670000D01*
X101600000Y-105156000D02*
X101600000Y-98766000D01*
X117240427Y-96329315D02*
X117240427Y-94324173D01*
X117627400Y-96716288D02*
X117240427Y-96329315D01*
X117240427Y-94324173D02*
X117627400Y-93937200D01*
X117627400Y-97561400D02*
X117627400Y-96716288D01*
X112463200Y-91948000D02*
X113626001Y-93110801D01*
X113626001Y-93110801D02*
X113626001Y-93332093D01*
X113626001Y-93332093D02*
X114231108Y-93937200D01*
X114231108Y-93937200D02*
X117627400Y-93937200D01*
X114499527Y-88460431D02*
X113979984Y-88979974D01*
X114328342Y-91596900D02*
X114223900Y-91701342D01*
X114223900Y-91701342D02*
X114223900Y-92159458D01*
X114452400Y-87571200D02*
X114499527Y-87618327D01*
X112923313Y-92408113D02*
X112463200Y-91948000D01*
X114223900Y-92159458D02*
X113975245Y-92408113D01*
X113975245Y-92408113D02*
X112923313Y-92408113D01*
X113979984Y-89795978D02*
X114328342Y-90144336D01*
X113979984Y-88979974D02*
X113979984Y-89795978D01*
X114499527Y-87618327D02*
X114499527Y-88460431D01*
X114452400Y-86334600D02*
X114452400Y-87571200D01*
X114328342Y-90144336D02*
X114328342Y-91596900D01*
X175913999Y-86722001D02*
X175514000Y-87122000D01*
X184404000Y-84074000D02*
X178562000Y-84074000D01*
X178562000Y-84074000D02*
X175913999Y-86722001D01*
X164691998Y-83908002D02*
X171341679Y-83908002D01*
X139446000Y-80264000D02*
X140627998Y-79082002D01*
X159865998Y-79082002D02*
X164691998Y-83908002D01*
X171341679Y-83908002D02*
X171704008Y-84270331D01*
X140627998Y-79082002D02*
X159865998Y-79082002D01*
X171704008Y-84270331D02*
X171704008Y-85032315D01*
X171704008Y-85032315D02*
X171704008Y-85598000D01*
X122017390Y-80264000D02*
X127000000Y-80264000D01*
X120659388Y-81622002D02*
X122017390Y-80264000D01*
X120317386Y-81280000D02*
X120659388Y-81622002D01*
X104328000Y-83042000D02*
X106090000Y-81280000D01*
X113752000Y-84074000D02*
X112482000Y-82804000D01*
X105228000Y-83042000D02*
X104328000Y-83042000D01*
X109498707Y-83042000D02*
X105228000Y-83042000D01*
X109736707Y-82804000D02*
X109498707Y-83042000D01*
X112482000Y-82804000D02*
X109736707Y-82804000D01*
X106172000Y-79006998D02*
X106172000Y-81280000D01*
X103772001Y-76606999D02*
X106172000Y-79006998D01*
X98994000Y-80160998D02*
X102547999Y-76606999D01*
X102547999Y-76606999D02*
X103772001Y-76606999D01*
X98994000Y-83042000D02*
X98994000Y-80160998D01*
X106172000Y-81280000D02*
X120317386Y-81280000D01*
X106090000Y-81280000D02*
X106172000Y-81280000D01*
X118110000Y-72390000D02*
X119380000Y-73660000D01*
X118110000Y-70358000D02*
X118110000Y-72390000D01*
D34*
X121056400Y-86106000D02*
X120827800Y-86334600D01*
X123444000Y-86106000D02*
X121056400Y-86106000D01*
D33*
X176467999Y-79564001D02*
X175768000Y-80264000D01*
X176498601Y-79533399D02*
X176467999Y-79564001D01*
X191547399Y-79533399D02*
X176498601Y-79533399D01*
X192786000Y-80772000D02*
X191547399Y-79533399D01*
D34*
X176142014Y-81814012D02*
X177026000Y-82697998D01*
X175032012Y-81814012D02*
X176142014Y-81814012D01*
X177026000Y-82697998D02*
X185780002Y-82697998D01*
X185780002Y-82697998D02*
X186842401Y-81635599D01*
X173482000Y-80264000D02*
X175032012Y-81814012D01*
X186842401Y-81635599D02*
X187706000Y-80772000D01*
X116052600Y-87371200D02*
X115599549Y-87824251D01*
X115599549Y-87824251D02*
X115599549Y-89285849D01*
X116052600Y-86334600D02*
X116052600Y-87371200D01*
X115599549Y-89285849D02*
X115822653Y-89508953D01*
X134259550Y-88149999D02*
X151321598Y-88149999D01*
X133200528Y-89209021D02*
X134259550Y-88149999D01*
X166436707Y-89398978D02*
X170434000Y-85401685D01*
X151321598Y-88149999D02*
X152570577Y-89398978D01*
X152570577Y-89398978D02*
X166436707Y-89398978D01*
X170434000Y-85401685D02*
X170434000Y-84836000D01*
X171196000Y-80264000D02*
X172246001Y-79213999D01*
X174532001Y-80582003D02*
X175263999Y-81314001D01*
X173986001Y-79213999D02*
X174532001Y-79759999D01*
X174532001Y-79759999D02*
X174532001Y-80582003D01*
X175263999Y-81314001D02*
X176349127Y-81314001D01*
X184302401Y-81635599D02*
X185166000Y-80772000D01*
X172246001Y-79213999D02*
X173986001Y-79213999D01*
X177020727Y-81985601D02*
X183952399Y-81985601D01*
X183952399Y-81985601D02*
X184302401Y-81635599D01*
X176349127Y-81314001D02*
X177020727Y-81985601D01*
X132326010Y-91955992D02*
X125488000Y-98794002D01*
X120040400Y-98598000D02*
X120040400Y-97561400D01*
X120236402Y-98794002D02*
X120040400Y-98598000D01*
X125488000Y-98794002D02*
X120236402Y-98794002D01*
X145295992Y-91955992D02*
X132326010Y-91955992D01*
D33*
X162166635Y-90424000D02*
X162933647Y-91191012D01*
X162933647Y-91191012D02*
X170174988Y-91191012D01*
X172961801Y-88404199D02*
X172961801Y-83871974D01*
X172961801Y-83871974D02*
X172961801Y-83306289D01*
X170174988Y-91191012D02*
X172961801Y-88404199D01*
X145295992Y-91955992D02*
X146827984Y-90424000D01*
X146827984Y-90424000D02*
X162166635Y-90424000D01*
D34*
X168910000Y-80264000D02*
X170688000Y-78486000D01*
X170688000Y-78486000D02*
X180340000Y-78486000D01*
X152915989Y-91193989D02*
X153162000Y-91186000D01*
X170392454Y-91716023D02*
X173711802Y-88396675D01*
X169609999Y-80963999D02*
X168910000Y-80264000D01*
X173711802Y-82946288D02*
X173321802Y-82556288D01*
X173321802Y-82556288D02*
X171202288Y-82556288D01*
X171202288Y-82556288D02*
X169609999Y-80963999D01*
X153162000Y-91186000D02*
X153692023Y-91716023D01*
X153692023Y-91716023D02*
X170392454Y-91716023D01*
X173711802Y-88396675D02*
X173711802Y-82946288D01*
X115239800Y-97561400D02*
X115239800Y-98598000D01*
X150379999Y-93968001D02*
X153162000Y-91186000D01*
X116051786Y-103242021D02*
X120854225Y-103242021D01*
X148315979Y-93968001D02*
X150379999Y-93968001D01*
X115078078Y-102268313D02*
X116051786Y-103242021D01*
X121761292Y-102334954D02*
X124068411Y-102334954D01*
X147868947Y-93520969D02*
X148315979Y-93968001D01*
X132882398Y-93520968D02*
X147868947Y-93520969D01*
X115239800Y-98598000D02*
X115078078Y-98759722D01*
X115078078Y-98759722D02*
X115078078Y-102268313D01*
X120854225Y-103242021D02*
X121761292Y-102334954D01*
X124068411Y-102334954D02*
X132882398Y-93520968D01*
D32*
X128228216Y-122682000D02*
X128228216Y-127178069D01*
X125730000Y-122682000D02*
X128228216Y-122682000D01*
X125730000Y-123134125D02*
X125730000Y-122682000D01*
X125693296Y-127670829D02*
X125693296Y-123170829D01*
X125693296Y-123170829D02*
X125730000Y-123134125D01*
D34*
X152831801Y-95427801D02*
X153670000Y-96266000D01*
D35*
X148088143Y-95102799D02*
X152506799Y-95102799D01*
X142951663Y-95102799D02*
X146608337Y-95102799D01*
X142965004Y-98717816D02*
X142323296Y-98076108D01*
X143473296Y-127670829D02*
X143473296Y-123420829D01*
X142323296Y-122270829D02*
X142323296Y-107415706D01*
X143473296Y-123420829D02*
X142323296Y-122270829D01*
X146608337Y-95102799D02*
X147169411Y-95663873D01*
X142323296Y-107415706D02*
X142965004Y-106773998D01*
X147169411Y-95663873D02*
X147527069Y-95663873D01*
X142323296Y-98076108D02*
X142323296Y-95731166D01*
X147527069Y-95663873D02*
X148088143Y-95102799D01*
X142323296Y-95731166D02*
X142951663Y-95102799D01*
X142965004Y-106773998D02*
X142965004Y-98717816D01*
X152506799Y-95102799D02*
X152831801Y-95427801D01*
D34*
X121061337Y-103742031D02*
X121968402Y-102834966D01*
X121968402Y-102834966D02*
X124275521Y-102834966D01*
X133089509Y-94020979D02*
X147649011Y-94020979D01*
X151872012Y-94468012D02*
X152831801Y-95427801D01*
X148096045Y-94468013D02*
X151872012Y-94468012D01*
X114452400Y-102349757D02*
X115844674Y-103742031D01*
X115844674Y-103742031D02*
X121061337Y-103742031D01*
X147649011Y-94020979D02*
X148096045Y-94468013D01*
X114452400Y-97561400D02*
X114452400Y-102349757D01*
X124275521Y-102834966D02*
X133089509Y-94020979D01*
D35*
X155371801Y-95427801D02*
X156210000Y-96266000D01*
D34*
X116840000Y-98598000D02*
X116078099Y-99359901D01*
X116078099Y-99359901D02*
X116078099Y-101484101D01*
X150818315Y-91453010D02*
X151384000Y-91453010D01*
X116078099Y-101484101D02*
X116835999Y-102242001D01*
X132508119Y-92481003D02*
X145930995Y-92481003D01*
X146958988Y-91453010D02*
X150818315Y-91453010D01*
X120440001Y-102242001D02*
X121347070Y-101334932D01*
X121347070Y-101334932D02*
X123654189Y-101334932D01*
X145930995Y-92481003D02*
X146958988Y-91453010D01*
X123654189Y-101334932D02*
X132508119Y-92481003D01*
X116840000Y-97561400D02*
X116840000Y-98598000D01*
X116835999Y-102242001D02*
X120440001Y-102242001D01*
D35*
X144863296Y-127670829D02*
X144780000Y-127587533D01*
X144780000Y-105467685D02*
X144780000Y-104902000D01*
X146013296Y-127670829D02*
X144863296Y-127670829D01*
X144780000Y-127587533D02*
X144780000Y-105467685D01*
X133473243Y-94495990D02*
X147026843Y-94495990D01*
X147026843Y-94495990D02*
X147346043Y-94815190D01*
X133316445Y-94652788D02*
X133473243Y-94495990D01*
D34*
X133139822Y-94677788D02*
X133316445Y-94677787D01*
X112852200Y-97561400D02*
X112852200Y-101456679D01*
X124482633Y-103334977D02*
X133139822Y-94677788D01*
X112852200Y-101456679D02*
X115637562Y-104242041D01*
X115637562Y-104242041D02*
X121268449Y-104242041D01*
X122175513Y-103334977D02*
X124482633Y-103334977D01*
X121268449Y-104242041D02*
X122175513Y-103334977D01*
D35*
X146412001Y-100984005D02*
X146812000Y-100584006D01*
X146717998Y-106897002D02*
X146340998Y-106520002D01*
X146340998Y-106520002D02*
X146340998Y-101055008D01*
X149860004Y-107367601D02*
X149389405Y-106897002D01*
X149389405Y-106897002D02*
X146717998Y-106897002D01*
X149860004Y-114300000D02*
X149860004Y-107367601D01*
X146340998Y-101055008D02*
X146412001Y-100984005D01*
D34*
X116258898Y-102742011D02*
X120647113Y-102742011D01*
X148278343Y-92964000D02*
X148844028Y-92964000D01*
X115578088Y-99152790D02*
X115578088Y-102061201D01*
X115578088Y-102061201D02*
X116258898Y-102742011D01*
X116052600Y-98678278D02*
X115578088Y-99152790D01*
X132715230Y-92981014D02*
X148261329Y-92981014D01*
X116052600Y-97561400D02*
X116052600Y-98678278D01*
X121554181Y-101834943D02*
X123861300Y-101834943D01*
X123861300Y-101834943D02*
X132715230Y-92981014D01*
X148261329Y-92981014D02*
X148278343Y-92964000D01*
X120647113Y-102742011D02*
X121554181Y-101834943D01*
X136805293Y-89934013D02*
X137370978Y-89934013D01*
X131857379Y-89959022D02*
X136780284Y-89959022D01*
X136780284Y-89959022D02*
X136805293Y-89934013D01*
X125880601Y-95935800D02*
X131857379Y-89959022D01*
X122453400Y-95935800D02*
X125880601Y-95935800D01*
X147238201Y-109740205D02*
X147238201Y-122055734D01*
X143510000Y-96266000D02*
X145530001Y-98286001D01*
X148553296Y-123370829D02*
X148553296Y-127670829D01*
X145530001Y-108032005D02*
X147238201Y-109740205D01*
X147238201Y-122055734D02*
X148553296Y-123370829D01*
X145530001Y-98286001D02*
X145530001Y-108032005D01*
D35*
X152383060Y-116663198D02*
X152383060Y-117228883D01*
X156173001Y-106099317D02*
X156173001Y-106520001D01*
X146888199Y-97104199D02*
X147177883Y-97104199D01*
X156173001Y-106520001D02*
X152383060Y-110309942D01*
X152383060Y-110309942D02*
X152383060Y-116663198D01*
X147177883Y-97104199D02*
X156173001Y-106099317D01*
X146050000Y-96266000D02*
X146888199Y-97104199D01*
D34*
X120827800Y-97561400D02*
X121381800Y-97561400D01*
X125264880Y-97293998D02*
X131849855Y-90709023D01*
X121381800Y-97561400D02*
X121649202Y-97293998D01*
X121649202Y-97293998D02*
X125264880Y-97293998D01*
D33*
X140684977Y-90709023D02*
X140716000Y-90678000D01*
X131849855Y-90709023D02*
X140684977Y-90709023D01*
D35*
X156173296Y-122137296D02*
X155956000Y-121920000D01*
X156173296Y-127670829D02*
X156173296Y-122137296D01*
X158750000Y-96266000D02*
X156972000Y-98044000D01*
X154686000Y-114750315D02*
X155034002Y-114402313D01*
X156972000Y-98044000D02*
X156972000Y-101092000D01*
X156972000Y-107245004D02*
X156972000Y-101657685D01*
X154686000Y-115316000D02*
X154686000Y-114750315D01*
X156972000Y-101657685D02*
X156972000Y-101092000D01*
X155034002Y-114402313D02*
X155034002Y-109183002D01*
X155034002Y-109183002D02*
X156972000Y-107245004D01*
D34*
X120040400Y-87669474D02*
X119281725Y-88428149D01*
X120040400Y-86334600D02*
X120040400Y-87669474D01*
X113639600Y-86334600D02*
X113639600Y-88074243D01*
X113639600Y-88074243D02*
X113649520Y-88084163D01*
X181297716Y-119029822D02*
X180693538Y-119634000D01*
X180693538Y-119634000D02*
X154432000Y-119634000D01*
X139733296Y-110617298D02*
X139733296Y-122170829D01*
X139733296Y-122170829D02*
X140933296Y-123370829D01*
X140933296Y-123370829D02*
X140933296Y-127670829D01*
X140970000Y-96266000D02*
X136663999Y-100572001D01*
X136663999Y-100572001D02*
X136663999Y-107548001D01*
X136663999Y-107548001D02*
X139733296Y-110617298D01*
D33*
X116840000Y-88168560D02*
X116349550Y-88659010D01*
X116840000Y-86334600D02*
X116840000Y-88168560D01*
D34*
X132292618Y-106644394D02*
X132858303Y-106644394D01*
X119019998Y-106792082D02*
X132144930Y-106792082D01*
X118726940Y-106499024D02*
X119019998Y-106792082D01*
X113466780Y-106499024D02*
X118726940Y-106499024D01*
X110190000Y-94335600D02*
X109293978Y-95231622D01*
X132144930Y-106792082D02*
X132292618Y-106644394D01*
X109293978Y-95231622D02*
X109293978Y-102326222D01*
X109293978Y-102326222D02*
X113466780Y-106499024D01*
X111226600Y-94335600D02*
X110190000Y-94335600D01*
X135890000Y-127634125D02*
X135853296Y-127670829D01*
X135890000Y-111506000D02*
X135890000Y-127634125D01*
X111212387Y-87391987D02*
X110293685Y-87391987D01*
X111226600Y-87960200D02*
X111226600Y-87406200D01*
X111226600Y-87406200D02*
X111212387Y-87391987D01*
X110293685Y-87391987D02*
X109728000Y-87391987D01*
D33*
X135890000Y-111506000D02*
X135890000Y-108580060D01*
X132973936Y-105663996D02*
X123247685Y-105663996D01*
X135890000Y-108580060D02*
X132973936Y-105663996D01*
X123247685Y-105663996D02*
X122682000Y-105663996D01*
D35*
X131660362Y-108726192D02*
X129046196Y-108726192D01*
X129046196Y-108726192D02*
X129032004Y-108712000D01*
D34*
X111226600Y-101101086D02*
X114867565Y-104742051D01*
X111226600Y-95935800D02*
X111226600Y-101101086D01*
X121475561Y-104742051D02*
X122132633Y-104084979D01*
X122132633Y-104084979D02*
X123519793Y-104084979D01*
X123519793Y-104084979D02*
X124085478Y-104084979D01*
X114867565Y-104742051D02*
X121475561Y-104742051D01*
X137078201Y-122055734D02*
X138393296Y-123370829D01*
X137078201Y-108669325D02*
X137078201Y-122055734D01*
X135890000Y-107481124D02*
X137078201Y-108669325D01*
X135890000Y-96266000D02*
X135890000Y-107481124D01*
X138393296Y-123370829D02*
X138393296Y-127670829D01*
X115099538Y-87511462D02*
X115099538Y-89118424D01*
X115099538Y-89118424D02*
X114829986Y-89387976D01*
X115239800Y-86334600D02*
X115239800Y-87371200D01*
X115239800Y-87371200D02*
X115099538Y-87511462D01*
X118519837Y-106999035D02*
X118924190Y-107403388D01*
X132910176Y-107403388D02*
X134188199Y-108681411D01*
X134188199Y-108681411D02*
X134188199Y-110667801D01*
X134188199Y-110667801D02*
X133350000Y-111506000D01*
X111226600Y-92735400D02*
X110190000Y-92735400D01*
X108793968Y-102533334D02*
X113259669Y-106999035D01*
X108793967Y-94131433D02*
X108793968Y-102533334D01*
X113259669Y-106999035D02*
X118519837Y-106999035D01*
X118924190Y-107403388D02*
X132910176Y-107403388D01*
X110190000Y-92735400D02*
X108793967Y-94131433D01*
X110190000Y-95148400D02*
X111226600Y-95148400D01*
X109793988Y-95544412D02*
X110190000Y-95148400D01*
X109793988Y-102119110D02*
X109793988Y-95544412D01*
X113298928Y-105624050D02*
X109793988Y-102119110D01*
X118149950Y-105624050D02*
X113298928Y-105624050D01*
X118364000Y-105410000D02*
X118149950Y-105624050D01*
D33*
X122071092Y-104888996D02*
X121550088Y-105410000D01*
X123307986Y-104888996D02*
X122071092Y-104888996D01*
X123307992Y-104888990D02*
X123307986Y-104888996D01*
X121550088Y-105410000D02*
X118364000Y-105410000D01*
X126759004Y-104888996D02*
X123307992Y-104888990D01*
X137216799Y-95052799D02*
X135307663Y-95052799D01*
X138430000Y-96266000D02*
X137216799Y-95052799D01*
X135307663Y-95052799D02*
X134620000Y-95740462D01*
X134620000Y-97028000D02*
X126759004Y-104888996D01*
X134620000Y-95740462D02*
X134620000Y-97028000D01*
X97827999Y-87084001D02*
X97028000Y-87884000D01*
X98203001Y-86708999D02*
X97827999Y-87084001D01*
X98203001Y-84951001D02*
X98203001Y-86708999D01*
X97094000Y-83842000D02*
X98203001Y-84951001D01*
X97094000Y-83042000D02*
X97094000Y-83842000D01*
X102428000Y-85572000D02*
X102402000Y-85598000D01*
X102428000Y-83042000D02*
X102428000Y-85572000D01*
D32*
X111492000Y-114758000D02*
X111492000Y-116826000D01*
X111492000Y-116826000D02*
X111506000Y-116840000D01*
X166410000Y-75184000D02*
X164846000Y-76748000D01*
X168910000Y-75184000D02*
X166410000Y-75184000D01*
D33*
X97674999Y-84422999D02*
X101226999Y-84422999D01*
X97094000Y-83842000D02*
X97674999Y-84422999D01*
X101226999Y-84422999D02*
X101602001Y-84798001D01*
X101602001Y-84798001D02*
X102402000Y-85598000D01*
D32*
X124231400Y-92735400D02*
X124460000Y-92964000D01*
X122453400Y-92735400D02*
X124231400Y-92735400D01*
X122453400Y-92735400D02*
X122453400Y-91160600D01*
X111252000Y-84734400D02*
X112852200Y-86334600D01*
X111252000Y-84074000D02*
X111252000Y-84734400D01*
X118440200Y-99644200D02*
X119888000Y-101092000D01*
X118440200Y-97561400D02*
X118440200Y-99644200D01*
X123941860Y-94335600D02*
X124460000Y-93817460D01*
X124460000Y-93817460D02*
X124460000Y-92964000D01*
X122453400Y-94335600D02*
X123941860Y-94335600D01*
X108773990Y-91247990D02*
X108495999Y-90969999D01*
X111143201Y-91243999D02*
X110129999Y-91243999D01*
X110129999Y-91243999D02*
X110126008Y-91247990D01*
X110126008Y-91247990D02*
X108773990Y-91247990D01*
X111226600Y-91160600D02*
X111143201Y-91243999D01*
X108495999Y-90969999D02*
X107696000Y-90170000D01*
D34*
X185743999Y-85274001D02*
X181425999Y-85274001D01*
X186944000Y-84074000D02*
X185743999Y-85274001D01*
X171958000Y-94742000D02*
X167640000Y-94742000D01*
X181425999Y-85274001D02*
X171958000Y-94742000D01*
D32*
X113639600Y-96418400D02*
X113792000Y-96266000D01*
X113639600Y-97561400D02*
X113639600Y-96418400D01*
X115133706Y-93017321D02*
X114568021Y-93017321D01*
X118275999Y-90246005D02*
X115504683Y-93017321D01*
X118444013Y-88238534D02*
X118275999Y-88406548D01*
X118444013Y-86338413D02*
X118444013Y-88238534D01*
X115504683Y-93017321D02*
X115133706Y-93017321D01*
X113013189Y-91160600D02*
X113389872Y-91537283D01*
X118275999Y-88406548D02*
X118275999Y-90246005D01*
X118440200Y-86334600D02*
X118444013Y-86338413D01*
X111226600Y-91160600D02*
X113013189Y-91160600D01*
X121266799Y-92750765D02*
X120824803Y-92308769D01*
X122453400Y-94335600D02*
X121216800Y-94335600D01*
X120824803Y-92308769D02*
X119892808Y-92308769D01*
X118527589Y-95500269D02*
X118097315Y-95930543D01*
X121216800Y-94335600D02*
X121216800Y-93651525D01*
X118527589Y-93673988D02*
X118527589Y-95500269D01*
X121266799Y-93601526D02*
X121266799Y-92750765D01*
X118440200Y-96273428D02*
X118097315Y-95930543D01*
X121216800Y-93651525D02*
X121266799Y-93601526D01*
X119892808Y-92308769D02*
X118527589Y-93673988D01*
X118440200Y-97561400D02*
X118440200Y-96273428D01*
X112852200Y-86334600D02*
X112852200Y-87571200D01*
X112799518Y-90946929D02*
X112989873Y-91137284D01*
X112799518Y-87623882D02*
X112799518Y-90946929D01*
X112852200Y-87571200D02*
X112799518Y-87623882D01*
X112989873Y-91137284D02*
X113389872Y-91537283D01*
D34*
X176530000Y-109220000D02*
X167132000Y-118618000D01*
X166333296Y-122972704D02*
X166333296Y-127670829D01*
X167132000Y-122174000D02*
X166333296Y-122972704D01*
X163151113Y-90666002D02*
X163310002Y-90666002D01*
X117627400Y-86334600D02*
X117627400Y-89555846D01*
X117627400Y-89555846D02*
X115073902Y-92109344D01*
X163310002Y-90666002D02*
X169603968Y-90666002D01*
X170508948Y-89761022D02*
X170908947Y-89361023D01*
X169603968Y-90666002D02*
X170508948Y-89761022D01*
X141076002Y-91428002D02*
X132091998Y-91428002D01*
X123755685Y-98044000D02*
X123190000Y-98044000D01*
X162542989Y-89898989D02*
X142605015Y-89898989D01*
X142605015Y-89898989D02*
X141076002Y-91428002D01*
X125476000Y-98044000D02*
X123755685Y-98044000D01*
X163310002Y-90666002D02*
X162542989Y-89898989D01*
X132091998Y-91428002D02*
X125476000Y-98044000D01*
X111226600Y-90347800D02*
X110142906Y-90347800D01*
X110142906Y-90347800D02*
X110096039Y-90394667D01*
X166683266Y-85584590D02*
X166283267Y-85984589D01*
X166283267Y-85984589D02*
X129679988Y-85984589D01*
X120934898Y-83679989D02*
X118177093Y-83679989D01*
X118177093Y-83679989D02*
X117611408Y-83679989D01*
X129679988Y-85984589D02*
X126843348Y-83147949D01*
X126843348Y-83147949D02*
X121466938Y-83147949D01*
X121466938Y-83147949D02*
X120934898Y-83679989D01*
X124086636Y-85247999D02*
X124442021Y-85603384D01*
X119227600Y-85298000D02*
X119277601Y-85247999D01*
X119227600Y-86334600D02*
X119227600Y-85298000D01*
X124442021Y-85603384D02*
X124442021Y-86169069D01*
X119277601Y-85247999D02*
X124086636Y-85247999D01*
D32*
X119227600Y-97561400D02*
X119227600Y-94347968D01*
X119227600Y-94347968D02*
X120416799Y-93158769D01*
X122801999Y-75318001D02*
X119380000Y-78740000D01*
X125876050Y-75318001D02*
X122801999Y-75318001D01*
X127000000Y-75184000D02*
X126010051Y-75184000D01*
X126010051Y-75184000D02*
X125876050Y-75318001D01*
X129540000Y-72390000D02*
X129540000Y-75184000D01*
D36*
X120909645Y-88426590D02*
X120343960Y-88426590D01*
X122453400Y-88747600D02*
X121230655Y-88747600D01*
X121230655Y-88747600D02*
X120909645Y-88426590D01*
D32*
X132080000Y-72390000D02*
X132080000Y-75184000D01*
D36*
X121956106Y-87786348D02*
X121390421Y-87786348D01*
X122453400Y-87960200D02*
X122279548Y-87786348D01*
X122279548Y-87786348D02*
X121956106Y-87786348D01*
D32*
X137160000Y-72390000D02*
X137160000Y-72644000D01*
D36*
X111302800Y-93472000D02*
X111226600Y-93548200D01*
X112776000Y-93472000D02*
X111302800Y-93472000D01*
X121044943Y-84679946D02*
X118166664Y-84679946D01*
X121826939Y-83897950D02*
X121044943Y-84679946D01*
X118166664Y-84679946D02*
X117600979Y-84679946D01*
D32*
X120980388Y-89560400D02*
X120904000Y-89484012D01*
X122453400Y-89560400D02*
X120980388Y-89560400D01*
D35*
X133313296Y-114336704D02*
X133313296Y-127670829D01*
X134874000Y-112776000D02*
X133313296Y-114336704D01*
D34*
X109834058Y-89560400D02*
X109663594Y-89389936D01*
X111226600Y-89560400D02*
X109834058Y-89560400D01*
D35*
X134874000Y-112776000D02*
X130047998Y-112776000D01*
X130047998Y-112776000D02*
X129032000Y-111760002D01*
X153556967Y-117702771D02*
X153156968Y-118102770D01*
X160126799Y-110342799D02*
X158191663Y-110342799D01*
X158191663Y-110342799D02*
X157586799Y-110947663D01*
X157586799Y-110947663D02*
X157586799Y-113672939D01*
X157586799Y-113672939D02*
X153556967Y-117702771D01*
X161290000Y-111506000D02*
X160126799Y-110342799D01*
X151093296Y-120940704D02*
X151130000Y-120904000D01*
X151093296Y-127670829D02*
X151093296Y-120940704D01*
X158750000Y-111506000D02*
X158750000Y-113901785D01*
X158750000Y-113901785D02*
X153728242Y-118923543D01*
X153633296Y-121629296D02*
X152908000Y-120904000D01*
X153633296Y-127670829D02*
X153633296Y-121629296D01*
D34*
X154071999Y-120638001D02*
X155980468Y-120638001D01*
X148590000Y-111506000D02*
X148590000Y-115156002D01*
X158713296Y-123370829D02*
X158713296Y-127670829D01*
X155980468Y-120638001D02*
X158713296Y-123370829D01*
X148590000Y-115156002D02*
X154071999Y-120638001D01*
D32*
X180732031Y-120370564D02*
X181297716Y-120370564D01*
X164053561Y-120370564D02*
X180732031Y-120370564D01*
X161253296Y-127670829D02*
X161253296Y-123170829D01*
X161253296Y-123170829D02*
X164053561Y-120370564D01*
D35*
X176937599Y-103895001D02*
X172877989Y-107954611D01*
X172877989Y-107954611D02*
X172477990Y-108354610D01*
X183201919Y-103124000D02*
X182798269Y-103527650D01*
X184404000Y-103124000D02*
X183201919Y-103124000D01*
X179379906Y-103527650D02*
X179012555Y-103895001D01*
X179012555Y-103895001D02*
X176937599Y-103895001D01*
X182798269Y-103527650D02*
X179379906Y-103527650D01*
D34*
X110083600Y-88747600D02*
X109728000Y-88392000D01*
X111226600Y-88747600D02*
X110083600Y-88747600D01*
X157707447Y-82264024D02*
X121643741Y-82264024D01*
X121103765Y-82804000D02*
X118291664Y-82804000D01*
X160528002Y-85084579D02*
X157707447Y-82264024D01*
X118291664Y-82804000D02*
X118167685Y-82680021D01*
X118167685Y-82680021D02*
X117602000Y-82680021D01*
X121643741Y-82264024D02*
X121103765Y-82804000D01*
X171413296Y-127670829D02*
X171413296Y-122464704D01*
X171413296Y-122464704D02*
X171450000Y-122428000D01*
X167145173Y-87091628D02*
X167178479Y-87058322D01*
X167145173Y-87091628D02*
X167609628Y-87091628D01*
X167609628Y-87091628D02*
X167640000Y-87122000D01*
X122453400Y-95148400D02*
X123977602Y-95148400D01*
X167122791Y-87114010D02*
X167145173Y-87091628D01*
X123977602Y-95148400D02*
X132011992Y-87114010D01*
X132011992Y-87114010D02*
X167122791Y-87114010D01*
D32*
X184404000Y-101016002D02*
X184404000Y-100584000D01*
D34*
X179070000Y-127634125D02*
X179033296Y-127670829D01*
X179070000Y-122174000D02*
X179070000Y-127634125D01*
D32*
X186944000Y-115824000D02*
X186944000Y-113284000D01*
D34*
X186367999Y-111944001D02*
X185743999Y-111320001D01*
X185743999Y-111320001D02*
X185743999Y-110559999D01*
X186944000Y-113284000D02*
X186944000Y-112522000D01*
X186367999Y-111945999D02*
X186367999Y-111944001D01*
X186944000Y-112522000D02*
X186367999Y-111945999D01*
X185235999Y-107003999D02*
X182187999Y-107003999D01*
X180336661Y-105152661D02*
X179936662Y-104752662D01*
X185743999Y-107511999D02*
X185235999Y-107003999D01*
X185743999Y-110674001D02*
X185743999Y-107511999D01*
X182187999Y-107003999D02*
X180336661Y-105152661D01*
X167508200Y-96266000D02*
X169274210Y-98032010D01*
X175674589Y-98032010D02*
X176240274Y-98032010D01*
X169274210Y-98032010D02*
X175674589Y-98032010D01*
X166370000Y-96266000D02*
X167508200Y-96266000D01*
D32*
X183103999Y-109504001D02*
X183554001Y-109053999D01*
X181573296Y-122297246D02*
X183226009Y-120644533D01*
X181573296Y-127670829D02*
X181573296Y-122297246D01*
X183103999Y-119771457D02*
X183103999Y-109504001D01*
X183226009Y-119893467D02*
X183103999Y-119771457D01*
X183226009Y-120644533D02*
X183226009Y-119893467D01*
X183554001Y-109053999D02*
X184404000Y-108204000D01*
D34*
X179551949Y-100584000D02*
X180751950Y-99383999D01*
X185743999Y-99383999D02*
X186094001Y-99734001D01*
X178562000Y-100584000D02*
X179551949Y-100584000D01*
X180751950Y-99383999D02*
X185743999Y-99383999D01*
X186094001Y-99734001D02*
X186944000Y-100584000D01*
X176784000Y-98806000D02*
X176022000Y-98806000D01*
X178562000Y-100584000D02*
X176784000Y-98806000D01*
D35*
X176022000Y-98806000D02*
X158241996Y-98806000D01*
X149098000Y-107696000D02*
X148336000Y-108458000D01*
X148336000Y-108458000D02*
X147320000Y-108458000D01*
D34*
X185743999Y-101923999D02*
X186094001Y-102274001D01*
X180497950Y-101923999D02*
X185743999Y-101923999D01*
X179551949Y-102870000D02*
X180497950Y-101923999D01*
X186094001Y-102274001D02*
X186944000Y-103124000D01*
X178562000Y-102870000D02*
X179551949Y-102870000D01*
X163830000Y-110320607D02*
X163830000Y-111506000D01*
X177322002Y-102870000D02*
X173986001Y-99533999D01*
X178562000Y-102870000D02*
X177322002Y-102870000D01*
X173986001Y-99533999D02*
X172977999Y-99533999D01*
X163830000Y-108681998D02*
X163830000Y-110320607D01*
X172977999Y-99533999D02*
X163830000Y-108681998D01*
D32*
X186944000Y-110744000D02*
X186944000Y-105664000D01*
D34*
X178562000Y-105017322D02*
X179576661Y-104002661D01*
X180296663Y-104002661D02*
X180686663Y-104392661D01*
X178562000Y-105156000D02*
X178562000Y-105017322D01*
X186094001Y-104814001D02*
X186944000Y-105664000D01*
X180686663Y-104392661D02*
X185672661Y-104392661D01*
X179576661Y-104002661D02*
X180296663Y-104002661D01*
X185672661Y-104392661D02*
X186094001Y-104814001D01*
X170033850Y-112694201D02*
X163259663Y-112694201D01*
X177572051Y-105156000D02*
X170033850Y-112694201D01*
X163259663Y-112694201D02*
X162641799Y-112076337D01*
X162641799Y-105745799D02*
X161943999Y-105047999D01*
X178562000Y-105156000D02*
X177572051Y-105156000D01*
X161943999Y-105047999D02*
X161544000Y-104648000D01*
X162641799Y-112076337D02*
X162641799Y-105745799D01*
D32*
X113030000Y-72390000D02*
X114300000Y-73660000D01*
X113030000Y-70358000D02*
X113030000Y-72390000D01*
X107950000Y-72390000D02*
X109220000Y-73660000D01*
X107950000Y-70358000D02*
X107950000Y-72390000D01*
D33*
X125703949Y-73660000D02*
X126238000Y-73660000D01*
X128225001Y-72978001D02*
X128225001Y-71164999D01*
X128690001Y-70699999D02*
X129540000Y-69850000D01*
X126238000Y-73660000D02*
X127543002Y-73660000D01*
X128225001Y-71164999D02*
X128690001Y-70699999D01*
X127543002Y-73660000D02*
X128225001Y-72978001D01*
X125195949Y-73660000D02*
X125476000Y-73660000D01*
X125476000Y-73660000D02*
X126238000Y-73660000D01*
X122443832Y-73660000D02*
X125476000Y-73660000D01*
X117363832Y-78740000D02*
X122443832Y-73660000D01*
X114300000Y-78740000D02*
X117363832Y-78740000D01*
X110209949Y-78740000D02*
X112241949Y-76708000D01*
X109220000Y-78740000D02*
X110209949Y-78740000D01*
X112241949Y-76708000D02*
X118618000Y-76708000D01*
X131230001Y-69000001D02*
X132080000Y-69850000D01*
X126411999Y-68624999D02*
X130854999Y-68624999D01*
X118618000Y-76418998D02*
X126411999Y-68624999D01*
X130854999Y-68624999D02*
X131230001Y-69000001D01*
X118618000Y-76708000D02*
X118618000Y-76418998D01*
D32*
X144018000Y-80264000D02*
X146304000Y-80264000D01*
X103611999Y-89134001D02*
X104062001Y-88683999D01*
X99528000Y-89015370D02*
X99646631Y-89134001D01*
X104062001Y-88683999D02*
X104862000Y-87884000D01*
X99646631Y-89134001D02*
X103611999Y-89134001D01*
X99528000Y-87884000D02*
X99528000Y-89015370D01*
X123082003Y-77832001D02*
X121049999Y-79864005D01*
X143618005Y-77832001D02*
X123082003Y-77832001D01*
X121049999Y-79864005D02*
X120650000Y-80264004D01*
X144018004Y-78232000D02*
X143618005Y-77832001D01*
D33*
X103378000Y-78100000D02*
X103160000Y-77882000D01*
X103378000Y-81042000D02*
X103378000Y-78100000D01*
X103378000Y-81842000D02*
X103378000Y-81042000D01*
X103378000Y-83617002D02*
X103378000Y-81842000D01*
X103577001Y-83816003D02*
X103378000Y-83617002D01*
X103577001Y-86668999D02*
X103577001Y-83816003D01*
X102362000Y-87884000D02*
X103577001Y-86668999D01*
D32*
X135319999Y-80963999D02*
X134620000Y-80264000D01*
X135770001Y-81414001D02*
X135319999Y-80963999D01*
X141571948Y-81414001D02*
X135770001Y-81414001D01*
X141732000Y-81253949D02*
X141571948Y-81414001D01*
X141732000Y-80264000D02*
X141732000Y-81253949D01*
D33*
X109943379Y-81905011D02*
X109718380Y-82130010D01*
X118500612Y-81905011D02*
X109943379Y-81905011D01*
X121426275Y-81739013D02*
X120918276Y-82247013D01*
X133144987Y-81739013D02*
X121426275Y-81739013D01*
X109718380Y-82130010D02*
X109152695Y-82130010D01*
X118842614Y-82247013D02*
X118500612Y-81905011D01*
X120918276Y-82247013D02*
X118842614Y-82247013D01*
X134620000Y-80264000D02*
X133144987Y-81739013D01*
X97282000Y-76604000D02*
X96560000Y-75882000D01*
X97294000Y-81042000D02*
X98044000Y-81042000D01*
X96228001Y-82107999D02*
X97294000Y-81042000D01*
X96228001Y-84798001D02*
X96228001Y-82107999D01*
X97028000Y-85598000D02*
X96228001Y-84798001D01*
X98044000Y-77366000D02*
X96560000Y-75882000D01*
X98044000Y-81042000D02*
X98044000Y-77366000D01*
X133920001Y-74484001D02*
X134620000Y-75184000D01*
X133394999Y-73958999D02*
X133920001Y-74484001D01*
X133394999Y-71075001D02*
X133394999Y-73958999D01*
X134620000Y-69850000D02*
X133394999Y-71075001D01*
D34*
X162560000Y-72390000D02*
X162560000Y-73592081D01*
X155607996Y-75184000D02*
X147293949Y-75184000D01*
X147293949Y-75184000D02*
X146304000Y-75184000D01*
X156611998Y-74179998D02*
X155607996Y-75184000D01*
X158336004Y-75184000D02*
X157332002Y-74179998D01*
X157332002Y-74179998D02*
X156611998Y-74179998D01*
X160968081Y-75184000D02*
X158336004Y-75184000D01*
X162560000Y-73592081D02*
X160968081Y-75184000D01*
X141987998Y-73914000D02*
X153417470Y-73914000D01*
X141039999Y-72966001D02*
X141987998Y-73914000D01*
X137160000Y-69850000D02*
X138499999Y-71189999D01*
X138499999Y-71189999D02*
X140276001Y-71189999D01*
X141039999Y-71953997D02*
X141039999Y-72966001D01*
X140276001Y-71189999D02*
X141039999Y-71953997D01*
D35*
X160128001Y-74022001D02*
X160528000Y-74422000D01*
X159810987Y-73704987D02*
X160128001Y-74022001D01*
X153417470Y-73914000D02*
X153626483Y-73704987D01*
X153626483Y-73704987D02*
X159810987Y-73704987D01*
D34*
X187400131Y-71050001D02*
X140900001Y-71050001D01*
X188144001Y-90493999D02*
X188144001Y-87210129D01*
X186944000Y-91694000D02*
X188144001Y-90493999D01*
X193999601Y-77649471D02*
X187400131Y-71050001D01*
X188144001Y-87210129D02*
X193999601Y-81354529D01*
X140900001Y-71050001D02*
X139700000Y-69850000D01*
X193999601Y-81354529D02*
X193999601Y-77649471D01*
X156972000Y-74930000D02*
X164592000Y-82550000D01*
X164592000Y-82550000D02*
X169164004Y-82550000D01*
D35*
X194949621Y-77628761D02*
X194949621Y-77185247D01*
X194924621Y-77653761D02*
X194949621Y-77628761D01*
X194924621Y-85237379D02*
X194924621Y-77653761D01*
X194949621Y-77185247D02*
X185914362Y-68149988D01*
X190246000Y-89916000D02*
X194924621Y-85237379D01*
X159180012Y-68149988D02*
X157480000Y-69850000D01*
X185914362Y-68149988D02*
X159180012Y-68149988D01*
X161195001Y-68674999D02*
X185732251Y-68674999D01*
X160020000Y-69850000D02*
X161195001Y-68674999D01*
X194291626Y-77269730D02*
X194474612Y-77452716D01*
X194291626Y-77234374D02*
X194291626Y-77269730D01*
X194291626Y-77234374D02*
X194499612Y-77442360D01*
X189495998Y-94222002D02*
X189495998Y-89555998D01*
X186944000Y-96774000D02*
X189495998Y-94222002D01*
X189495998Y-89555998D02*
X189495998Y-89396002D01*
X194474612Y-81551284D02*
X194474612Y-77382002D01*
X194056000Y-81969896D02*
X194474612Y-81551284D01*
X194056000Y-84836000D02*
X194056000Y-81969896D01*
X189495998Y-89396002D02*
X194056000Y-84836000D01*
X191913984Y-74821374D02*
X191878626Y-74821374D01*
X194474612Y-77382002D02*
X191913984Y-74821374D01*
X185732251Y-68674999D02*
X191878626Y-74821374D01*
X191878626Y-74821374D02*
X194291626Y-77234374D01*
M02*
