M48
; DRILL file {KiCad (5.1.5)-3} date 12/10/2020 17:18:42
; FORMAT={-:-/ absolute / inch / decimal}
; #@! TF.CreationDate,2020-10-12T17:18:42+01:00
; #@! TF.GenerationSoftware,Kicad,Pcbnew,(5.1.5)-3
; #@! TF.FileFunction,Plated,1,2,PTH
FMAT,2
INCH
T1C0.0157
T2C0.0276
T3C0.0315
T4C0.0354
T5C0.0394
T6C0.0400
T7C0.0433
T8C0.0440
%
G90
G05
T1
X4.2974Y-3.2335
X4.3175Y-3.5193
X4.32Y-3.4406
X4.32Y-3.48
X4.3345Y-3.5588
X4.39Y-4.6
X4.44Y-3.68
X4.4642Y-3.6038
X4.4744Y-3.4679
X4.48Y-3.79
X4.5106Y-3.6621
X4.5209Y-3.5192
X4.5305Y-3.6264
X4.5599Y-3.524
X4.5807Y-3.4905
X4.63Y-3.3339
X4.63Y-3.2551
X4.6304Y-3.2945
X4.6495Y-3.7768
X4.6961Y-3.4814
X4.738Y-3.4814
X4.7408Y-3.6677
X4.75Y-3.16
X4.76Y-3.523
X4.7792Y-3.4562
X4.7963Y-3.3031
X4.83Y-4.16
X4.85Y-3.86
X4.86Y-3.39
X4.8853Y-4.0978
X4.89Y-4.75
X4.8993Y-3.3925
X5.08Y-4.34
X5.08Y-4.4
X5.08Y-4.28
X5.1835Y-4.2806
X5.2306Y-4.1986
X5.24Y-4.28
X5.2441Y-3.5122
X5.31Y-4.44
X5.4083Y-3.5407
X5.41Y-4.18
X5.54Y-3.57
X5.59Y-4.18
X5.67Y-3.08
X5.7Y-4.13
X5.78Y-3.96
X5.8Y-4.27
X5.801Y-3.7329
X5.83Y-4.18
X5.86Y-3.66
X5.87Y-4.24
X5.9Y-4.5
X5.95Y-4.76
X5.96Y-3.6005
X5.9993Y-4.6153
X6.02Y-4.76
X6.0298Y-4.6497
X6.0523Y-4.682
X6.08Y-4.71
X6.09Y-4.54
X6.1164Y-4.1854
X6.14Y-4.8
X6.18Y-2.95
X6.23Y-3.89
X6.32Y-2.93
X6.32Y-3.3498
X6.36Y-4.12
X6.5119Y-3.4893
X6.5623Y-3.3695
X6.58Y-4.67
X6.58Y-4.81
X6.6Y-3.43
X6.6Y-3.73
X6.66Y-3.25
X6.71Y-3.34
X6.7287Y-3.5182
X6.75Y-4.82
X6.76Y-3.37
X6.7905Y-4.2659
X6.8095Y-3.2798
X6.91Y-3.43
X6.9386Y-3.8595
X6.95Y-4.3
X7.05Y-4.81
X7.0841Y-4.1241
X7.1Y-3.09
X7.1377Y-4.6862
X7.1377Y-4.739
X7.49Y-3.54
T2
X6.83Y-3.96
X7.03Y-3.96
X5.67Y-2.96
X5.67Y-3.16
X5.76Y-2.96
X5.76Y-3.16
X5.4Y-2.96
X5.4Y-3.16
X6.65Y-2.96
X6.65Y-3.16
X4.5Y-2.9
X4.5Y-3.1
X5.58Y-2.96
X5.58Y-3.16
X6.92Y-2.96
X6.92Y-3.16
X5.1Y-2.96
X5.1Y-3.16
X5.3Y-2.96
X5.3Y-3.16
X5.49Y-2.96
X5.49Y-3.16
X5.0Y-2.96
X5.0Y-3.16
X6.74Y-2.96
X6.74Y-3.16
X6.83Y-4.14
X7.03Y-4.14
X5.2Y-2.96
X5.2Y-3.16
X4.7Y-2.9
X4.7Y-3.1
X6.83Y-4.05
X7.03Y-4.05
X4.3Y-2.9
X4.3Y-3.1
X6.83Y-2.96
X6.83Y-3.16
T3
X4.0316Y-3.37
X4.13Y-3.37
X4.24Y-3.55
X4.24Y-3.6484
X4.9Y-3.5616
X4.9Y-3.66
X4.38Y-3.31
X4.4784Y-3.31
X4.6216Y-3.98
X4.72Y-3.98
X3.9016Y-4.14
X4.0Y-4.14
X4.03Y-3.46
X4.1284Y-3.46
X4.29Y-4.4316
X4.29Y-4.53
X3.82Y-3.37
X3.9184Y-3.37
X3.82Y-3.46
X3.9184Y-3.46
X6.68Y-4.23
X6.68Y-4.3284
X6.49Y-3.0216
X6.49Y-3.12
X4.29Y-4.2416
X4.29Y-4.34
T4
X4.45Y-2.77
X4.55Y-2.77
X4.25Y-2.77
X4.35Y-2.77
X4.65Y-2.77
X4.75Y-2.77
T5
X7.26Y-3.31
X7.26Y-3.41
X7.26Y-3.51
X7.26Y-3.61
X7.26Y-3.71
X7.26Y-3.81
X7.36Y-3.31
X7.36Y-3.41
X7.36Y-3.51
X7.36Y-3.61
X7.36Y-3.71
X7.36Y-3.81
X5.0Y-2.75
X5.0Y-2.85
X5.1Y-2.75
X5.1Y-2.85
X5.2Y-2.75
X5.2Y-2.85
X5.3Y-2.75
X5.3Y-2.85
X5.4Y-2.75
X5.4Y-2.85
X5.5Y-2.75
X5.5Y-2.85
X5.6Y-2.75
X5.6Y-2.85
X5.7Y-2.75
X5.7Y-2.85
X5.8Y-2.75
X5.8Y-2.85
X5.9Y-2.75
X5.9Y-2.85
X6.0Y-2.75
X6.0Y-2.85
X6.1Y-2.75
X6.1Y-2.85
X6.2Y-2.75
X6.2Y-2.85
X6.3Y-2.75
X6.3Y-2.85
X6.4Y-2.75
X6.4Y-2.85
X6.5Y-2.75
X6.5Y-2.85
X6.6Y-2.75
X6.6Y-2.85
X6.7Y-2.75
X6.7Y-2.85
X6.8Y-2.75
X6.8Y-2.85
X6.9Y-2.75
X6.9Y-2.85
X7.26Y-3.96
X7.26Y-4.06
X7.26Y-4.16
X7.26Y-4.26
X7.26Y-4.36
X7.26Y-4.46
X7.26Y-4.56
X7.36Y-3.96
X7.36Y-4.06
X7.36Y-4.16
X7.36Y-4.26
X7.36Y-4.36
X7.36Y-4.46
X7.36Y-4.56
T6
X7.19Y-3.08
X7.19Y-3.18
X7.29Y-3.08
X7.29Y-3.18
X7.39Y-3.08
X7.39Y-3.18
X7.49Y-3.08
X7.49Y-3.18
X7.59Y-3.08
X7.59Y-3.18
T7
X3.8016Y-2.9875
X3.9Y-2.83
X4.0614Y-3.0662
T8
X5.25Y-3.79
X5.25Y-4.39
X5.35Y-3.79
X5.35Y-4.39
X5.45Y-3.79
X5.45Y-4.39
X5.55Y-3.79
X5.55Y-4.39
X5.65Y-3.79
X5.65Y-4.39
X5.75Y-3.79
X5.75Y-4.39
X5.85Y-3.79
X5.85Y-4.39
X5.95Y-3.79
X5.95Y-4.39
X6.05Y-3.79
X6.05Y-4.39
X6.15Y-3.79
X6.15Y-4.39
X6.25Y-3.79
X6.25Y-4.39
X6.35Y-3.79
X6.35Y-4.39
X6.45Y-3.79
X6.45Y-4.39
X6.55Y-3.79
X6.55Y-4.39
T0
M30
