G04 #@! TF.GenerationSoftware,KiCad,Pcbnew,(5.1.5)-3*
G04 #@! TF.CreationDate,2020-10-12T17:18:37+01:00*
G04 #@! TF.ProjectId,MSXPi1,4d535850-6931-42e6-9b69-6361645f7063,rev?*
G04 #@! TF.SameCoordinates,Original*
G04 #@! TF.FileFunction,Legend,Bot*
G04 #@! TF.FilePolarity,Positive*
%FSLAX46Y46*%
G04 Gerber Fmt 4.6, Leading zero omitted, Abs format (unit mm)*
G04 Created by KiCad (PCBNEW (5.1.5)-3) date 2020-10-12 17:18:37*
%MOMM*%
%LPD*%
G04 APERTURE LIST*
%ADD10C,0.300000*%
G04 APERTURE END LIST*
D10*
X168522571Y-84244571D02*
X168522571Y-82744571D01*
X167879714Y-84244571D02*
X167879714Y-83458857D01*
X167951142Y-83316000D01*
X168094000Y-83244571D01*
X168308285Y-83244571D01*
X168451142Y-83316000D01*
X168522571Y-83387428D01*
X167379714Y-83244571D02*
X166808285Y-83244571D01*
X167165428Y-82744571D02*
X167165428Y-84030285D01*
X167094000Y-84173142D01*
X166951142Y-84244571D01*
X166808285Y-84244571D01*
X166522571Y-83244571D02*
X165951142Y-83244571D01*
X166308285Y-82744571D02*
X166308285Y-84030285D01*
X166236857Y-84173142D01*
X166094000Y-84244571D01*
X165951142Y-84244571D01*
X165451142Y-83244571D02*
X165451142Y-84744571D01*
X165451142Y-83316000D02*
X165308285Y-83244571D01*
X165022571Y-83244571D01*
X164879714Y-83316000D01*
X164808285Y-83387428D01*
X164736857Y-83530285D01*
X164736857Y-83958857D01*
X164808285Y-84101714D01*
X164879714Y-84173142D01*
X165022571Y-84244571D01*
X165308285Y-84244571D01*
X165451142Y-84173142D01*
X164165428Y-84173142D02*
X164022571Y-84244571D01*
X163736857Y-84244571D01*
X163594000Y-84173142D01*
X163522571Y-84030285D01*
X163522571Y-83958857D01*
X163594000Y-83816000D01*
X163736857Y-83744571D01*
X163951142Y-83744571D01*
X164094000Y-83673142D01*
X164165428Y-83530285D01*
X164165428Y-83458857D01*
X164094000Y-83316000D01*
X163951142Y-83244571D01*
X163736857Y-83244571D01*
X163594000Y-83316000D01*
X162879714Y-84101714D02*
X162808285Y-84173142D01*
X162879714Y-84244571D01*
X162951142Y-84173142D01*
X162879714Y-84101714D01*
X162879714Y-84244571D01*
X162879714Y-83316000D02*
X162808285Y-83387428D01*
X162879714Y-83458857D01*
X162951142Y-83387428D01*
X162879714Y-83316000D01*
X162879714Y-83458857D01*
X161094000Y-82673142D02*
X162379714Y-84601714D01*
X159522571Y-82673142D02*
X160808285Y-84601714D01*
X158379714Y-83244571D02*
X158379714Y-84458857D01*
X158451142Y-84601714D01*
X158522571Y-84673142D01*
X158665428Y-84744571D01*
X158879714Y-84744571D01*
X159022571Y-84673142D01*
X158379714Y-84173142D02*
X158522571Y-84244571D01*
X158808285Y-84244571D01*
X158951142Y-84173142D01*
X159022571Y-84101714D01*
X159094000Y-83958857D01*
X159094000Y-83530285D01*
X159022571Y-83387428D01*
X158951142Y-83316000D01*
X158808285Y-83244571D01*
X158522571Y-83244571D01*
X158379714Y-83316000D01*
X157665428Y-84244571D02*
X157665428Y-83244571D01*
X157665428Y-82744571D02*
X157736857Y-82816000D01*
X157665428Y-82887428D01*
X157594000Y-82816000D01*
X157665428Y-82744571D01*
X157665428Y-82887428D01*
X157165428Y-83244571D02*
X156594000Y-83244571D01*
X156951142Y-82744571D02*
X156951142Y-84030285D01*
X156879714Y-84173142D01*
X156736857Y-84244571D01*
X156594000Y-84244571D01*
X156094000Y-84244571D02*
X156094000Y-82744571D01*
X155451142Y-84244571D02*
X155451142Y-83458857D01*
X155522571Y-83316000D01*
X155665428Y-83244571D01*
X155879714Y-83244571D01*
X156022571Y-83316000D01*
X156094000Y-83387428D01*
X154094000Y-83244571D02*
X154094000Y-84244571D01*
X154736857Y-83244571D02*
X154736857Y-84030285D01*
X154665428Y-84173142D01*
X154522571Y-84244571D01*
X154308285Y-84244571D01*
X154165428Y-84173142D01*
X154094000Y-84101714D01*
X153379714Y-84244571D02*
X153379714Y-82744571D01*
X153379714Y-83316000D02*
X153236857Y-83244571D01*
X152951142Y-83244571D01*
X152808285Y-83316000D01*
X152736857Y-83387428D01*
X152665428Y-83530285D01*
X152665428Y-83958857D01*
X152736857Y-84101714D01*
X152808285Y-84173142D01*
X152951142Y-84244571D01*
X153236857Y-84244571D01*
X153379714Y-84173142D01*
X152022571Y-84101714D02*
X151951142Y-84173142D01*
X152022571Y-84244571D01*
X152094000Y-84173142D01*
X152022571Y-84101714D01*
X152022571Y-84244571D01*
X150665428Y-84173142D02*
X150808285Y-84244571D01*
X151094000Y-84244571D01*
X151236857Y-84173142D01*
X151308285Y-84101714D01*
X151379714Y-83958857D01*
X151379714Y-83530285D01*
X151308285Y-83387428D01*
X151236857Y-83316000D01*
X151094000Y-83244571D01*
X150808285Y-83244571D01*
X150665428Y-83316000D01*
X149808285Y-84244571D02*
X149951142Y-84173142D01*
X150022571Y-84101714D01*
X150094000Y-83958857D01*
X150094000Y-83530285D01*
X150022571Y-83387428D01*
X149951142Y-83316000D01*
X149808285Y-83244571D01*
X149594000Y-83244571D01*
X149451142Y-83316000D01*
X149379714Y-83387428D01*
X149308285Y-83530285D01*
X149308285Y-83958857D01*
X149379714Y-84101714D01*
X149451142Y-84173142D01*
X149594000Y-84244571D01*
X149808285Y-84244571D01*
X148665428Y-84244571D02*
X148665428Y-83244571D01*
X148665428Y-83387428D02*
X148594000Y-83316000D01*
X148451142Y-83244571D01*
X148236857Y-83244571D01*
X148094000Y-83316000D01*
X148022571Y-83458857D01*
X148022571Y-84244571D01*
X148022571Y-83458857D02*
X147951142Y-83316000D01*
X147808285Y-83244571D01*
X147594000Y-83244571D01*
X147451142Y-83316000D01*
X147379714Y-83458857D01*
X147379714Y-84244571D01*
X145594000Y-82673142D02*
X146879714Y-84601714D01*
X144451142Y-84173142D02*
X144594000Y-84244571D01*
X144879714Y-84244571D01*
X145022571Y-84173142D01*
X145094000Y-84101714D01*
X145165428Y-83958857D01*
X145165428Y-83530285D01*
X145094000Y-83387428D01*
X145022571Y-83316000D01*
X144879714Y-83244571D01*
X144594000Y-83244571D01*
X144451142Y-83316000D01*
X143594000Y-84244571D02*
X143736857Y-84173142D01*
X143808285Y-84101714D01*
X143879714Y-83958857D01*
X143879714Y-83530285D01*
X143808285Y-83387428D01*
X143736857Y-83316000D01*
X143594000Y-83244571D01*
X143379714Y-83244571D01*
X143236857Y-83316000D01*
X143165428Y-83387428D01*
X143094000Y-83530285D01*
X143094000Y-83958857D01*
X143165428Y-84101714D01*
X143236857Y-84173142D01*
X143379714Y-84244571D01*
X143594000Y-84244571D01*
X142522571Y-84173142D02*
X142379714Y-84244571D01*
X142094000Y-84244571D01*
X141951142Y-84173142D01*
X141879714Y-84030285D01*
X141879714Y-83958857D01*
X141951142Y-83816000D01*
X142094000Y-83744571D01*
X142308285Y-83744571D01*
X142451142Y-83673142D01*
X142522571Y-83530285D01*
X142522571Y-83458857D01*
X142451142Y-83316000D01*
X142308285Y-83244571D01*
X142094000Y-83244571D01*
X141951142Y-83316000D01*
X141451142Y-83244571D02*
X140879714Y-83244571D01*
X141236857Y-82744571D02*
X141236857Y-84030285D01*
X141165428Y-84173142D01*
X141022571Y-84244571D01*
X140879714Y-84244571D01*
X139736857Y-84244571D02*
X139736857Y-83458857D01*
X139808285Y-83316000D01*
X139951142Y-83244571D01*
X140236857Y-83244571D01*
X140379714Y-83316000D01*
X139736857Y-84173142D02*
X139879714Y-84244571D01*
X140236857Y-84244571D01*
X140379714Y-84173142D01*
X140451142Y-84030285D01*
X140451142Y-83887428D01*
X140379714Y-83744571D01*
X140236857Y-83673142D01*
X139879714Y-83673142D01*
X139736857Y-83601714D01*
X139022571Y-84244571D02*
X139022571Y-83244571D01*
X139022571Y-83530285D02*
X138951142Y-83387428D01*
X138879714Y-83316000D01*
X138736857Y-83244571D01*
X138594000Y-83244571D01*
X137451142Y-84173142D02*
X137594000Y-84244571D01*
X137879714Y-84244571D01*
X138022571Y-84173142D01*
X138094000Y-84101714D01*
X138165428Y-83958857D01*
X138165428Y-83530285D01*
X138094000Y-83387428D01*
X138022571Y-83316000D01*
X137879714Y-83244571D01*
X137594000Y-83244571D01*
X137451142Y-83316000D01*
X135736857Y-82673142D02*
X137022571Y-84601714D01*
X135236857Y-84244571D02*
X135236857Y-82744571D01*
X134736857Y-83816000D01*
X134236857Y-82744571D01*
X134236857Y-84244571D01*
X133594000Y-84173142D02*
X133379714Y-84244571D01*
X133022571Y-84244571D01*
X132879714Y-84173142D01*
X132808285Y-84101714D01*
X132736857Y-83958857D01*
X132736857Y-83816000D01*
X132808285Y-83673142D01*
X132879714Y-83601714D01*
X133022571Y-83530285D01*
X133308285Y-83458857D01*
X133451142Y-83387428D01*
X133522571Y-83316000D01*
X133594000Y-83173142D01*
X133594000Y-83030285D01*
X133522571Y-82887428D01*
X133451142Y-82816000D01*
X133308285Y-82744571D01*
X132951142Y-82744571D01*
X132736857Y-82816000D01*
X132236857Y-82744571D02*
X131236857Y-84244571D01*
X131236857Y-82744571D02*
X132236857Y-84244571D01*
X130665428Y-84244571D02*
X130665428Y-82744571D01*
X130094000Y-82744571D01*
X129951142Y-82816000D01*
X129879714Y-82887428D01*
X129808285Y-83030285D01*
X129808285Y-83244571D01*
X129879714Y-83387428D01*
X129951142Y-83458857D01*
X130094000Y-83530285D01*
X130665428Y-83530285D01*
X129165428Y-84244571D02*
X129165428Y-83244571D01*
X129165428Y-82744571D02*
X129236857Y-82816000D01*
X129165428Y-82887428D01*
X129094000Y-82816000D01*
X129165428Y-82744571D01*
X129165428Y-82887428D01*
M02*
